<?xml version="1.0" encoding="utf-8" standalone="no"?>
<!DOCTYPE svg PUBLIC "-//W3C//DTD SVG 1.1//EN"
  "http://www.w3.org/Graphics/SVG/1.1/DTD/svg11.dtd">
<svg xmlns:xlink="http://www.w3.org/1999/xlink" width="388.965625pt" height="262.19625pt" viewBox="0 0 388.965625 262.19625" xmlns="http://www.w3.org/2000/svg" version="1.1">
 <metadata>
  <rdf:RDF xmlns:dc="http://purl.org/dc/elements/1.1/" xmlns:cc="http://creativecommons.org/ns#" xmlns:rdf="http://www.w3.org/1999/02/22-rdf-syntax-ns#">
   <cc:Work>
    <dc:type rdf:resource="http://purl.org/dc/dcmitype/StillImage"/>
    <dc:date>2022-08-10T08:06:06.846604</dc:date>
    <dc:format>image/svg+xml</dc:format>
    <dc:creator>
     <cc:Agent>
      <dc:title>Matplotlib v3.5.1, https://matplotlib.org/</dc:title>
     </cc:Agent>
    </dc:creator>
   </cc:Work>
  </rdf:RDF>
 </metadata>
 <defs>
  <style type="text/css">*{stroke-linejoin: round; stroke-linecap: butt}</style>
 </defs>
 <g id="figure_1">
  <g id="patch_1">
   <path d="M 0 262.19625 
L 388.965625 262.19625 
L 388.965625 0 
L 0 0 
L 0 262.19625 
z
" style="fill: none"/>
  </g>
  <g id="axes_1">
   <g id="patch_2">
    <path d="M 46.965625 224.64 
L 381.765625 224.64 
L 381.765625 7.2 
L 46.965625 7.2 
z
" style="fill: #ffffff"/>
   </g>
   <g id="PathCollection_1">
    <defs>
     <path id="m4b75cc26b8" d="M 0 3 
C 0.795609 3 1.55874 2.683901 2.12132 2.12132 
C 2.683901 1.55874 3 0.795609 3 0 
C 3 -0.795609 2.683901 -1.55874 2.12132 -2.12132 
C 1.55874 -2.683901 0.795609 -3 0 -3 
C -0.795609 -3 -1.55874 -2.683901 -2.12132 -2.12132 
C -2.683901 -1.55874 -3 -0.795609 -3 0 
C -3 0.795609 -2.683901 1.55874 -2.12132 2.12132 
C -1.55874 2.683901 -0.795609 3 0 3 
z
" style="stroke: #1f77b4; stroke-opacity: 0.8"/>
    </defs>
    <g clip-path="url(#p1fb1aaf799)">
     <use xlink:href="#m4b75cc26b8" x="229.390573" y="114.369898" style="fill: #1f77b4; fill-opacity: 0.8; stroke: #1f77b4; stroke-opacity: 0.8"/>
     <use xlink:href="#m4b75cc26b8" x="232.229933" y="82.153446" style="fill: #1f77b4; fill-opacity: 0.8; stroke: #1f77b4; stroke-opacity: 0.8"/>
     <use xlink:href="#m4b75cc26b8" x="183.487583" y="118.590253" style="fill: #1f77b4; fill-opacity: 0.8; stroke: #1f77b4; stroke-opacity: 0.8"/>
     <use xlink:href="#m4b75cc26b8" x="294.301501" y="53.094205" style="fill: #1f77b4; fill-opacity: 0.8; stroke: #1f77b4; stroke-opacity: 0.8"/>
     <use xlink:href="#m4b75cc26b8" x="196.422446" y="100.323525" style="fill: #1f77b4; fill-opacity: 0.8; stroke: #1f77b4; stroke-opacity: 0.8"/>
     <use xlink:href="#m4b75cc26b8" x="161.719155" y="167.945858" style="fill: #1f77b4; fill-opacity: 0.8; stroke: #1f77b4; stroke-opacity: 0.8"/>
     <use xlink:href="#m4b75cc26b8" x="176.468054" y="119.878911" style="fill: #1f77b4; fill-opacity: 0.8; stroke: #1f77b4; stroke-opacity: 0.8"/>
     <use xlink:href="#m4b75cc26b8" x="190.743726" y="146.844082" style="fill: #1f77b4; fill-opacity: 0.8; stroke: #1f77b4; stroke-opacity: 0.8"/>
     <use xlink:href="#m4b75cc26b8" x="107.376956" y="199.614631" style="fill: #1f77b4; fill-opacity: 0.8; stroke: #1f77b4; stroke-opacity: 0.8"/>
     <use xlink:href="#m4b75cc26b8" x="127.331349" y="156.025771" style="fill: #1f77b4; fill-opacity: 0.8; stroke: #1f77b4; stroke-opacity: 0.8"/>
     <use xlink:href="#m4b75cc26b8" x="309.0504" y="92.043896" style="fill: #1f77b4; fill-opacity: 0.8; stroke: #1f77b4; stroke-opacity: 0.8"/>
     <use xlink:href="#m4b75cc26b8" x="135.455074" y="194.234483" style="fill: #1f77b4; fill-opacity: 0.8; stroke: #1f77b4; stroke-opacity: 0.8"/>
     <use xlink:href="#m4b75cc26b8" x="135.21846" y="153.577321" style="fill: #1f77b4; fill-opacity: 0.8; stroke: #1f77b4; stroke-opacity: 0.8"/>
     <use xlink:href="#m4b75cc26b8" x="97.202582" y="202.578545" style="fill: #1f77b4; fill-opacity: 0.8; stroke: #1f77b4; stroke-opacity: 0.8"/>
     <use xlink:href="#m4b75cc26b8" x="302.03087" y="69.234648" style="fill: #1f77b4; fill-opacity: 0.8; stroke: #1f77b4; stroke-opacity: 0.8"/>
     <use xlink:href="#m4b75cc26b8" x="146.023803" y="175.710023" style="fill: #1f77b4; fill-opacity: 0.8; stroke: #1f77b4; stroke-opacity: 0.8"/>
     <use xlink:href="#m4b75cc26b8" x="251.080129" y="100.226875" style="fill: #1f77b4; fill-opacity: 0.8; stroke: #1f77b4; stroke-opacity: 0.8"/>
     <use xlink:href="#m4b75cc26b8" x="226.472341" y="149.840212" style="fill: #1f77b4; fill-opacity: 0.8; stroke: #1f77b4; stroke-opacity: 0.8"/>
     <use xlink:href="#m4b75cc26b8" x="97.281453" y="196.71515" style="fill: #1f77b4; fill-opacity: 0.8; stroke: #1f77b4; stroke-opacity: 0.8"/>
     <use xlink:href="#m4b75cc26b8" x="215.588127" y="131.6057" style="fill: #1f77b4; fill-opacity: 0.8; stroke: #1f77b4; stroke-opacity: 0.8"/>
     <use xlink:href="#m4b75cc26b8" x="109.506476" y="159.505148" style="fill: #1f77b4; fill-opacity: 0.8; stroke: #1f77b4; stroke-opacity: 0.8"/>
     <use xlink:href="#m4b75cc26b8" x="209.041825" y="119.202366" style="fill: #1f77b4; fill-opacity: 0.8; stroke: #1f77b4; stroke-opacity: 0.8"/>
     <use xlink:href="#m4b75cc26b8" x="236.25236" y="92.237195" style="fill: #1f77b4; fill-opacity: 0.8; stroke: #1f77b4; stroke-opacity: 0.8"/>
     <use xlink:href="#m4b75cc26b8" x="155.251724" y="176.74095" style="fill: #1f77b4; fill-opacity: 0.8; stroke: #1f77b4; stroke-opacity: 0.8"/>
     <use xlink:href="#m4b75cc26b8" x="309.287013" y="50.677972" style="fill: #1f77b4; fill-opacity: 0.8; stroke: #1f77b4; stroke-opacity: 0.8"/>
     <use xlink:href="#m4b75cc26b8" x="166.372551" y="151.064437" style="fill: #1f77b4; fill-opacity: 0.8; stroke: #1f77b4; stroke-opacity: 0.8"/>
     <use xlink:href="#m4b75cc26b8" x="233.176386" y="100.935637" style="fill: #1f77b4; fill-opacity: 0.8; stroke: #1f77b4; stroke-opacity: 0.8"/>
     <use xlink:href="#m4b75cc26b8" x="165.347226" y="170.20101" style="fill: #1f77b4; fill-opacity: 0.8; stroke: #1f77b4; stroke-opacity: 0.8"/>
     <use xlink:href="#m4b75cc26b8" x="73.856732" y="199.582415" style="fill: #1f77b4; fill-opacity: 0.8; stroke: #1f77b4; stroke-opacity: 0.8"/>
     <use xlink:href="#m4b75cc26b8" x="111.478254" y="157.056697" style="fill: #1f77b4; fill-opacity: 0.8; stroke: #1f77b4; stroke-opacity: 0.8"/>
     <use xlink:href="#m4b75cc26b8" x="291.067785" y="73.906034" style="fill: #1f77b4; fill-opacity: 0.8; stroke: #1f77b4; stroke-opacity: 0.8"/>
     <use xlink:href="#m4b75cc26b8" x="281.760994" y="66.077436" style="fill: #1f77b4; fill-opacity: 0.8; stroke: #1f77b4; stroke-opacity: 0.8"/>
     <use xlink:href="#m4b75cc26b8" x="234.12284" y="88.113489" style="fill: #1f77b4; fill-opacity: 0.8; stroke: #1f77b4; stroke-opacity: 0.8"/>
     <use xlink:href="#m4b75cc26b8" x="205.808109" y="108.055473" style="fill: #1f77b4; fill-opacity: 0.8; stroke: #1f77b4; stroke-opacity: 0.8"/>
     <use xlink:href="#m4b75cc26b8" x="104.064369" y="185.697124" style="fill: #1f77b4; fill-opacity: 0.8; stroke: #1f77b4; stroke-opacity: 0.8"/>
     <use xlink:href="#m4b75cc26b8" x="228.286377" y="83.92535" style="fill: #1f77b4; fill-opacity: 0.8; stroke: #1f77b4; stroke-opacity: 0.8"/>
     <use xlink:href="#m4b75cc26b8" x="105.562921" y="174.260283" style="fill: #1f77b4; fill-opacity: 0.8; stroke: #1f77b4; stroke-opacity: 0.8"/>
     <use xlink:href="#m4b75cc26b8" x="220.241523" y="75.323558" style="fill: #1f77b4; fill-opacity: 0.8; stroke: #1f77b4; stroke-opacity: 0.8"/>
     <use xlink:href="#m4b75cc26b8" x="249.581578" y="102.54646" style="fill: #1f77b4; fill-opacity: 0.8; stroke: #1f77b4; stroke-opacity: 0.8"/>
     <use xlink:href="#m4b75cc26b8" x="88.763373" y="170.458742" style="fill: #1f77b4; fill-opacity: 0.8; stroke: #1f77b4; stroke-opacity: 0.8"/>
     <use xlink:href="#m4b75cc26b8" x="118.26117" y="164.724213" style="fill: #1f77b4; fill-opacity: 0.8; stroke: #1f77b4; stroke-opacity: 0.8"/>
     <use xlink:href="#m4b75cc26b8" x="263.699508" y="85.439524" style="fill: #1f77b4; fill-opacity: 0.8; stroke: #1f77b4; stroke-opacity: 0.8"/>
     <use xlink:href="#m4b75cc26b8" x="105.405178" y="173.615954" style="fill: #1f77b4; fill-opacity: 0.8; stroke: #1f77b4; stroke-opacity: 0.8"/>
     <use xlink:href="#m4b75cc26b8" x="332.869477" y="48.938283" style="fill: #1f77b4; fill-opacity: 0.8; stroke: #1f77b4; stroke-opacity: 0.8"/>
     <use xlink:href="#m4b75cc26b8" x="127.962318" y="178.835019" style="fill: #1f77b4; fill-opacity: 0.8; stroke: #1f77b4; stroke-opacity: 0.8"/>
     <use xlink:href="#m4b75cc26b8" x="141.528149" y="128.996167" style="fill: #1f77b4; fill-opacity: 0.8; stroke: #1f77b4; stroke-opacity: 0.8"/>
     <use xlink:href="#m4b75cc26b8" x="238.855106" y="104.576096" style="fill: #1f77b4; fill-opacity: 0.8; stroke: #1f77b4; stroke-opacity: 0.8"/>
     <use xlink:href="#m4b75cc26b8" x="219.689425" y="73.970467" style="fill: #1f77b4; fill-opacity: 0.8; stroke: #1f77b4; stroke-opacity: 0.8"/>
     <use xlink:href="#m4b75cc26b8" x="213.695221" y="125.097977" style="fill: #1f77b4; fill-opacity: 0.8; stroke: #1f77b4; stroke-opacity: 0.8"/>
     <use xlink:href="#m4b75cc26b8" x="124.886344" y="161.148187" style="fill: #1f77b4; fill-opacity: 0.8; stroke: #1f77b4; stroke-opacity: 0.8"/>
     <use xlink:href="#m4b75cc26b8" x="288.228425" y="84.762978" style="fill: #1f77b4; fill-opacity: 0.8; stroke: #1f77b4; stroke-opacity: 0.8"/>
     <use xlink:href="#m4b75cc26b8" x="194.292926" y="158.699736" style="fill: #1f77b4; fill-opacity: 0.8; stroke: #1f77b4; stroke-opacity: 0.8"/>
     <use xlink:href="#m4b75cc26b8" x="162.03464" y="116.335102" style="fill: #1f77b4; fill-opacity: 0.8; stroke: #1f77b4; stroke-opacity: 0.8"/>
     <use xlink:href="#m4b75cc26b8" x="159.353022" y="135.310592" style="fill: #1f77b4; fill-opacity: 0.8; stroke: #1f77b4; stroke-opacity: 0.8"/>
     <use xlink:href="#m4b75cc26b8" x="201.943424" y="107.121196" style="fill: #1f77b4; fill-opacity: 0.8; stroke: #1f77b4; stroke-opacity: 0.8"/>
     <use xlink:href="#m4b75cc26b8" x="192.715504" y="143.751303" style="fill: #1f77b4; fill-opacity: 0.8; stroke: #1f77b4; stroke-opacity: 0.8"/>
     <use xlink:href="#m4b75cc26b8" x="230.573639" y="82.217878" style="fill: #1f77b4; fill-opacity: 0.8; stroke: #1f77b4; stroke-opacity: 0.8"/>
     <use xlink:href="#m4b75cc26b8" x="196.422446" y="142.655943" style="fill: #1f77b4; fill-opacity: 0.8; stroke: #1f77b4; stroke-opacity: 0.8"/>
     <use xlink:href="#m4b75cc26b8" x="165.899324" y="106.799032" style="fill: #1f77b4; fill-opacity: 0.8; stroke: #1f77b4; stroke-opacity: 0.8"/>
     <use xlink:href="#m4b75cc26b8" x="230.494768" y="91.496217" style="fill: #1f77b4; fill-opacity: 0.8; stroke: #1f77b4; stroke-opacity: 0.8"/>
     <use xlink:href="#m4b75cc26b8" x="187.194526" y="102.514243" style="fill: #1f77b4; fill-opacity: 0.8; stroke: #1f77b4; stroke-opacity: 0.8"/>
     <use xlink:href="#m4b75cc26b8" x="65.023167" y="214.756364" style="fill: #1f77b4; fill-opacity: 0.8; stroke: #1f77b4; stroke-opacity: 0.8"/>
     <use xlink:href="#m4b75cc26b8" x="90.971764" y="192.043765" style="fill: #1f77b4; fill-opacity: 0.8; stroke: #1f77b4; stroke-opacity: 0.8"/>
     <use xlink:href="#m4b75cc26b8" x="180.569352" y="124.034834" style="fill: #1f77b4; fill-opacity: 0.8; stroke: #1f77b4; stroke-opacity: 0.8"/>
     <use xlink:href="#m4b75cc26b8" x="210.14602" y="111.309335" style="fill: #1f77b4; fill-opacity: 0.8; stroke: #1f77b4; stroke-opacity: 0.8"/>
     <use xlink:href="#m4b75cc26b8" x="182.383387" y="139.015484" style="fill: #1f77b4; fill-opacity: 0.8; stroke: #1f77b4; stroke-opacity: 0.8"/>
     <use xlink:href="#m4b75cc26b8" x="269.851455" y="79.350614" style="fill: #1f77b4; fill-opacity: 0.8; stroke: #1f77b4; stroke-opacity: 0.8"/>
     <use xlink:href="#m4b75cc26b8" x="80.166421" y="168.976785" style="fill: #1f77b4; fill-opacity: 0.8; stroke: #1f77b4; stroke-opacity: 0.8"/>
     <use xlink:href="#m4b75cc26b8" x="81.428359" y="179.898162" style="fill: #1f77b4; fill-opacity: 0.8; stroke: #1f77b4; stroke-opacity: 0.8"/>
     <use xlink:href="#m4b75cc26b8" x="302.819582" y="39.112265" style="fill: #1f77b4; fill-opacity: 0.8; stroke: #1f77b4; stroke-opacity: 0.8"/>
     <use xlink:href="#m4b75cc26b8" x="71.648341" y="206.380086" style="fill: #1f77b4; fill-opacity: 0.8; stroke: #1f77b4; stroke-opacity: 0.8"/>
     <use xlink:href="#m4b75cc26b8" x="197.763255" y="133.442038" style="fill: #1f77b4; fill-opacity: 0.8; stroke: #1f77b4; stroke-opacity: 0.8"/>
     <use xlink:href="#m4b75cc26b8" x="152.964461" y="127.546427" style="fill: #1f77b4; fill-opacity: 0.8; stroke: #1f77b4; stroke-opacity: 0.8"/>
     <use xlink:href="#m4b75cc26b8" x="295.247954" y="70.587739" style="fill: #1f77b4; fill-opacity: 0.8; stroke: #1f77b4; stroke-opacity: 0.8"/>
     <use xlink:href="#m4b75cc26b8" x="278.921633" y="79.092883" style="fill: #1f77b4; fill-opacity: 0.8; stroke: #1f77b4; stroke-opacity: 0.8"/>
     <use xlink:href="#m4b75cc26b8" x="199.182935" y="126.547717" style="fill: #1f77b4; fill-opacity: 0.8; stroke: #1f77b4; stroke-opacity: 0.8"/>
     <use xlink:href="#m4b75cc26b8" x="292.014239" y="85.568389" style="fill: #1f77b4; fill-opacity: 0.8; stroke: #1f77b4; stroke-opacity: 0.8"/>
     <use xlink:href="#m4b75cc26b8" x="255.970139" y="91.689515" style="fill: #1f77b4; fill-opacity: 0.8; stroke: #1f77b4; stroke-opacity: 0.8"/>
     <use xlink:href="#m4b75cc26b8" x="141.922505" y="143.719086" style="fill: #1f77b4; fill-opacity: 0.8; stroke: #1f77b4; stroke-opacity: 0.8"/>
     <use xlink:href="#m4b75cc26b8" x="206.123593" y="123.003907" style="fill: #1f77b4; fill-opacity: 0.8; stroke: #1f77b4; stroke-opacity: 0.8"/>
     <use xlink:href="#m4b75cc26b8" x="67.073816" y="180.027028" style="fill: #1f77b4; fill-opacity: 0.8; stroke: #1f77b4; stroke-opacity: 0.8"/>
     <use xlink:href="#m4b75cc26b8" x="175.5216" y="125.967821" style="fill: #1f77b4; fill-opacity: 0.8; stroke: #1f77b4; stroke-opacity: 0.8"/>
     <use xlink:href="#m4b75cc26b8" x="104.537596" y="165.143027" style="fill: #1f77b4; fill-opacity: 0.8; stroke: #1f77b4; stroke-opacity: 0.8"/>
     <use xlink:href="#m4b75cc26b8" x="245.559151" y="70.168925" style="fill: #1f77b4; fill-opacity: 0.8; stroke: #1f77b4; stroke-opacity: 0.8"/>
     <use xlink:href="#m4b75cc26b8" x="108.560023" y="185.761556" style="fill: #1f77b4; fill-opacity: 0.8; stroke: #1f77b4; stroke-opacity: 0.8"/>
     <use xlink:href="#m4b75cc26b8" x="217.481034" y="111.373768" style="fill: #1f77b4; fill-opacity: 0.8; stroke: #1f77b4; stroke-opacity: 0.8"/>
     <use xlink:href="#m4b75cc26b8" x="201.943424" y="128.706219" style="fill: #1f77b4; fill-opacity: 0.8; stroke: #1f77b4; stroke-opacity: 0.8"/>
     <use xlink:href="#m4b75cc26b8" x="366.547443" y="57.507859" style="fill: #1f77b4; fill-opacity: 0.8; stroke: #1f77b4; stroke-opacity: 0.8"/>
     <use xlink:href="#m4b75cc26b8" x="62.183807" y="205.026995" style="fill: #1f77b4; fill-opacity: 0.8; stroke: #1f77b4; stroke-opacity: 0.8"/>
     <use xlink:href="#m4b75cc26b8" x="151.860266" y="173.583737" style="fill: #1f77b4; fill-opacity: 0.8; stroke: #1f77b4; stroke-opacity: 0.8"/>
     <use xlink:href="#m4b75cc26b8" x="79.693195" y="198.325973" style="fill: #1f77b4; fill-opacity: 0.8; stroke: #1f77b4; stroke-opacity: 0.8"/>
     <use xlink:href="#m4b75cc26b8" x="126.069411" y="175.291209" style="fill: #1f77b4; fill-opacity: 0.8; stroke: #1f77b4; stroke-opacity: 0.8"/>
     <use xlink:href="#m4b75cc26b8" x="154.384141" y="174.872396" style="fill: #1f77b4; fill-opacity: 0.8; stroke: #1f77b4; stroke-opacity: 0.8"/>
     <use xlink:href="#m4b75cc26b8" x="293.907145" y="77.868657" style="fill: #1f77b4; fill-opacity: 0.8; stroke: #1f77b4; stroke-opacity: 0.8"/>
     <use xlink:href="#m4b75cc26b8" x="244.928182" y="85.342874" style="fill: #1f77b4; fill-opacity: 0.8; stroke: #1f77b4; stroke-opacity: 0.8"/>
     <use xlink:href="#m4b75cc26b8" x="196.185833" y="92.366061" style="fill: #1f77b4; fill-opacity: 0.8; stroke: #1f77b4; stroke-opacity: 0.8"/>
     <use xlink:href="#m4b75cc26b8" x="158.327697" y="163.016741" style="fill: #1f77b4; fill-opacity: 0.8; stroke: #1f77b4; stroke-opacity: 0.8"/>
     <use xlink:href="#m4b75cc26b8" x="181.279192" y="120.52324" style="fill: #1f77b4; fill-opacity: 0.8; stroke: #1f77b4; stroke-opacity: 0.8"/>
     <use xlink:href="#m4b75cc26b8" x="130.801678" y="154.865979" style="fill: #1f77b4; fill-opacity: 0.8; stroke: #1f77b4; stroke-opacity: 0.8"/>
     <use xlink:href="#m4b75cc26b8" x="145.392834" y="182.346613" style="fill: #1f77b4; fill-opacity: 0.8; stroke: #1f77b4; stroke-opacity: 0.8"/>
    </g>
   </g>
   <g id="PolyCollection_1">
    <path d="M 62.183807 194.86412 
L 62.183807 207.992964 
L 65.258187 206.103531 
L 68.332567 204.223328 
L 71.406947 202.3789 
L 74.481327 200.528413 
L 77.555708 198.640007 
L 80.630088 196.750823 
L 83.704468 194.845647 
L 86.778848 192.973642 
L 89.853228 191.085186 
L 92.927608 189.197527 
L 96.001989 187.328153 
L 99.076369 185.491861 
L 102.150749 183.631751 
L 105.225129 181.753114 
L 108.299509 179.926038 
L 111.373889 178.064875 
L 114.44827 176.210127 
L 117.52265 174.409084 
L 120.59703 172.611382 
L 123.67141 170.784443 
L 126.74579 168.878049 
L 129.82017 167.016711 
L 132.894551 165.188288 
L 135.968931 163.360638 
L 139.043311 161.532023 
L 142.117691 159.656876 
L 145.192071 157.814772 
L 148.266451 155.990974 
L 151.340832 154.188495 
L 154.415212 152.392582 
L 157.489592 150.565946 
L 160.563972 148.841564 
L 163.638352 147.089804 
L 166.712732 145.229704 
L 169.787113 143.341335 
L 172.861493 141.531461 
L 175.935873 139.827734 
L 179.010253 138.066044 
L 182.084633 136.319744 
L 185.159013 134.588403 
L 188.233394 132.70998 
L 191.307774 131.032524 
L 194.382154 129.344036 
L 197.456534 127.569291 
L 200.530914 125.778179 
L 203.605294 124.040568 
L 206.679675 122.25821 
L 209.754055 120.567887 
L 212.828435 118.863964 
L 215.902815 117.111379 
L 218.977195 115.372269 
L 222.051575 113.656214 
L 225.125956 111.925884 
L 228.200336 110.224338 
L 231.274716 108.580675 
L 234.349096 106.900933 
L 237.423476 105.170165 
L 240.497856 103.439358 
L 243.572237 101.731772 
L 246.646617 100.115904 
L 249.720997 98.425432 
L 252.795377 96.742461 
L 255.869757 95.038831 
L 258.944137 93.332872 
L 262.018518 91.626913 
L 265.092898 89.965972 
L 268.167278 88.265893 
L 271.241658 86.63119 
L 274.316038 84.9977 
L 277.390418 83.362321 
L 280.464799 81.72006 
L 283.539179 80.032408 
L 286.613559 78.344757 
L 289.687939 76.711615 
L 292.762319 75.036326 
L 295.836699 73.428951 
L 298.91108 71.718424 
L 301.98546 70.066866 
L 305.05984 68.465441 
L 308.13422 66.864016 
L 311.2086 65.262591 
L 314.28298 63.661166 
L 317.357361 62.025541 
L 320.431741 60.315816 
L 323.506121 58.709762 
L 326.580501 57.103709 
L 329.654881 55.478219 
L 332.729261 53.894726 
L 335.803642 52.290766 
L 338.878022 50.681145 
L 341.952402 49.047327 
L 345.026782 47.413509 
L 348.101162 45.779691 
L 351.175542 44.145873 
L 354.249923 42.511517 
L 357.324303 40.854402 
L 360.398683 39.178512 
L 363.473063 37.502621 
L 366.547443 35.826731 
L 366.547443 17.083636 
L 366.547443 17.083636 
L 363.473063 18.98448 
L 360.398683 20.885323 
L 357.324303 22.786166 
L 354.249923 24.68701 
L 351.175542 26.587853 
L 348.101162 28.462255 
L 345.026782 30.381982 
L 341.952402 32.291857 
L 338.878022 34.192797 
L 335.803642 36.092569 
L 332.729261 37.992913 
L 329.654881 39.893757 
L 326.580501 41.7946 
L 323.506121 43.695443 
L 320.431741 45.596287 
L 317.357361 47.49713 
L 314.28298 49.399588 
L 311.2086 51.309069 
L 308.13422 53.218551 
L 305.05984 55.128032 
L 301.98546 57.037514 
L 298.91108 58.900972 
L 295.836699 60.848001 
L 292.762319 62.792059 
L 289.687939 64.676763 
L 286.613559 66.585603 
L 283.539179 68.49549 
L 280.464799 70.405376 
L 277.390418 72.315263 
L 274.316038 74.225149 
L 271.241658 76.135036 
L 268.167278 78.044922 
L 265.092898 79.952558 
L 262.018518 81.833338 
L 258.944137 83.685824 
L 255.869757 85.518637 
L 252.795377 87.373734 
L 249.720997 89.194201 
L 246.646617 91.049909 
L 243.572237 92.869531 
L 240.497856 94.708601 
L 237.423476 96.575541 
L 234.349096 98.449283 
L 231.274716 100.276241 
L 228.200336 102.096388 
L 225.125956 103.97585 
L 222.051575 105.813006 
L 218.977195 107.751303 
L 215.902815 109.568001 
L 212.828435 111.319744 
L 209.754055 113.13292 
L 206.679675 114.979836 
L 203.605294 116.7626 
L 200.530914 118.560588 
L 197.456534 120.41937 
L 194.382154 122.263474 
L 191.307774 124.055777 
L 188.233394 125.848362 
L 185.159013 127.590651 
L 182.084633 129.401617 
L 179.010253 131.225374 
L 175.935873 132.967905 
L 172.861493 134.717661 
L 169.787113 136.461012 
L 166.712732 138.210734 
L 163.638352 139.953739 
L 160.563972 141.616164 
L 157.489592 143.355385 
L 154.415212 145.044467 
L 151.340832 146.78892 
L 148.266451 148.462117 
L 145.192071 150.207416 
L 142.117691 151.884765 
L 139.043311 153.575684 
L 135.968931 155.172719 
L 132.894551 156.815875 
L 129.82017 158.449632 
L 126.74579 160.220621 
L 123.67141 161.838199 
L 120.59703 163.511778 
L 117.52265 165.117123 
L 114.44827 166.788121 
L 111.373889 168.460454 
L 108.299509 170.098711 
L 105.225129 171.721777 
L 102.150749 173.357456 
L 99.076369 175.015737 
L 96.001989 176.675285 
L 92.927608 178.335002 
L 89.853228 179.994112 
L 86.778848 181.652223 
L 83.704468 183.298888 
L 80.630088 184.925352 
L 77.555708 186.562461 
L 74.481327 188.265027 
L 71.406947 189.94703 
L 68.332567 191.594093 
L 65.258187 193.247387 
L 62.183807 194.86412 
z
" clip-path="url(#p1fb1aaf799)" style="fill: #1f77b4; fill-opacity: 0.15"/>
   </g>
   <g id="matplotlib.axis_1">
    <g id="xtick_1">
     <g id="line2d_1">
      <defs>
       <path id="mcbe79a885c" d="M 0 0 
L 0 3.5 
" style="stroke: #000000; stroke-width: 0.8"/>
      </defs>
      <g>
       <use xlink:href="#mcbe79a885c" x="75.82851" y="224.64" style="stroke: #000000; stroke-width: 0.8"/>
      </g>
     </g>
     <g id="text_1">
      <!-- 155 -->
      <g transform="translate(66.28476 239.238438)scale(0.1 -0.1)">
       <defs>
        <path id="DejaVuSans-31" d="M 794 531 
L 1825 531 
L 1825 4091 
L 703 3866 
L 703 4441 
L 1819 4666 
L 2450 4666 
L 2450 531 
L 3481 531 
L 3481 0 
L 794 0 
L 794 531 
z
" transform="scale(0.015625)"/>
        <path id="DejaVuSans-35" d="M 691 4666 
L 3169 4666 
L 3169 4134 
L 1269 4134 
L 1269 2991 
Q 1406 3038 1543 3061 
Q 1681 3084 1819 3084 
Q 2600 3084 3056 2656 
Q 3513 2228 3513 1497 
Q 3513 744 3044 326 
Q 2575 -91 1722 -91 
Q 1428 -91 1123 -41 
Q 819 9 494 109 
L 494 744 
Q 775 591 1075 516 
Q 1375 441 1709 441 
Q 2250 441 2565 725 
Q 2881 1009 2881 1497 
Q 2881 1984 2565 2268 
Q 2250 2553 1709 2553 
Q 1456 2553 1204 2497 
Q 953 2441 691 2322 
L 691 4666 
z
" transform="scale(0.015625)"/>
       </defs>
       <use xlink:href="#DejaVuSans-31"/>
       <use xlink:href="#DejaVuSans-35" x="63.623047"/>
       <use xlink:href="#DejaVuSans-35" x="127.246094"/>
      </g>
     </g>
    </g>
    <g id="xtick_2">
     <g id="line2d_2">
      <g>
       <use xlink:href="#mcbe79a885c" x="115.264068" y="224.64" style="stroke: #000000; stroke-width: 0.8"/>
      </g>
     </g>
     <g id="text_2">
      <!-- 160 -->
      <g transform="translate(105.720318 239.238438)scale(0.1 -0.1)">
       <defs>
        <path id="DejaVuSans-36" d="M 2113 2584 
Q 1688 2584 1439 2293 
Q 1191 2003 1191 1497 
Q 1191 994 1439 701 
Q 1688 409 2113 409 
Q 2538 409 2786 701 
Q 3034 994 3034 1497 
Q 3034 2003 2786 2293 
Q 2538 2584 2113 2584 
z
M 3366 4563 
L 3366 3988 
Q 3128 4100 2886 4159 
Q 2644 4219 2406 4219 
Q 1781 4219 1451 3797 
Q 1122 3375 1075 2522 
Q 1259 2794 1537 2939 
Q 1816 3084 2150 3084 
Q 2853 3084 3261 2657 
Q 3669 2231 3669 1497 
Q 3669 778 3244 343 
Q 2819 -91 2113 -91 
Q 1303 -91 875 529 
Q 447 1150 447 2328 
Q 447 3434 972 4092 
Q 1497 4750 2381 4750 
Q 2619 4750 2861 4703 
Q 3103 4656 3366 4563 
z
" transform="scale(0.015625)"/>
        <path id="DejaVuSans-30" d="M 2034 4250 
Q 1547 4250 1301 3770 
Q 1056 3291 1056 2328 
Q 1056 1369 1301 889 
Q 1547 409 2034 409 
Q 2525 409 2770 889 
Q 3016 1369 3016 2328 
Q 3016 3291 2770 3770 
Q 2525 4250 2034 4250 
z
M 2034 4750 
Q 2819 4750 3233 4129 
Q 3647 3509 3647 2328 
Q 3647 1150 3233 529 
Q 2819 -91 2034 -91 
Q 1250 -91 836 529 
Q 422 1150 422 2328 
Q 422 3509 836 4129 
Q 1250 4750 2034 4750 
z
" transform="scale(0.015625)"/>
       </defs>
       <use xlink:href="#DejaVuSans-31"/>
       <use xlink:href="#DejaVuSans-36" x="63.623047"/>
       <use xlink:href="#DejaVuSans-30" x="127.246094"/>
      </g>
     </g>
    </g>
    <g id="xtick_3">
     <g id="line2d_3">
      <g>
       <use xlink:href="#mcbe79a885c" x="154.699626" y="224.64" style="stroke: #000000; stroke-width: 0.8"/>
      </g>
     </g>
     <g id="text_3">
      <!-- 165 -->
      <g transform="translate(145.155876 239.238438)scale(0.1 -0.1)">
       <use xlink:href="#DejaVuSans-31"/>
       <use xlink:href="#DejaVuSans-36" x="63.623047"/>
       <use xlink:href="#DejaVuSans-35" x="127.246094"/>
      </g>
     </g>
    </g>
    <g id="xtick_4">
     <g id="line2d_4">
      <g>
       <use xlink:href="#mcbe79a885c" x="194.135184" y="224.64" style="stroke: #000000; stroke-width: 0.8"/>
      </g>
     </g>
     <g id="text_4">
      <!-- 170 -->
      <g transform="translate(184.591434 239.238438)scale(0.1 -0.1)">
       <defs>
        <path id="DejaVuSans-37" d="M 525 4666 
L 3525 4666 
L 3525 4397 
L 1831 0 
L 1172 0 
L 2766 4134 
L 525 4134 
L 525 4666 
z
" transform="scale(0.015625)"/>
       </defs>
       <use xlink:href="#DejaVuSans-31"/>
       <use xlink:href="#DejaVuSans-37" x="63.623047"/>
       <use xlink:href="#DejaVuSans-30" x="127.246094"/>
      </g>
     </g>
    </g>
    <g id="xtick_5">
     <g id="line2d_5">
      <g>
       <use xlink:href="#mcbe79a885c" x="233.570742" y="224.64" style="stroke: #000000; stroke-width: 0.8"/>
      </g>
     </g>
     <g id="text_5">
      <!-- 175 -->
      <g transform="translate(224.026992 239.238438)scale(0.1 -0.1)">
       <use xlink:href="#DejaVuSans-31"/>
       <use xlink:href="#DejaVuSans-37" x="63.623047"/>
       <use xlink:href="#DejaVuSans-35" x="127.246094"/>
      </g>
     </g>
    </g>
    <g id="xtick_6">
     <g id="line2d_6">
      <g>
       <use xlink:href="#mcbe79a885c" x="273.0063" y="224.64" style="stroke: #000000; stroke-width: 0.8"/>
      </g>
     </g>
     <g id="text_6">
      <!-- 180 -->
      <g transform="translate(263.46255 239.238438)scale(0.1 -0.1)">
       <defs>
        <path id="DejaVuSans-38" d="M 2034 2216 
Q 1584 2216 1326 1975 
Q 1069 1734 1069 1313 
Q 1069 891 1326 650 
Q 1584 409 2034 409 
Q 2484 409 2743 651 
Q 3003 894 3003 1313 
Q 3003 1734 2745 1975 
Q 2488 2216 2034 2216 
z
M 1403 2484 
Q 997 2584 770 2862 
Q 544 3141 544 3541 
Q 544 4100 942 4425 
Q 1341 4750 2034 4750 
Q 2731 4750 3128 4425 
Q 3525 4100 3525 3541 
Q 3525 3141 3298 2862 
Q 3072 2584 2669 2484 
Q 3125 2378 3379 2068 
Q 3634 1759 3634 1313 
Q 3634 634 3220 271 
Q 2806 -91 2034 -91 
Q 1263 -91 848 271 
Q 434 634 434 1313 
Q 434 1759 690 2068 
Q 947 2378 1403 2484 
z
M 1172 3481 
Q 1172 3119 1398 2916 
Q 1625 2713 2034 2713 
Q 2441 2713 2670 2916 
Q 2900 3119 2900 3481 
Q 2900 3844 2670 4047 
Q 2441 4250 2034 4250 
Q 1625 4250 1398 4047 
Q 1172 3844 1172 3481 
z
" transform="scale(0.015625)"/>
       </defs>
       <use xlink:href="#DejaVuSans-31"/>
       <use xlink:href="#DejaVuSans-38" x="63.623047"/>
       <use xlink:href="#DejaVuSans-30" x="127.246094"/>
      </g>
     </g>
    </g>
    <g id="xtick_7">
     <g id="line2d_7">
      <g>
       <use xlink:href="#mcbe79a885c" x="312.441858" y="224.64" style="stroke: #000000; stroke-width: 0.8"/>
      </g>
     </g>
     <g id="text_7">
      <!-- 185 -->
      <g transform="translate(302.898108 239.238438)scale(0.1 -0.1)">
       <use xlink:href="#DejaVuSans-31"/>
       <use xlink:href="#DejaVuSans-38" x="63.623047"/>
       <use xlink:href="#DejaVuSans-35" x="127.246094"/>
      </g>
     </g>
    </g>
    <g id="xtick_8">
     <g id="line2d_8">
      <g>
       <use xlink:href="#mcbe79a885c" x="351.877416" y="224.64" style="stroke: #000000; stroke-width: 0.8"/>
      </g>
     </g>
     <g id="text_8">
      <!-- 190 -->
      <g transform="translate(342.333666 239.238438)scale(0.1 -0.1)">
       <defs>
        <path id="DejaVuSans-39" d="M 703 97 
L 703 672 
Q 941 559 1184 500 
Q 1428 441 1663 441 
Q 2288 441 2617 861 
Q 2947 1281 2994 2138 
Q 2813 1869 2534 1725 
Q 2256 1581 1919 1581 
Q 1219 1581 811 2004 
Q 403 2428 403 3163 
Q 403 3881 828 4315 
Q 1253 4750 1959 4750 
Q 2769 4750 3195 4129 
Q 3622 3509 3622 2328 
Q 3622 1225 3098 567 
Q 2575 -91 1691 -91 
Q 1453 -91 1209 -44 
Q 966 3 703 97 
z
M 1959 2075 
Q 2384 2075 2632 2365 
Q 2881 2656 2881 3163 
Q 2881 3666 2632 3958 
Q 2384 4250 1959 4250 
Q 1534 4250 1286 3958 
Q 1038 3666 1038 3163 
Q 1038 2656 1286 2365 
Q 1534 2075 1959 2075 
z
" transform="scale(0.015625)"/>
       </defs>
       <use xlink:href="#DejaVuSans-31"/>
       <use xlink:href="#DejaVuSans-39" x="63.623047"/>
       <use xlink:href="#DejaVuSans-30" x="127.246094"/>
      </g>
     </g>
    </g>
    <g id="text_9">
     <!-- Height -->
     <g transform="translate(197.836719 252.916563)scale(0.1 -0.1)">
      <defs>
       <path id="DejaVuSans-48" d="M 628 4666 
L 1259 4666 
L 1259 2753 
L 3553 2753 
L 3553 4666 
L 4184 4666 
L 4184 0 
L 3553 0 
L 3553 2222 
L 1259 2222 
L 1259 0 
L 628 0 
L 628 4666 
z
" transform="scale(0.015625)"/>
       <path id="DejaVuSans-65" d="M 3597 1894 
L 3597 1613 
L 953 1613 
Q 991 1019 1311 708 
Q 1631 397 2203 397 
Q 2534 397 2845 478 
Q 3156 559 3463 722 
L 3463 178 
Q 3153 47 2828 -22 
Q 2503 -91 2169 -91 
Q 1331 -91 842 396 
Q 353 884 353 1716 
Q 353 2575 817 3079 
Q 1281 3584 2069 3584 
Q 2775 3584 3186 3129 
Q 3597 2675 3597 1894 
z
M 3022 2063 
Q 3016 2534 2758 2815 
Q 2500 3097 2075 3097 
Q 1594 3097 1305 2825 
Q 1016 2553 972 2059 
L 3022 2063 
z
" transform="scale(0.015625)"/>
       <path id="DejaVuSans-69" d="M 603 3500 
L 1178 3500 
L 1178 0 
L 603 0 
L 603 3500 
z
M 603 4863 
L 1178 4863 
L 1178 4134 
L 603 4134 
L 603 4863 
z
" transform="scale(0.015625)"/>
       <path id="DejaVuSans-67" d="M 2906 1791 
Q 2906 2416 2648 2759 
Q 2391 3103 1925 3103 
Q 1463 3103 1205 2759 
Q 947 2416 947 1791 
Q 947 1169 1205 825 
Q 1463 481 1925 481 
Q 2391 481 2648 825 
Q 2906 1169 2906 1791 
z
M 3481 434 
Q 3481 -459 3084 -895 
Q 2688 -1331 1869 -1331 
Q 1566 -1331 1297 -1286 
Q 1028 -1241 775 -1147 
L 775 -588 
Q 1028 -725 1275 -790 
Q 1522 -856 1778 -856 
Q 2344 -856 2625 -561 
Q 2906 -266 2906 331 
L 2906 616 
Q 2728 306 2450 153 
Q 2172 0 1784 0 
Q 1141 0 747 490 
Q 353 981 353 1791 
Q 353 2603 747 3093 
Q 1141 3584 1784 3584 
Q 2172 3584 2450 3431 
Q 2728 3278 2906 2969 
L 2906 3500 
L 3481 3500 
L 3481 434 
z
" transform="scale(0.015625)"/>
       <path id="DejaVuSans-68" d="M 3513 2113 
L 3513 0 
L 2938 0 
L 2938 2094 
Q 2938 2591 2744 2837 
Q 2550 3084 2163 3084 
Q 1697 3084 1428 2787 
Q 1159 2491 1159 1978 
L 1159 0 
L 581 0 
L 581 4863 
L 1159 4863 
L 1159 2956 
Q 1366 3272 1645 3428 
Q 1925 3584 2291 3584 
Q 2894 3584 3203 3211 
Q 3513 2838 3513 2113 
z
" transform="scale(0.015625)"/>
       <path id="DejaVuSans-74" d="M 1172 4494 
L 1172 3500 
L 2356 3500 
L 2356 3053 
L 1172 3053 
L 1172 1153 
Q 1172 725 1289 603 
Q 1406 481 1766 481 
L 2356 481 
L 2356 0 
L 1766 0 
Q 1100 0 847 248 
Q 594 497 594 1153 
L 594 3053 
L 172 3053 
L 172 3500 
L 594 3500 
L 594 4494 
L 1172 4494 
z
" transform="scale(0.015625)"/>
      </defs>
      <use xlink:href="#DejaVuSans-48"/>
      <use xlink:href="#DejaVuSans-65" x="75.195312"/>
      <use xlink:href="#DejaVuSans-69" x="136.71875"/>
      <use xlink:href="#DejaVuSans-67" x="164.501953"/>
      <use xlink:href="#DejaVuSans-68" x="227.978516"/>
      <use xlink:href="#DejaVuSans-74" x="291.357422"/>
     </g>
    </g>
   </g>
   <g id="matplotlib.axis_2">
    <g id="ytick_1">
     <g id="line2d_9">
      <defs>
       <path id="m7ce3de22d2" d="M 0 0 
L -3.5 0 
" style="stroke: #000000; stroke-width: 0.8"/>
      </defs>
      <g>
       <use xlink:href="#m7ce3de22d2" x="46.965625" y="206.25122" style="stroke: #000000; stroke-width: 0.8"/>
      </g>
     </g>
     <g id="text_10">
      <!-- 50 -->
      <g transform="translate(27.240625 210.050439)scale(0.1 -0.1)">
       <use xlink:href="#DejaVuSans-35"/>
       <use xlink:href="#DejaVuSans-30" x="63.623047"/>
      </g>
     </g>
    </g>
    <g id="ytick_2">
     <g id="line2d_10">
      <g>
       <use xlink:href="#m7ce3de22d2" x="46.965625" y="174.034768" style="stroke: #000000; stroke-width: 0.8"/>
      </g>
     </g>
     <g id="text_11">
      <!-- 60 -->
      <g transform="translate(27.240625 177.833987)scale(0.1 -0.1)">
       <use xlink:href="#DejaVuSans-36"/>
       <use xlink:href="#DejaVuSans-30" x="63.623047"/>
      </g>
     </g>
    </g>
    <g id="ytick_3">
     <g id="line2d_11">
      <g>
       <use xlink:href="#m7ce3de22d2" x="46.965625" y="141.818315" style="stroke: #000000; stroke-width: 0.8"/>
      </g>
     </g>
     <g id="text_12">
      <!-- 70 -->
      <g transform="translate(27.240625 145.617534)scale(0.1 -0.1)">
       <use xlink:href="#DejaVuSans-37"/>
       <use xlink:href="#DejaVuSans-30" x="63.623047"/>
      </g>
     </g>
    </g>
    <g id="ytick_4">
     <g id="line2d_12">
      <g>
       <use xlink:href="#m7ce3de22d2" x="46.965625" y="109.601863" style="stroke: #000000; stroke-width: 0.8"/>
      </g>
     </g>
     <g id="text_13">
      <!-- 80 -->
      <g transform="translate(27.240625 113.401082)scale(0.1 -0.1)">
       <use xlink:href="#DejaVuSans-38"/>
       <use xlink:href="#DejaVuSans-30" x="63.623047"/>
      </g>
     </g>
    </g>
    <g id="ytick_5">
     <g id="line2d_13">
      <g>
       <use xlink:href="#m7ce3de22d2" x="46.965625" y="77.385411" style="stroke: #000000; stroke-width: 0.8"/>
      </g>
     </g>
     <g id="text_14">
      <!-- 90 -->
      <g transform="translate(27.240625 81.184629)scale(0.1 -0.1)">
       <use xlink:href="#DejaVuSans-39"/>
       <use xlink:href="#DejaVuSans-30" x="63.623047"/>
      </g>
     </g>
    </g>
    <g id="ytick_6">
     <g id="line2d_14">
      <g>
       <use xlink:href="#m7ce3de22d2" x="46.965625" y="45.168958" style="stroke: #000000; stroke-width: 0.8"/>
      </g>
     </g>
     <g id="text_15">
      <!-- 100 -->
      <g transform="translate(20.878125 48.968177)scale(0.1 -0.1)">
       <use xlink:href="#DejaVuSans-31"/>
       <use xlink:href="#DejaVuSans-30" x="63.623047"/>
       <use xlink:href="#DejaVuSans-30" x="127.246094"/>
      </g>
     </g>
    </g>
    <g id="ytick_7">
     <g id="line2d_15">
      <g>
       <use xlink:href="#m7ce3de22d2" x="46.965625" y="12.952506" style="stroke: #000000; stroke-width: 0.8"/>
      </g>
     </g>
     <g id="text_16">
      <!-- 110 -->
      <g transform="translate(20.878125 16.751724)scale(0.1 -0.1)">
       <use xlink:href="#DejaVuSans-31"/>
       <use xlink:href="#DejaVuSans-31" x="63.623047"/>
       <use xlink:href="#DejaVuSans-30" x="127.246094"/>
      </g>
     </g>
    </g>
    <g id="text_17">
     <!-- Weight -->
     <g transform="translate(14.798438 133.33875)rotate(-90)scale(0.1 -0.1)">
      <defs>
       <path id="DejaVuSans-57" d="M 213 4666 
L 850 4666 
L 1831 722 
L 2809 4666 
L 3519 4666 
L 4500 722 
L 5478 4666 
L 6119 4666 
L 4947 0 
L 4153 0 
L 3169 4050 
L 2175 0 
L 1381 0 
L 213 4666 
z
" transform="scale(0.015625)"/>
      </defs>
      <use xlink:href="#DejaVuSans-57"/>
      <use xlink:href="#DejaVuSans-65" x="93.001953"/>
      <use xlink:href="#DejaVuSans-69" x="154.525391"/>
      <use xlink:href="#DejaVuSans-67" x="182.308594"/>
      <use xlink:href="#DejaVuSans-68" x="245.785156"/>
      <use xlink:href="#DejaVuSans-74" x="309.164062"/>
     </g>
    </g>
   </g>
   <g id="line2d_16">
    <path d="M 62.183807 201.783446 
L 65.258187 200.01203 
L 68.332567 198.240614 
L 71.406947 196.469198 
L 74.481327 194.697782 
L 77.555708 192.926365 
L 80.630088 191.154949 
L 83.704468 189.383533 
L 86.778848 187.612117 
L 89.853228 185.840701 
L 92.927608 184.069285 
L 96.001989 182.297869 
L 99.076369 180.526453 
L 102.150749 178.755037 
L 105.225129 176.983621 
L 108.299509 175.212205 
L 111.373889 173.440789 
L 114.44827 171.669372 
L 117.52265 169.897956 
L 120.59703 168.12654 
L 123.67141 166.355124 
L 126.74579 164.583708 
L 129.82017 162.812292 
L 132.894551 161.040876 
L 135.968931 159.26946 
L 139.043311 157.498044 
L 142.117691 155.726628 
L 145.192071 153.955212 
L 148.266451 152.183796 
L 151.340832 150.412379 
L 154.415212 148.640963 
L 157.489592 146.869547 
L 160.563972 145.098131 
L 163.638352 143.326715 
L 166.712732 141.555299 
L 169.787113 139.783883 
L 172.861493 138.012467 
L 175.935873 136.241051 
L 179.010253 134.469635 
L 182.084633 132.698219 
L 185.159013 130.926803 
L 188.233394 129.155387 
L 191.307774 127.38397 
L 194.382154 125.612554 
L 197.456534 123.841138 
L 200.530914 122.069722 
L 203.605294 120.298306 
L 206.679675 118.52689 
L 209.754055 116.755474 
L 212.828435 114.984058 
L 215.902815 113.212642 
L 218.977195 111.441226 
L 222.051575 109.66981 
L 225.125956 107.898394 
L 228.200336 106.126977 
L 231.274716 104.355561 
L 234.349096 102.584145 
L 237.423476 100.812729 
L 240.497856 99.041313 
L 243.572237 97.269897 
L 246.646617 95.498481 
L 249.720997 93.727065 
L 252.795377 91.955649 
L 255.869757 90.184233 
L 258.944137 88.412817 
L 262.018518 86.641401 
L 265.092898 84.869984 
L 268.167278 83.098568 
L 271.241658 81.327152 
L 274.316038 79.555736 
L 277.390418 77.78432 
L 280.464799 76.012904 
L 283.539179 74.241488 
L 286.613559 72.470072 
L 289.687939 70.698656 
L 292.762319 68.92724 
L 295.836699 67.155824 
L 298.91108 65.384408 
L 301.98546 63.612992 
L 305.05984 61.841575 
L 308.13422 60.070159 
L 311.2086 58.298743 
L 314.28298 56.527327 
L 317.357361 54.755911 
L 320.431741 52.984495 
L 323.506121 51.213079 
L 326.580501 49.441663 
L 329.654881 47.670247 
L 332.729261 45.898831 
L 335.803642 44.127415 
L 338.878022 42.355999 
L 341.952402 40.584582 
L 345.026782 38.813166 
L 348.101162 37.04175 
L 351.175542 35.270334 
L 354.249923 33.498918 
L 357.324303 31.727502 
L 360.398683 29.956086 
L 363.473063 28.18467 
L 366.547443 26.413254 
" clip-path="url(#p1fb1aaf799)" style="fill: none; stroke: #1f77b4; stroke-width: 2.25; stroke-linecap: square"/>
   </g>
   <g id="patch_3">
    <path d="M 46.965625 224.64 
L 46.965625 7.2 
" style="fill: none; stroke: #000000; stroke-width: 0.8; stroke-linejoin: miter; stroke-linecap: square"/>
   </g>
   <g id="patch_4">
    <path d="M 381.765625 224.64 
L 381.765625 7.2 
" style="fill: none; stroke: #000000; stroke-width: 0.8; stroke-linejoin: miter; stroke-linecap: square"/>
   </g>
   <g id="patch_5">
    <path d="M 46.965625 224.64 
L 381.765625 224.64 
" style="fill: none; stroke: #000000; stroke-width: 0.8; stroke-linejoin: miter; stroke-linecap: square"/>
   </g>
   <g id="patch_6">
    <path d="M 46.965625 7.2 
L 381.765625 7.2 
" style="fill: none; stroke: #000000; stroke-width: 0.8; stroke-linejoin: miter; stroke-linecap: square"/>
   </g>
  </g>
 </g>
 <defs>
  <clipPath id="p1fb1aaf799">
   <rect x="46.965625" y="7.2" width="334.8" height="217.44"/>
  </clipPath>
 </defs>
</svg>
