<?xml version="1.0" encoding="utf-8" standalone="no"?>
<!DOCTYPE svg PUBLIC "-//W3C//DTD SVG 1.1//EN"
  "http://www.w3.org/Graphics/SVG/1.1/DTD/svg11.dtd">
<svg xmlns:xlink="http://www.w3.org/1999/xlink" width="923.83395pt" height="249.01pt" viewBox="0 0 923.83395 249.01" xmlns="http://www.w3.org/2000/svg" version="1.1">
 <metadata>
  <rdf:RDF xmlns:dc="http://purl.org/dc/elements/1.1/" xmlns:cc="http://creativecommons.org/ns#" xmlns:rdf="http://www.w3.org/1999/02/22-rdf-syntax-ns#">
   <cc:Work>
    <dc:type rdf:resource="http://purl.org/dc/dcmitype/StillImage"/>
    <dc:date>2022-07-28T15:20:02.280469</dc:date>
    <dc:format>image/svg+xml</dc:format>
    <dc:creator>
     <cc:Agent>
      <dc:title>Matplotlib v3.5.1, https://matplotlib.org/</dc:title>
     </cc:Agent>
    </dc:creator>
   </cc:Work>
  </rdf:RDF>
 </metadata>
 <defs>
  <style type="text/css">*{stroke-linejoin: round; stroke-linecap: butt}</style>
 </defs>
 <g id="figure_1">
  <g id="patch_1">
   <path d="M 0 249.01 
L 923.83395 249.01 
L 923.83395 0 
L 0 0 
L 0 249.01 
z
" style="fill: none"/>
  </g>
  <g id="axes_1">
   <g id="patch_2">
    <path d="M 49.190625 211.45375 
L 850.69895 211.45375 
L 850.69895 12.96 
L 49.190625 12.96 
z
" style="fill: #ffffff"/>
   </g>
   <g id="PolyCollection_1">
    <defs>
     <path id="m674f0b2af5" d="M 85.622822 -37.869841 
L 85.622822 -37.55625 
L 89.284349 -37.55625 
L 92.945876 -37.55625 
L 96.607403 -37.55625 
L 100.268931 -37.55625 
L 103.930458 -37.55625 
L 107.591985 -37.55625 
L 111.253513 -37.55625 
L 114.91504 -37.55625 
L 118.576567 -37.55625 
L 122.238095 -37.55625 
L 125.899622 -37.55625 
L 129.561149 -37.55625 
L 133.222676 -37.55625 
L 136.884204 -37.55625 
L 140.545731 -37.55625 
L 144.207258 -37.55625 
L 147.868786 -37.55625 
L 151.530313 -37.55625 
L 155.19184 -37.55625 
L 158.853367 -37.55625 
L 162.514895 -37.55625 
L 166.176422 -37.55625 
L 169.837949 -37.55625 
L 173.499477 -37.55625 
L 177.161004 -37.55625 
L 180.822531 -37.55625 
L 184.484059 -37.55625 
L 188.145586 -37.55625 
L 191.807113 -37.55625 
L 195.46864 -37.55625 
L 199.130168 -37.55625 
L 202.791695 -37.55625 
L 206.453222 -37.55625 
L 210.11475 -37.55625 
L 213.776277 -37.55625 
L 217.437804 -37.55625 
L 221.099331 -37.55625 
L 224.760859 -37.55625 
L 228.422386 -37.55625 
L 232.083913 -37.55625 
L 235.745441 -37.55625 
L 239.406968 -37.55625 
L 243.068495 -37.55625 
L 246.730023 -37.55625 
L 250.39155 -37.55625 
L 254.053077 -37.55625 
L 257.714604 -37.55625 
L 261.376132 -37.55625 
L 265.037659 -37.55625 
L 268.699186 -37.55625 
L 272.360714 -37.55625 
L 276.022241 -37.55625 
L 279.683768 -37.55625 
L 283.345296 -37.55625 
L 287.006823 -37.55625 
L 290.66835 -37.55625 
L 294.329877 -37.55625 
L 297.991405 -37.55625 
L 301.652932 -37.55625 
L 305.314459 -37.55625 
L 308.975987 -37.55625 
L 312.637514 -37.55625 
L 316.299041 -37.55625 
L 319.960568 -37.55625 
L 323.622096 -37.55625 
L 327.283623 -37.55625 
L 330.94515 -37.55625 
L 334.606678 -37.55625 
L 338.268205 -37.55625 
L 341.929732 -37.55625 
L 345.59126 -37.55625 
L 349.252787 -37.55625 
L 352.914314 -37.55625 
L 356.575841 -37.55625 
L 360.237369 -37.55625 
L 363.898896 -37.55625 
L 367.560423 -37.55625 
L 371.221951 -37.55625 
L 374.883478 -37.55625 
L 378.545005 -37.55625 
L 382.206532 -37.55625 
L 385.86806 -37.55625 
L 389.529587 -37.55625 
L 393.191114 -37.55625 
L 396.852642 -37.55625 
L 400.514169 -37.55625 
L 404.175696 -37.55625 
L 407.837224 -37.55625 
L 411.498751 -37.55625 
L 415.160278 -37.55625 
L 418.821805 -37.55625 
L 422.483333 -37.55625 
L 426.14486 -37.55625 
L 429.806387 -37.55625 
L 433.467915 -37.55625 
L 437.129442 -37.55625 
L 440.790969 -37.55625 
L 444.452496 -37.55625 
L 448.114024 -37.55625 
L 451.775551 -37.55625 
L 455.437078 -37.55625 
L 459.098606 -37.55625 
L 462.760133 -37.55625 
L 466.42166 -37.55625 
L 470.083188 -37.55625 
L 473.744715 -37.55625 
L 477.406242 -37.55625 
L 481.067769 -37.55625 
L 484.729297 -37.55625 
L 488.390824 -37.55625 
L 492.052351 -37.55625 
L 495.713879 -37.55625 
L 499.375406 -37.55625 
L 503.036933 -37.55625 
L 506.69846 -37.55625 
L 510.359988 -37.55625 
L 514.021515 -37.55625 
L 517.683042 -37.55625 
L 521.34457 -37.55625 
L 525.006097 -37.55625 
L 528.667624 -37.55625 
L 532.329152 -37.55625 
L 535.990679 -37.55625 
L 539.652206 -37.55625 
L 543.313733 -37.55625 
L 546.975261 -37.55625 
L 550.636788 -37.55625 
L 554.298315 -37.55625 
L 557.959843 -37.55625 
L 561.62137 -37.55625 
L 565.282897 -37.55625 
L 568.944424 -37.55625 
L 572.605952 -37.55625 
L 576.267479 -37.55625 
L 579.929006 -37.55625 
L 583.590534 -37.55625 
L 587.252061 -37.55625 
L 590.913588 -37.55625 
L 594.575116 -37.55625 
L 598.236643 -37.55625 
L 601.89817 -37.55625 
L 605.559697 -37.55625 
L 609.221225 -37.55625 
L 612.882752 -37.55625 
L 616.544279 -37.55625 
L 620.205807 -37.55625 
L 623.867334 -37.55625 
L 627.528861 -37.55625 
L 631.190389 -37.55625 
L 634.851916 -37.55625 
L 638.513443 -37.55625 
L 642.17497 -37.55625 
L 645.836498 -37.55625 
L 649.498025 -37.55625 
L 653.159552 -37.55625 
L 656.82108 -37.55625 
L 660.482607 -37.55625 
L 664.144134 -37.55625 
L 667.805661 -37.55625 
L 671.467189 -37.55625 
L 675.128716 -37.55625 
L 678.790243 -37.55625 
L 682.451771 -37.55625 
L 686.113298 -37.55625 
L 689.774825 -37.55625 
L 693.436353 -37.55625 
L 697.09788 -37.55625 
L 700.759407 -37.55625 
L 704.420934 -37.55625 
L 708.082462 -37.55625 
L 711.743989 -37.55625 
L 715.405516 -37.55625 
L 719.067044 -37.55625 
L 722.728571 -37.55625 
L 726.390098 -37.55625 
L 730.051625 -37.55625 
L 733.713153 -37.55625 
L 737.37468 -37.55625 
L 741.036207 -37.55625 
L 744.697735 -37.55625 
L 748.359262 -37.55625 
L 752.020789 -37.55625 
L 755.682317 -37.55625 
L 759.343844 -37.55625 
L 763.005371 -37.55625 
L 766.666898 -37.55625 
L 770.328426 -37.55625 
L 773.989953 -37.55625 
L 777.65148 -37.55625 
L 781.313008 -37.55625 
L 784.974535 -37.55625 
L 788.636062 -37.55625 
L 792.297589 -37.55625 
L 795.959117 -37.55625 
L 799.620644 -37.55625 
L 803.282171 -37.55625 
L 806.943699 -37.55625 
L 810.605226 -37.55625 
L 814.266753 -37.55625 
L 814.266753 -37.557626 
L 814.266753 -37.557626 
L 810.605226 -37.562858 
L 806.943699 -37.578948 
L 803.282171 -37.612015 
L 799.620644 -37.654246 
L 795.959117 -37.679428 
L 792.297589 -37.666996 
L 788.636062 -37.627468 
L 784.974535 -37.589009 
L 781.313008 -37.567028 
L 777.65148 -37.558786 
L 773.989953 -37.556677 
L 770.328426 -37.556301 
L 766.666898 -37.556254 
L 763.005371 -37.55625 
L 759.343844 -37.55625 
L 755.682317 -37.55625 
L 752.020789 -37.55625 
L 748.359262 -37.55625 
L 744.697735 -37.55625 
L 741.036207 -37.55625 
L 737.37468 -37.55625 
L 733.713153 -37.55625 
L 730.051625 -37.55625 
L 726.390098 -37.55625 
L 722.728571 -37.55625 
L 719.067044 -37.55625 
L 715.405516 -37.55625 
L 711.743989 -37.55625 
L 708.082462 -37.556251 
L 704.420934 -37.556266 
L 700.759407 -37.556404 
L 697.09788 -37.557333 
L 693.436353 -37.561695 
L 689.774825 -37.575824 
L 686.113298 -37.606581 
L 682.451771 -37.64882 
L 678.790243 -37.67803 
L 675.128716 -37.670842 
L 671.467189 -37.633377 
L 667.805661 -37.59338 
L 664.144134 -37.569035 
L 660.482607 -37.559399 
L 656.82108 -37.556805 
L 653.159552 -37.55632 
L 649.498025 -37.556256 
L 645.836498 -37.55625 
L 642.17497 -37.55625 
L 638.513443 -37.556251 
L 634.851916 -37.556258 
L 631.190389 -37.556338 
L 627.528861 -37.556924 
L 623.867334 -37.559946 
L 620.205807 -37.570746 
L 616.544279 -37.596916 
L 612.882752 -37.63785 
L 609.221225 -37.673367 
L 605.559697 -37.676482 
L 601.89817 -37.644535 
L 598.236643 -37.602619 
L 594.575116 -37.57367 
L 590.913588 -37.560931 
L 587.252061 -37.55715 
L 583.590534 -37.556374 
L 579.929006 -37.556262 
L 576.267479 -37.556251 
L 572.605952 -37.55625 
L 568.944424 -37.55625 
L 565.282897 -37.55625 
L 561.62137 -37.55625 
L 557.959843 -37.55625 
L 554.298315 -37.55625 
L 550.636788 -37.55625 
L 546.975261 -37.55625 
L 543.313733 -37.55625 
L 539.652206 -37.55625 
L 535.990679 -37.55625 
L 532.329152 -37.55625 
L 528.667624 -37.55625 
L 525.006097 -37.55625 
L 521.34457 -37.556251 
L 517.683042 -37.55626 
L 514.021515 -37.556351 
L 510.359988 -37.557007 
L 506.69846 -37.560317 
L 503.036933 -37.571868 
L 499.375406 -37.599152 
L 495.713879 -37.640546 
L 492.052351 -37.67472 
L 488.390824 -37.675343 
L 484.729297 -37.641881 
L 481.067769 -37.60029 
L 477.406242 -37.572451 
L 473.744715 -37.560513 
L 470.083188 -37.557053 
L 466.42166 -37.556364 
L 462.760133 -37.556326 
L 459.098606 -37.556776 
L 455.437078 -37.559261 
L 451.775551 -37.568593 
L 448.114024 -37.592439 
L 444.452496 -37.632141 
L 440.790969 -37.670085 
L 437.129442 -37.678384 
L 433.467915 -37.649977 
L 429.806387 -37.607698 
L 426.14486 -37.576449 
L 422.483333 -37.561923 
L 418.821805 -37.557389 
L 415.160278 -37.556414 
L 411.498751 -37.556267 
L 407.837224 -37.556251 
L 404.175696 -37.556253 
L 400.514169 -37.556286 
L 396.852642 -37.556575 
L 393.191114 -37.558379 
L 389.529587 -37.566372 
L 385.86806 -37.591288 
L 382.206532 -37.644943 
L 378.545005 -37.721156 
L 374.883478 -37.782407 
L 371.221951 -37.786519 
L 367.560423 -37.735116 
L 363.898896 -37.678028 
L 360.237369 -37.664203 
L 356.575841 -37.699479 
L 352.914314 -37.749326 
L 349.252787 -37.771999 
L 345.59126 -37.750421 
L 341.929732 -37.703123 
L 338.268205 -37.668444 
L 334.606678 -37.667907 
L 330.94515 -37.682668 
L 327.283623 -37.677057 
L 323.622096 -37.642353 
L 319.960568 -37.601616 
L 316.299041 -37.578671 
L 312.637514 -37.582183 
L 308.975987 -37.611353 
L 305.314459 -37.654936 
L 301.652932 -37.690175 
L 297.991405 -37.706606 
L 294.329877 -37.725558 
L 290.66835 -37.767893 
L 287.006823 -37.812444 
L 283.345296 -37.821444 
L 279.683768 -37.794528 
L 276.022241 -37.761278 
L 272.360714 -37.742046 
L 268.699186 -37.753816 
L 265.037659 -37.824375 
L 261.376132 -37.969863 
L 257.714604 -38.196806 
L 254.053077 -38.537468 
L 250.39155 -39.008978 
L 246.730023 -39.503158 
L 243.068495 -39.804805 
L 239.406968 -39.796354 
L 235.745441 -39.592806 
L 232.083913 -39.425307 
L 228.422386 -39.438842 
L 224.760859 -39.595956 
L 221.099331 -39.724128 
L 217.437804 -39.706151 
L 213.776277 -39.642417 
L 210.11475 -39.74734 
L 206.453222 -40.098651 
L 202.791695 -40.557813 
L 199.130168 -40.942734 
L 195.46864 -41.254816 
L 191.807113 -41.700094 
L 188.145586 -42.498142 
L 184.484059 -43.708648 
L 180.822531 -45.189578 
L 177.161004 -46.692996 
L 173.499477 -48.091597 
L 169.837949 -49.554034 
L 166.176422 -51.445133 
L 162.514895 -54.034423 
L 158.853367 -57.379969 
L 155.19184 -61.484896 
L 151.530313 -66.394835 
L 147.868786 -72.174758 
L 144.207258 -78.937624 
L 140.545731 -86.925171 
L 136.884204 -96.804375 
L 133.222676 -110.02332 
L 129.561149 -128.525392 
L 125.899622 -153.496652 
L 122.238095 -183.219834 
L 118.576567 -211.142566 
L 114.91504 -226.597917 
L 111.253513 -219.436926 
L 107.591985 -187.053357 
L 103.930458 -138.987989 
L 100.268931 -92.537371 
L 96.607403 -60.708636 
L 92.945876 -44.965682 
L 89.284349 -39.329317 
L 85.622822 -37.869841 
z
" style="stroke: #1f77b4"/>
    </defs>
    <g clip-path="url(#p0c4932ed6b)">
     <use xlink:href="#m674f0b2af5" x="0" y="249.01" style="fill: #1f77b4; fill-opacity: 0.25; stroke: #1f77b4"/>
    </g>
   </g>
   <g id="PolyCollection_2">
    <defs>
     <path id="m44dda7fe77" d="M 90.539994 -37.922957 
L 90.539994 -37.55625 
L 91.945441 -37.55625 
L 93.350888 -37.55625 
L 94.756334 -37.55625 
L 96.161781 -37.55625 
L 97.567228 -37.55625 
L 98.972675 -37.55625 
L 100.378122 -37.55625 
L 101.783568 -37.55625 
L 103.189015 -37.55625 
L 104.594462 -37.55625 
L 105.999909 -37.55625 
L 107.405356 -37.55625 
L 108.810802 -37.55625 
L 110.216249 -37.55625 
L 111.621696 -37.55625 
L 113.027143 -37.55625 
L 114.43259 -37.55625 
L 115.838036 -37.55625 
L 117.243483 -37.55625 
L 118.64893 -37.55625 
L 120.054377 -37.55625 
L 121.459824 -37.55625 
L 122.865271 -37.55625 
L 124.270717 -37.55625 
L 125.676164 -37.55625 
L 127.081611 -37.55625 
L 128.487058 -37.55625 
L 129.892505 -37.55625 
L 131.297951 -37.55625 
L 132.703398 -37.55625 
L 134.108845 -37.55625 
L 135.514292 -37.55625 
L 136.919739 -37.55625 
L 138.325185 -37.55625 
L 139.730632 -37.55625 
L 141.136079 -37.55625 
L 142.541526 -37.55625 
L 143.946973 -37.55625 
L 145.352419 -37.55625 
L 146.757866 -37.55625 
L 148.163313 -37.55625 
L 149.56876 -37.55625 
L 150.974207 -37.55625 
L 152.379653 -37.55625 
L 153.7851 -37.55625 
L 155.190547 -37.55625 
L 156.595994 -37.55625 
L 158.001441 -37.55625 
L 159.406888 -37.55625 
L 160.812334 -37.55625 
L 162.217781 -37.55625 
L 163.623228 -37.55625 
L 165.028675 -37.55625 
L 166.434122 -37.55625 
L 167.839568 -37.55625 
L 169.245015 -37.55625 
L 170.650462 -37.55625 
L 172.055909 -37.55625 
L 173.461356 -37.55625 
L 174.866802 -37.55625 
L 176.272249 -37.55625 
L 177.677696 -37.55625 
L 179.083143 -37.55625 
L 180.48859 -37.55625 
L 181.894036 -37.55625 
L 183.299483 -37.55625 
L 184.70493 -37.55625 
L 186.110377 -37.55625 
L 187.515824 -37.55625 
L 188.92127 -37.55625 
L 190.326717 -37.55625 
L 191.732164 -37.55625 
L 193.137611 -37.55625 
L 194.543058 -37.55625 
L 195.948504 -37.55625 
L 197.353951 -37.55625 
L 198.759398 -37.55625 
L 200.164845 -37.55625 
L 201.570292 -37.55625 
L 202.975739 -37.55625 
L 204.381185 -37.55625 
L 205.786632 -37.55625 
L 207.192079 -37.55625 
L 208.597526 -37.55625 
L 210.002973 -37.55625 
L 211.408419 -37.55625 
L 212.813866 -37.55625 
L 214.219313 -37.55625 
L 215.62476 -37.55625 
L 217.030207 -37.55625 
L 218.435653 -37.55625 
L 219.8411 -37.55625 
L 221.246547 -37.55625 
L 222.651994 -37.55625 
L 224.057441 -37.55625 
L 225.462887 -37.55625 
L 226.868334 -37.55625 
L 228.273781 -37.55625 
L 229.679228 -37.55625 
L 231.084675 -37.55625 
L 232.490121 -37.55625 
L 233.895568 -37.55625 
L 235.301015 -37.55625 
L 236.706462 -37.55625 
L 238.111909 -37.55625 
L 239.517356 -37.55625 
L 240.922802 -37.55625 
L 242.328249 -37.55625 
L 243.733696 -37.55625 
L 245.139143 -37.55625 
L 246.54459 -37.55625 
L 247.950036 -37.55625 
L 249.355483 -37.55625 
L 250.76093 -37.55625 
L 252.166377 -37.55625 
L 253.571824 -37.55625 
L 254.97727 -37.55625 
L 256.382717 -37.55625 
L 257.788164 -37.55625 
L 259.193611 -37.55625 
L 260.599058 -37.55625 
L 262.004504 -37.55625 
L 263.409951 -37.55625 
L 264.815398 -37.55625 
L 266.220845 -37.55625 
L 267.626292 -37.55625 
L 269.031738 -37.55625 
L 270.437185 -37.55625 
L 271.842632 -37.55625 
L 273.248079 -37.55625 
L 274.653526 -37.55625 
L 276.058973 -37.55625 
L 277.464419 -37.55625 
L 278.869866 -37.55625 
L 280.275313 -37.55625 
L 281.68076 -37.55625 
L 283.086207 -37.55625 
L 284.491653 -37.55625 
L 285.8971 -37.55625 
L 287.302547 -37.55625 
L 288.707994 -37.55625 
L 290.113441 -37.55625 
L 291.518887 -37.55625 
L 292.924334 -37.55625 
L 294.329781 -37.55625 
L 295.735228 -37.55625 
L 297.140675 -37.55625 
L 298.546121 -37.55625 
L 299.951568 -37.55625 
L 301.357015 -37.55625 
L 302.762462 -37.55625 
L 304.167909 -37.55625 
L 305.573355 -37.55625 
L 306.978802 -37.55625 
L 308.384249 -37.55625 
L 309.789696 -37.55625 
L 311.195143 -37.55625 
L 312.600589 -37.55625 
L 314.006036 -37.55625 
L 315.411483 -37.55625 
L 316.81693 -37.55625 
L 318.222377 -37.55625 
L 319.627824 -37.55625 
L 321.03327 -37.55625 
L 322.438717 -37.55625 
L 323.844164 -37.55625 
L 325.249611 -37.55625 
L 326.655058 -37.55625 
L 328.060504 -37.55625 
L 329.465951 -37.55625 
L 330.871398 -37.55625 
L 332.276845 -37.55625 
L 333.682292 -37.55625 
L 335.087738 -37.55625 
L 336.493185 -37.55625 
L 337.898632 -37.55625 
L 339.304079 -37.55625 
L 340.709526 -37.55625 
L 342.114972 -37.55625 
L 343.520419 -37.55625 
L 344.925866 -37.55625 
L 346.331313 -37.55625 
L 347.73676 -37.55625 
L 349.142206 -37.55625 
L 350.547653 -37.55625 
L 351.9531 -37.55625 
L 353.358547 -37.55625 
L 354.763994 -37.55625 
L 356.169441 -37.55625 
L 357.574887 -37.55625 
L 358.980334 -37.55625 
L 360.385781 -37.55625 
L 361.791228 -37.55625 
L 363.196675 -37.55625 
L 364.602121 -37.55625 
L 366.007568 -37.55625 
L 367.413015 -37.55625 
L 368.818462 -37.55625 
L 370.223909 -37.55625 
L 370.223909 -37.558073 
L 370.223909 -37.558073 
L 368.818462 -37.56048 
L 367.413015 -37.565246 
L 366.007568 -37.573788 
L 364.602121 -37.58759 
L 363.196675 -37.607587 
L 361.791228 -37.633346 
L 360.385781 -37.662418 
L 358.980334 -37.690382 
L 357.574887 -37.711903 
L 356.169441 -37.722603 
L 354.763994 -37.720981 
L 353.358547 -37.70939 
L 351.9531 -37.693464 
L 350.547653 -37.680118 
L 349.142206 -37.674948 
L 347.73676 -37.680107 
L 346.331313 -37.693498 
L 344.925866 -37.709622 
L 343.520419 -37.721777 
L 342.114972 -37.724791 
L 340.709526 -37.717234 
L 339.304079 -37.702253 
L 337.898632 -37.686777 
L 336.493185 -37.679508 
L 335.087738 -37.688429 
L 333.682292 -37.718524 
L 332.276845 -37.770143 
L 330.871398 -37.838371 
L 329.465951 -37.913738 
L 328.060504 -37.98444 
L 326.655058 -38.039672 
L 325.249611 -38.072974 
L 323.844164 -38.084157 
L 322.438717 -38.078857 
L 321.03327 -38.065829 
L 319.627824 -38.053155 
L 318.222377 -38.045015 
L 316.81693 -38.040297 
L 315.411483 -38.033468 
L 314.006036 -38.017216 
L 312.600589 -37.985755 
L 311.195143 -37.937466 
L 309.789696 -37.87587 
L 308.384249 -37.808648 
L 306.978802 -37.745313 
L 305.573355 -37.69466 
L 304.167909 -37.662995 
L 302.762462 -37.65349 
L 301.357015 -37.666313 
L 299.951568 -37.698998 
L 298.546121 -37.746768 
L 297.140675 -37.802992 
L 295.735228 -37.860095 
L 294.329781 -37.910956 
L 292.924334 -37.950375 
L 291.518887 -37.976008 
L 290.113441 -37.988357 
L 288.707994 -37.989973 
L 287.302547 -37.984414 
L 285.8971 -37.975534 
L 284.491653 -37.967309 
L 283.086207 -37.963858 
L 281.68076 -37.969032 
L 280.275313 -37.985153 
L 278.869866 -38.011202 
L 277.464419 -38.04152 
L 276.058973 -38.066277 
L 274.653526 -38.074256 
L 273.248079 -38.057115 
L 271.842632 -38.013189 
L 270.437185 -37.948885 
L 269.031738 -37.876922 
L 267.626292 -37.812271 
L 266.220845 -37.767623 
L 264.815398 -37.750105 
L 263.409951 -37.760069 
L 262.004504 -37.79195 
L 260.599058 -37.83667 
L 259.193611 -37.884925 
L 257.788164 -37.930555 
L 256.382717 -37.973015 
L 254.97727 -38.018008 
L 253.571824 -38.075805 
L 252.166377 -38.157546 
L 250.76093 -38.270554 
L 249.355483 -38.414205 
L 247.950036 -38.577919 
L 246.54459 -38.742522 
L 245.139143 -38.885201 
L 243.733696 -38.986792 
L 242.328249 -39.038552 
L 240.922802 -39.045236 
L 239.517356 -39.022727 
L 238.111909 -38.991363 
L 236.706462 -38.968409 
L 235.301015 -38.963312 
L 233.895568 -38.977217 
L 232.490121 -39.005563 
L 231.084675 -39.041261 
L 229.679228 -39.076803 
L 228.273781 -39.10542 
L 226.868334 -39.122483 
L 225.462887 -39.127969 
L 224.057441 -39.129347 
L 222.651994 -39.142971 
L 221.246547 -39.191867 
L 219.8411 -39.298983 
L 218.435653 -39.477295 
L 217.030207 -39.720599 
L 215.62476 -40.000023 
L 214.219313 -40.269807 
L 212.813866 -40.481729 
L 211.408419 -40.602497 
L 210.002973 -40.625758 
L 208.597526 -40.572344 
L 207.192079 -40.478566 
L 205.786632 -40.379178 
L 204.381185 -40.294619 
L 202.975739 -40.229236 
L 201.570292 -40.180139 
L 200.164845 -40.149879 
L 198.759398 -40.154389 
L 197.353951 -40.221332 
L 195.948504 -40.380293 
L 194.543058 -40.650826 
L 193.137611 -41.034628 
L 191.732164 -41.514789 
L 190.326717 -42.060799 
L 188.92127 -42.635741 
L 187.515824 -43.202685 
L 186.110377 -43.729589 
L 184.70493 -44.193695 
L 183.299483 -44.586032 
L 181.894036 -44.914655 
L 180.48859 -45.203949 
L 179.083143 -45.488568 
L 177.677696 -45.803983 
L 176.272249 -46.17857 
L 174.866802 -46.631887 
L 173.461356 -47.180133 
L 172.055909 -47.845462 
L 170.650462 -48.663963 
L 169.245015 -49.68851 
L 167.839568 -50.985612 
L 166.434122 -52.627466 
L 165.028675 -54.681085 
L 163.623228 -57.19663 
L 162.217781 -60.197843 
L 160.812334 -63.67785 
L 159.406888 -67.602164 
L 158.001441 -71.91748 
L 156.595994 -76.562052 
L 155.190547 -81.473773 
L 153.7851 -86.595278 
L 152.379653 -91.878179 
L 150.974207 -97.288006 
L 149.56876 -102.808416 
L 148.163313 -108.441819 
L 146.757866 -114.206201 
L 145.352419 -120.131744 
L 143.946973 -126.260678 
L 142.541526 -132.647965 
L 141.136079 -139.353591 
L 139.730632 -146.416578 
L 138.325185 -153.809262 
L 136.919739 -161.384395 
L 135.514292 -168.839568 
L 134.108845 -175.725509 
L 132.703398 -181.512724 
L 131.297951 -185.70652 
L 129.892505 -187.9734 
L 128.487058 -188.227509 
L 127.081611 -186.636346 
L 125.676164 -183.539307 
L 124.270717 -179.314044 
L 122.865271 -174.251557 
L 121.459824 -168.497376 
L 120.054377 -162.085758 
L 118.64893 -155.05098 
L 117.243483 -147.561522 
L 115.838036 -140.002701 
L 114.43259 -132.941659 
L 113.027143 -126.951565 
L 111.621696 -122.343452 
L 110.216249 -118.926289 
L 108.810802 -115.942538 
L 107.405356 -112.268875 
L 105.999909 -106.837846 
L 104.594462 -99.096642 
L 103.189015 -89.271019 
L 101.783568 -78.29473 
L 100.378122 -67.447065 
L 98.972675 -57.893337 
L 97.567228 -50.348134 
L 96.161781 -44.978874 
L 94.756334 -41.523702 
L 93.350888 -39.507596 
L 91.945441 -38.438694 
L 90.539994 -37.922957 
z
" style="stroke: #ff7f0e"/>
    </defs>
    <g clip-path="url(#p0c4932ed6b)">
     <use xlink:href="#m44dda7fe77" x="0" y="249.01" style="fill: #ff7f0e; fill-opacity: 0.25; stroke: #ff7f0e"/>
    </g>
   </g>
   <g id="matplotlib.axis_1">
    <g id="xtick_1">
     <g id="line2d_1">
      <defs>
       <path id="m3a26520cd8" d="M 0 0 
L 0 3.5 
" style="stroke: #000000; stroke-width: 0.8"/>
      </defs>
      <g>
       <use xlink:href="#m3a26520cd8" x="104.598664" y="211.45375" style="stroke: #000000; stroke-width: 0.8"/>
      </g>
     </g>
     <g id="text_1">
      <!-- 0 -->
      <g transform="translate(101.417414 226.052188)scale(0.1 -0.1)">
       <defs>
        <path id="DejaVuSans-30" d="M 2034 4250 
Q 1547 4250 1301 3770 
Q 1056 3291 1056 2328 
Q 1056 1369 1301 889 
Q 1547 409 2034 409 
Q 2525 409 2770 889 
Q 3016 1369 3016 2328 
Q 3016 3291 2770 3770 
Q 2525 4250 2034 4250 
z
M 2034 4750 
Q 2819 4750 3233 4129 
Q 3647 3509 3647 2328 
Q 3647 1150 3233 529 
Q 2819 -91 2034 -91 
Q 1250 -91 836 529 
Q 422 1150 422 2328 
Q 422 3509 836 4129 
Q 1250 4750 2034 4750 
z
" transform="scale(0.015625)"/>
       </defs>
       <use xlink:href="#DejaVuSans-30"/>
      </g>
     </g>
    </g>
    <g id="xtick_2">
     <g id="line2d_2">
      <g>
       <use xlink:href="#m3a26520cd8" x="269.907229" y="211.45375" style="stroke: #000000; stroke-width: 0.8"/>
      </g>
     </g>
     <g id="text_2">
      <!-- 5000 -->
      <g transform="translate(257.182229 226.052188)scale(0.1 -0.1)">
       <defs>
        <path id="DejaVuSans-35" d="M 691 4666 
L 3169 4666 
L 3169 4134 
L 1269 4134 
L 1269 2991 
Q 1406 3038 1543 3061 
Q 1681 3084 1819 3084 
Q 2600 3084 3056 2656 
Q 3513 2228 3513 1497 
Q 3513 744 3044 326 
Q 2575 -91 1722 -91 
Q 1428 -91 1123 -41 
Q 819 9 494 109 
L 494 744 
Q 775 591 1075 516 
Q 1375 441 1709 441 
Q 2250 441 2565 725 
Q 2881 1009 2881 1497 
Q 2881 1984 2565 2268 
Q 2250 2553 1709 2553 
Q 1456 2553 1204 2497 
Q 953 2441 691 2322 
L 691 4666 
z
" transform="scale(0.015625)"/>
       </defs>
       <use xlink:href="#DejaVuSans-35"/>
       <use xlink:href="#DejaVuSans-30" x="63.623047"/>
       <use xlink:href="#DejaVuSans-30" x="127.246094"/>
       <use xlink:href="#DejaVuSans-30" x="190.869141"/>
      </g>
     </g>
    </g>
    <g id="xtick_3">
     <g id="line2d_3">
      <g>
       <use xlink:href="#m3a26520cd8" x="435.215794" y="211.45375" style="stroke: #000000; stroke-width: 0.8"/>
      </g>
     </g>
     <g id="text_3">
      <!-- 10000 -->
      <g transform="translate(419.309544 226.052188)scale(0.1 -0.1)">
       <defs>
        <path id="DejaVuSans-31" d="M 794 531 
L 1825 531 
L 1825 4091 
L 703 3866 
L 703 4441 
L 1819 4666 
L 2450 4666 
L 2450 531 
L 3481 531 
L 3481 0 
L 794 0 
L 794 531 
z
" transform="scale(0.015625)"/>
       </defs>
       <use xlink:href="#DejaVuSans-31"/>
       <use xlink:href="#DejaVuSans-30" x="63.623047"/>
       <use xlink:href="#DejaVuSans-30" x="127.246094"/>
       <use xlink:href="#DejaVuSans-30" x="190.869141"/>
       <use xlink:href="#DejaVuSans-30" x="254.492188"/>
      </g>
     </g>
    </g>
    <g id="xtick_4">
     <g id="line2d_4">
      <g>
       <use xlink:href="#m3a26520cd8" x="600.524359" y="211.45375" style="stroke: #000000; stroke-width: 0.8"/>
      </g>
     </g>
     <g id="text_4">
      <!-- 15000 -->
      <g transform="translate(584.618109 226.052188)scale(0.1 -0.1)">
       <use xlink:href="#DejaVuSans-31"/>
       <use xlink:href="#DejaVuSans-35" x="63.623047"/>
       <use xlink:href="#DejaVuSans-30" x="127.246094"/>
       <use xlink:href="#DejaVuSans-30" x="190.869141"/>
       <use xlink:href="#DejaVuSans-30" x="254.492188"/>
      </g>
     </g>
    </g>
    <g id="xtick_5">
     <g id="line2d_5">
      <g>
       <use xlink:href="#m3a26520cd8" x="765.832924" y="211.45375" style="stroke: #000000; stroke-width: 0.8"/>
      </g>
     </g>
     <g id="text_5">
      <!-- 20000 -->
      <g transform="translate(749.926674 226.052188)scale(0.1 -0.1)">
       <defs>
        <path id="DejaVuSans-32" d="M 1228 531 
L 3431 531 
L 3431 0 
L 469 0 
L 469 531 
Q 828 903 1448 1529 
Q 2069 2156 2228 2338 
Q 2531 2678 2651 2914 
Q 2772 3150 2772 3378 
Q 2772 3750 2511 3984 
Q 2250 4219 1831 4219 
Q 1534 4219 1204 4116 
Q 875 4013 500 3803 
L 500 4441 
Q 881 4594 1212 4672 
Q 1544 4750 1819 4750 
Q 2544 4750 2975 4387 
Q 3406 4025 3406 3419 
Q 3406 3131 3298 2873 
Q 3191 2616 2906 2266 
Q 2828 2175 2409 1742 
Q 1991 1309 1228 531 
z
" transform="scale(0.015625)"/>
       </defs>
       <use xlink:href="#DejaVuSans-32"/>
       <use xlink:href="#DejaVuSans-30" x="63.623047"/>
       <use xlink:href="#DejaVuSans-30" x="127.246094"/>
       <use xlink:href="#DejaVuSans-30" x="190.869141"/>
       <use xlink:href="#DejaVuSans-30" x="254.492188"/>
      </g>
     </g>
    </g>
    <g id="text_6">
     <!-- Word count -->
     <g transform="translate(421.397912 239.730312)scale(0.1 -0.1)">
      <defs>
       <path id="DejaVuSans-57" d="M 213 4666 
L 850 4666 
L 1831 722 
L 2809 4666 
L 3519 4666 
L 4500 722 
L 5478 4666 
L 6119 4666 
L 4947 0 
L 4153 0 
L 3169 4050 
L 2175 0 
L 1381 0 
L 213 4666 
z
" transform="scale(0.015625)"/>
       <path id="DejaVuSans-6f" d="M 1959 3097 
Q 1497 3097 1228 2736 
Q 959 2375 959 1747 
Q 959 1119 1226 758 
Q 1494 397 1959 397 
Q 2419 397 2687 759 
Q 2956 1122 2956 1747 
Q 2956 2369 2687 2733 
Q 2419 3097 1959 3097 
z
M 1959 3584 
Q 2709 3584 3137 3096 
Q 3566 2609 3566 1747 
Q 3566 888 3137 398 
Q 2709 -91 1959 -91 
Q 1206 -91 779 398 
Q 353 888 353 1747 
Q 353 2609 779 3096 
Q 1206 3584 1959 3584 
z
" transform="scale(0.015625)"/>
       <path id="DejaVuSans-72" d="M 2631 2963 
Q 2534 3019 2420 3045 
Q 2306 3072 2169 3072 
Q 1681 3072 1420 2755 
Q 1159 2438 1159 1844 
L 1159 0 
L 581 0 
L 581 3500 
L 1159 3500 
L 1159 2956 
Q 1341 3275 1631 3429 
Q 1922 3584 2338 3584 
Q 2397 3584 2469 3576 
Q 2541 3569 2628 3553 
L 2631 2963 
z
" transform="scale(0.015625)"/>
       <path id="DejaVuSans-64" d="M 2906 2969 
L 2906 4863 
L 3481 4863 
L 3481 0 
L 2906 0 
L 2906 525 
Q 2725 213 2448 61 
Q 2172 -91 1784 -91 
Q 1150 -91 751 415 
Q 353 922 353 1747 
Q 353 2572 751 3078 
Q 1150 3584 1784 3584 
Q 2172 3584 2448 3432 
Q 2725 3281 2906 2969 
z
M 947 1747 
Q 947 1113 1208 752 
Q 1469 391 1925 391 
Q 2381 391 2643 752 
Q 2906 1113 2906 1747 
Q 2906 2381 2643 2742 
Q 2381 3103 1925 3103 
Q 1469 3103 1208 2742 
Q 947 2381 947 1747 
z
" transform="scale(0.015625)"/>
       <path id="DejaVuSans-20" transform="scale(0.015625)"/>
       <path id="DejaVuSans-63" d="M 3122 3366 
L 3122 2828 
Q 2878 2963 2633 3030 
Q 2388 3097 2138 3097 
Q 1578 3097 1268 2742 
Q 959 2388 959 1747 
Q 959 1106 1268 751 
Q 1578 397 2138 397 
Q 2388 397 2633 464 
Q 2878 531 3122 666 
L 3122 134 
Q 2881 22 2623 -34 
Q 2366 -91 2075 -91 
Q 1284 -91 818 406 
Q 353 903 353 1747 
Q 353 2603 823 3093 
Q 1294 3584 2113 3584 
Q 2378 3584 2631 3529 
Q 2884 3475 3122 3366 
z
" transform="scale(0.015625)"/>
       <path id="DejaVuSans-75" d="M 544 1381 
L 544 3500 
L 1119 3500 
L 1119 1403 
Q 1119 906 1312 657 
Q 1506 409 1894 409 
Q 2359 409 2629 706 
Q 2900 1003 2900 1516 
L 2900 3500 
L 3475 3500 
L 3475 0 
L 2900 0 
L 2900 538 
Q 2691 219 2414 64 
Q 2138 -91 1772 -91 
Q 1169 -91 856 284 
Q 544 659 544 1381 
z
M 1991 3584 
L 1991 3584 
z
" transform="scale(0.015625)"/>
       <path id="DejaVuSans-6e" d="M 3513 2113 
L 3513 0 
L 2938 0 
L 2938 2094 
Q 2938 2591 2744 2837 
Q 2550 3084 2163 3084 
Q 1697 3084 1428 2787 
Q 1159 2491 1159 1978 
L 1159 0 
L 581 0 
L 581 3500 
L 1159 3500 
L 1159 2956 
Q 1366 3272 1645 3428 
Q 1925 3584 2291 3584 
Q 2894 3584 3203 3211 
Q 3513 2838 3513 2113 
z
" transform="scale(0.015625)"/>
       <path id="DejaVuSans-74" d="M 1172 4494 
L 1172 3500 
L 2356 3500 
L 2356 3053 
L 1172 3053 
L 1172 1153 
Q 1172 725 1289 603 
Q 1406 481 1766 481 
L 2356 481 
L 2356 0 
L 1766 0 
Q 1100 0 847 248 
Q 594 497 594 1153 
L 594 3053 
L 172 3053 
L 172 3500 
L 594 3500 
L 594 4494 
L 1172 4494 
z
" transform="scale(0.015625)"/>
      </defs>
      <use xlink:href="#DejaVuSans-57"/>
      <use xlink:href="#DejaVuSans-6f" x="93.001953"/>
      <use xlink:href="#DejaVuSans-72" x="154.183594"/>
      <use xlink:href="#DejaVuSans-64" x="193.546875"/>
      <use xlink:href="#DejaVuSans-20" x="257.023438"/>
      <use xlink:href="#DejaVuSans-63" x="288.810547"/>
      <use xlink:href="#DejaVuSans-6f" x="343.791016"/>
      <use xlink:href="#DejaVuSans-75" x="404.972656"/>
      <use xlink:href="#DejaVuSans-6e" x="468.351562"/>
      <use xlink:href="#DejaVuSans-74" x="531.730469"/>
     </g>
    </g>
   </g>
   <g id="matplotlib.axis_2">
    <g id="ytick_1">
     <g id="line2d_6">
      <defs>
       <path id="m62b426bb9a" d="M 0 0 
L -3.5 0 
" style="stroke: #000000; stroke-width: 0.8"/>
      </defs>
      <g>
       <use xlink:href="#m62b426bb9a" x="49.190625" y="211.45375" style="stroke: #000000; stroke-width: 0.8"/>
      </g>
     </g>
     <g id="text_7">
      <!-- 0.0000 -->
      <g transform="translate(7.2 215.252969)scale(0.1 -0.1)">
       <defs>
        <path id="DejaVuSans-2e" d="M 684 794 
L 1344 794 
L 1344 0 
L 684 0 
L 684 794 
z
" transform="scale(0.015625)"/>
       </defs>
       <use xlink:href="#DejaVuSans-30"/>
       <use xlink:href="#DejaVuSans-2e" x="63.623047"/>
       <use xlink:href="#DejaVuSans-30" x="95.410156"/>
       <use xlink:href="#DejaVuSans-30" x="159.033203"/>
       <use xlink:href="#DejaVuSans-30" x="222.65625"/>
       <use xlink:href="#DejaVuSans-30" x="286.279297"/>
      </g>
     </g>
    </g>
    <g id="ytick_2">
     <g id="line2d_7">
      <g>
       <use xlink:href="#m62b426bb9a" x="49.190625" y="173.86421" style="stroke: #000000; stroke-width: 0.8"/>
      </g>
     </g>
     <g id="text_8">
      <!-- 0.0002 -->
      <g transform="translate(7.2 177.663429)scale(0.1 -0.1)">
       <use xlink:href="#DejaVuSans-30"/>
       <use xlink:href="#DejaVuSans-2e" x="63.623047"/>
       <use xlink:href="#DejaVuSans-30" x="95.410156"/>
       <use xlink:href="#DejaVuSans-30" x="159.033203"/>
       <use xlink:href="#DejaVuSans-30" x="222.65625"/>
       <use xlink:href="#DejaVuSans-32" x="286.279297"/>
      </g>
     </g>
    </g>
    <g id="ytick_3">
     <g id="line2d_8">
      <g>
       <use xlink:href="#m62b426bb9a" x="49.190625" y="136.27467" style="stroke: #000000; stroke-width: 0.8"/>
      </g>
     </g>
     <g id="text_9">
      <!-- 0.0004 -->
      <g transform="translate(7.2 140.073889)scale(0.1 -0.1)">
       <defs>
        <path id="DejaVuSans-34" d="M 2419 4116 
L 825 1625 
L 2419 1625 
L 2419 4116 
z
M 2253 4666 
L 3047 4666 
L 3047 1625 
L 3713 1625 
L 3713 1100 
L 3047 1100 
L 3047 0 
L 2419 0 
L 2419 1100 
L 313 1100 
L 313 1709 
L 2253 4666 
z
" transform="scale(0.015625)"/>
       </defs>
       <use xlink:href="#DejaVuSans-30"/>
       <use xlink:href="#DejaVuSans-2e" x="63.623047"/>
       <use xlink:href="#DejaVuSans-30" x="95.410156"/>
       <use xlink:href="#DejaVuSans-30" x="159.033203"/>
       <use xlink:href="#DejaVuSans-30" x="222.65625"/>
       <use xlink:href="#DejaVuSans-34" x="286.279297"/>
      </g>
     </g>
    </g>
    <g id="ytick_4">
     <g id="line2d_9">
      <g>
       <use xlink:href="#m62b426bb9a" x="49.190625" y="98.68513" style="stroke: #000000; stroke-width: 0.8"/>
      </g>
     </g>
     <g id="text_10">
      <!-- 0.0006 -->
      <g transform="translate(7.2 102.484349)scale(0.1 -0.1)">
       <defs>
        <path id="DejaVuSans-36" d="M 2113 2584 
Q 1688 2584 1439 2293 
Q 1191 2003 1191 1497 
Q 1191 994 1439 701 
Q 1688 409 2113 409 
Q 2538 409 2786 701 
Q 3034 994 3034 1497 
Q 3034 2003 2786 2293 
Q 2538 2584 2113 2584 
z
M 3366 4563 
L 3366 3988 
Q 3128 4100 2886 4159 
Q 2644 4219 2406 4219 
Q 1781 4219 1451 3797 
Q 1122 3375 1075 2522 
Q 1259 2794 1537 2939 
Q 1816 3084 2150 3084 
Q 2853 3084 3261 2657 
Q 3669 2231 3669 1497 
Q 3669 778 3244 343 
Q 2819 -91 2113 -91 
Q 1303 -91 875 529 
Q 447 1150 447 2328 
Q 447 3434 972 4092 
Q 1497 4750 2381 4750 
Q 2619 4750 2861 4703 
Q 3103 4656 3366 4563 
z
" transform="scale(0.015625)"/>
       </defs>
       <use xlink:href="#DejaVuSans-30"/>
       <use xlink:href="#DejaVuSans-2e" x="63.623047"/>
       <use xlink:href="#DejaVuSans-30" x="95.410156"/>
       <use xlink:href="#DejaVuSans-30" x="159.033203"/>
       <use xlink:href="#DejaVuSans-30" x="222.65625"/>
       <use xlink:href="#DejaVuSans-36" x="286.279297"/>
      </g>
     </g>
    </g>
    <g id="ytick_5">
     <g id="line2d_10">
      <g>
       <use xlink:href="#m62b426bb9a" x="49.190625" y="61.09559" style="stroke: #000000; stroke-width: 0.8"/>
      </g>
     </g>
     <g id="text_11">
      <!-- 0.0008 -->
      <g transform="translate(7.2 64.894809)scale(0.1 -0.1)">
       <defs>
        <path id="DejaVuSans-38" d="M 2034 2216 
Q 1584 2216 1326 1975 
Q 1069 1734 1069 1313 
Q 1069 891 1326 650 
Q 1584 409 2034 409 
Q 2484 409 2743 651 
Q 3003 894 3003 1313 
Q 3003 1734 2745 1975 
Q 2488 2216 2034 2216 
z
M 1403 2484 
Q 997 2584 770 2862 
Q 544 3141 544 3541 
Q 544 4100 942 4425 
Q 1341 4750 2034 4750 
Q 2731 4750 3128 4425 
Q 3525 4100 3525 3541 
Q 3525 3141 3298 2862 
Q 3072 2584 2669 2484 
Q 3125 2378 3379 2068 
Q 3634 1759 3634 1313 
Q 3634 634 3220 271 
Q 2806 -91 2034 -91 
Q 1263 -91 848 271 
Q 434 634 434 1313 
Q 434 1759 690 2068 
Q 947 2378 1403 2484 
z
M 1172 3481 
Q 1172 3119 1398 2916 
Q 1625 2713 2034 2713 
Q 2441 2713 2670 2916 
Q 2900 3119 2900 3481 
Q 2900 3844 2670 4047 
Q 2441 4250 2034 4250 
Q 1625 4250 1398 4047 
Q 1172 3844 1172 3481 
z
" transform="scale(0.015625)"/>
       </defs>
       <use xlink:href="#DejaVuSans-30"/>
       <use xlink:href="#DejaVuSans-2e" x="63.623047"/>
       <use xlink:href="#DejaVuSans-30" x="95.410156"/>
       <use xlink:href="#DejaVuSans-30" x="159.033203"/>
       <use xlink:href="#DejaVuSans-30" x="222.65625"/>
       <use xlink:href="#DejaVuSans-38" x="286.279297"/>
      </g>
     </g>
    </g>
    <g id="ytick_6">
     <g id="line2d_11">
      <g>
       <use xlink:href="#m62b426bb9a" x="49.190625" y="23.50605" style="stroke: #000000; stroke-width: 0.8"/>
      </g>
     </g>
     <g id="text_12">
      <!-- 0.0010 -->
      <g transform="translate(7.2 27.305269)scale(0.1 -0.1)">
       <use xlink:href="#DejaVuSans-30"/>
       <use xlink:href="#DejaVuSans-2e" x="63.623047"/>
       <use xlink:href="#DejaVuSans-30" x="95.410156"/>
       <use xlink:href="#DejaVuSans-30" x="159.033203"/>
       <use xlink:href="#DejaVuSans-31" x="222.65625"/>
       <use xlink:href="#DejaVuSans-30" x="286.279297"/>
      </g>
     </g>
    </g>
   </g>
   <g id="patch_3">
    <path d="M 49.190625 211.45375 
L 49.190625 12.96 
" style="fill: none; stroke: #000000; stroke-width: 0.8; stroke-linejoin: miter; stroke-linecap: square"/>
   </g>
   <g id="patch_4">
    <path d="M 49.190625 211.45375 
L 850.69895 211.45375 
" style="fill: none; stroke: #000000; stroke-width: 0.8; stroke-linejoin: miter; stroke-linecap: square"/>
   </g>
  </g>
  <g id="text_13">
   <!-- Word count distribution for Real and Fake News -->
   <g transform="translate(307.779575 16.318125)scale(0.12 -0.12)">
    <defs>
     <path id="DejaVuSans-69" d="M 603 3500 
L 1178 3500 
L 1178 0 
L 603 0 
L 603 3500 
z
M 603 4863 
L 1178 4863 
L 1178 4134 
L 603 4134 
L 603 4863 
z
" transform="scale(0.015625)"/>
     <path id="DejaVuSans-73" d="M 2834 3397 
L 2834 2853 
Q 2591 2978 2328 3040 
Q 2066 3103 1784 3103 
Q 1356 3103 1142 2972 
Q 928 2841 928 2578 
Q 928 2378 1081 2264 
Q 1234 2150 1697 2047 
L 1894 2003 
Q 2506 1872 2764 1633 
Q 3022 1394 3022 966 
Q 3022 478 2636 193 
Q 2250 -91 1575 -91 
Q 1294 -91 989 -36 
Q 684 19 347 128 
L 347 722 
Q 666 556 975 473 
Q 1284 391 1588 391 
Q 1994 391 2212 530 
Q 2431 669 2431 922 
Q 2431 1156 2273 1281 
Q 2116 1406 1581 1522 
L 1381 1569 
Q 847 1681 609 1914 
Q 372 2147 372 2553 
Q 372 3047 722 3315 
Q 1072 3584 1716 3584 
Q 2034 3584 2315 3537 
Q 2597 3491 2834 3397 
z
" transform="scale(0.015625)"/>
     <path id="DejaVuSans-62" d="M 3116 1747 
Q 3116 2381 2855 2742 
Q 2594 3103 2138 3103 
Q 1681 3103 1420 2742 
Q 1159 2381 1159 1747 
Q 1159 1113 1420 752 
Q 1681 391 2138 391 
Q 2594 391 2855 752 
Q 3116 1113 3116 1747 
z
M 1159 2969 
Q 1341 3281 1617 3432 
Q 1894 3584 2278 3584 
Q 2916 3584 3314 3078 
Q 3713 2572 3713 1747 
Q 3713 922 3314 415 
Q 2916 -91 2278 -91 
Q 1894 -91 1617 61 
Q 1341 213 1159 525 
L 1159 0 
L 581 0 
L 581 4863 
L 1159 4863 
L 1159 2969 
z
" transform="scale(0.015625)"/>
     <path id="DejaVuSans-66" d="M 2375 4863 
L 2375 4384 
L 1825 4384 
Q 1516 4384 1395 4259 
Q 1275 4134 1275 3809 
L 1275 3500 
L 2222 3500 
L 2222 3053 
L 1275 3053 
L 1275 0 
L 697 0 
L 697 3053 
L 147 3053 
L 147 3500 
L 697 3500 
L 697 3744 
Q 697 4328 969 4595 
Q 1241 4863 1831 4863 
L 2375 4863 
z
" transform="scale(0.015625)"/>
     <path id="DejaVuSans-52" d="M 2841 2188 
Q 3044 2119 3236 1894 
Q 3428 1669 3622 1275 
L 4263 0 
L 3584 0 
L 2988 1197 
Q 2756 1666 2539 1819 
Q 2322 1972 1947 1972 
L 1259 1972 
L 1259 0 
L 628 0 
L 628 4666 
L 2053 4666 
Q 2853 4666 3247 4331 
Q 3641 3997 3641 3322 
Q 3641 2881 3436 2590 
Q 3231 2300 2841 2188 
z
M 1259 4147 
L 1259 2491 
L 2053 2491 
Q 2509 2491 2742 2702 
Q 2975 2913 2975 3322 
Q 2975 3731 2742 3939 
Q 2509 4147 2053 4147 
L 1259 4147 
z
" transform="scale(0.015625)"/>
     <path id="DejaVuSans-65" d="M 3597 1894 
L 3597 1613 
L 953 1613 
Q 991 1019 1311 708 
Q 1631 397 2203 397 
Q 2534 397 2845 478 
Q 3156 559 3463 722 
L 3463 178 
Q 3153 47 2828 -22 
Q 2503 -91 2169 -91 
Q 1331 -91 842 396 
Q 353 884 353 1716 
Q 353 2575 817 3079 
Q 1281 3584 2069 3584 
Q 2775 3584 3186 3129 
Q 3597 2675 3597 1894 
z
M 3022 2063 
Q 3016 2534 2758 2815 
Q 2500 3097 2075 3097 
Q 1594 3097 1305 2825 
Q 1016 2553 972 2059 
L 3022 2063 
z
" transform="scale(0.015625)"/>
     <path id="DejaVuSans-61" d="M 2194 1759 
Q 1497 1759 1228 1600 
Q 959 1441 959 1056 
Q 959 750 1161 570 
Q 1363 391 1709 391 
Q 2188 391 2477 730 
Q 2766 1069 2766 1631 
L 2766 1759 
L 2194 1759 
z
M 3341 1997 
L 3341 0 
L 2766 0 
L 2766 531 
Q 2569 213 2275 61 
Q 1981 -91 1556 -91 
Q 1019 -91 701 211 
Q 384 513 384 1019 
Q 384 1609 779 1909 
Q 1175 2209 1959 2209 
L 2766 2209 
L 2766 2266 
Q 2766 2663 2505 2880 
Q 2244 3097 1772 3097 
Q 1472 3097 1187 3025 
Q 903 2953 641 2809 
L 641 3341 
Q 956 3463 1253 3523 
Q 1550 3584 1831 3584 
Q 2591 3584 2966 3190 
Q 3341 2797 3341 1997 
z
" transform="scale(0.015625)"/>
     <path id="DejaVuSans-6c" d="M 603 4863 
L 1178 4863 
L 1178 0 
L 603 0 
L 603 4863 
z
" transform="scale(0.015625)"/>
     <path id="DejaVuSans-46" d="M 628 4666 
L 3309 4666 
L 3309 4134 
L 1259 4134 
L 1259 2759 
L 3109 2759 
L 3109 2228 
L 1259 2228 
L 1259 0 
L 628 0 
L 628 4666 
z
" transform="scale(0.015625)"/>
     <path id="DejaVuSans-6b" d="M 581 4863 
L 1159 4863 
L 1159 1991 
L 2875 3500 
L 3609 3500 
L 1753 1863 
L 3688 0 
L 2938 0 
L 1159 1709 
L 1159 0 
L 581 0 
L 581 4863 
z
" transform="scale(0.015625)"/>
     <path id="DejaVuSans-4e" d="M 628 4666 
L 1478 4666 
L 3547 763 
L 3547 4666 
L 4159 4666 
L 4159 0 
L 3309 0 
L 1241 3903 
L 1241 0 
L 628 0 
L 628 4666 
z
" transform="scale(0.015625)"/>
     <path id="DejaVuSans-77" d="M 269 3500 
L 844 3500 
L 1563 769 
L 2278 3500 
L 2956 3500 
L 3675 769 
L 4391 3500 
L 4966 3500 
L 4050 0 
L 3372 0 
L 2619 2869 
L 1863 0 
L 1184 0 
L 269 3500 
z
" transform="scale(0.015625)"/>
    </defs>
    <use xlink:href="#DejaVuSans-57"/>
    <use xlink:href="#DejaVuSans-6f" x="93.001953"/>
    <use xlink:href="#DejaVuSans-72" x="154.183594"/>
    <use xlink:href="#DejaVuSans-64" x="193.546875"/>
    <use xlink:href="#DejaVuSans-20" x="257.023438"/>
    <use xlink:href="#DejaVuSans-63" x="288.810547"/>
    <use xlink:href="#DejaVuSans-6f" x="343.791016"/>
    <use xlink:href="#DejaVuSans-75" x="404.972656"/>
    <use xlink:href="#DejaVuSans-6e" x="468.351562"/>
    <use xlink:href="#DejaVuSans-74" x="531.730469"/>
    <use xlink:href="#DejaVuSans-20" x="570.939453"/>
    <use xlink:href="#DejaVuSans-64" x="602.726562"/>
    <use xlink:href="#DejaVuSans-69" x="666.203125"/>
    <use xlink:href="#DejaVuSans-73" x="693.986328"/>
    <use xlink:href="#DejaVuSans-74" x="746.085938"/>
    <use xlink:href="#DejaVuSans-72" x="785.294922"/>
    <use xlink:href="#DejaVuSans-69" x="826.408203"/>
    <use xlink:href="#DejaVuSans-62" x="854.191406"/>
    <use xlink:href="#DejaVuSans-75" x="917.667969"/>
    <use xlink:href="#DejaVuSans-74" x="981.046875"/>
    <use xlink:href="#DejaVuSans-69" x="1020.255859"/>
    <use xlink:href="#DejaVuSans-6f" x="1048.039062"/>
    <use xlink:href="#DejaVuSans-6e" x="1109.220703"/>
    <use xlink:href="#DejaVuSans-20" x="1172.599609"/>
    <use xlink:href="#DejaVuSans-66" x="1204.386719"/>
    <use xlink:href="#DejaVuSans-6f" x="1239.591797"/>
    <use xlink:href="#DejaVuSans-72" x="1300.773438"/>
    <use xlink:href="#DejaVuSans-20" x="1341.886719"/>
    <use xlink:href="#DejaVuSans-52" x="1373.673828"/>
    <use xlink:href="#DejaVuSans-65" x="1438.65625"/>
    <use xlink:href="#DejaVuSans-61" x="1500.179688"/>
    <use xlink:href="#DejaVuSans-6c" x="1561.458984"/>
    <use xlink:href="#DejaVuSans-20" x="1589.242188"/>
    <use xlink:href="#DejaVuSans-61" x="1621.029297"/>
    <use xlink:href="#DejaVuSans-6e" x="1682.308594"/>
    <use xlink:href="#DejaVuSans-64" x="1745.6875"/>
    <use xlink:href="#DejaVuSans-20" x="1809.164062"/>
    <use xlink:href="#DejaVuSans-46" x="1840.951172"/>
    <use xlink:href="#DejaVuSans-61" x="1889.345703"/>
    <use xlink:href="#DejaVuSans-6b" x="1950.625"/>
    <use xlink:href="#DejaVuSans-65" x="2004.910156"/>
    <use xlink:href="#DejaVuSans-20" x="2066.433594"/>
    <use xlink:href="#DejaVuSans-4e" x="2098.220703"/>
    <use xlink:href="#DejaVuSans-65" x="2173.025391"/>
    <use xlink:href="#DejaVuSans-77" x="2234.548828"/>
    <use xlink:href="#DejaVuSans-73" x="2316.335938"/>
   </g>
  </g>
  <g id="legend_1">
   <g id="patch_5">
    <path d="M 861.154262 119.925312 
L 881.154262 119.925312 
L 881.154262 112.925312 
L 861.154262 112.925312 
z
" style="fill: #1f77b4; fill-opacity: 0.25; stroke: #1f77b4; stroke-linejoin: miter"/>
   </g>
   <g id="text_14">
    <!-- FAKE -->
    <g transform="translate(889.154262 119.925312)scale(0.1 -0.1)">
     <defs>
      <path id="DejaVuSans-41" d="M 2188 4044 
L 1331 1722 
L 3047 1722 
L 2188 4044 
z
M 1831 4666 
L 2547 4666 
L 4325 0 
L 3669 0 
L 3244 1197 
L 1141 1197 
L 716 0 
L 50 0 
L 1831 4666 
z
" transform="scale(0.015625)"/>
      <path id="DejaVuSans-4b" d="M 628 4666 
L 1259 4666 
L 1259 2694 
L 3353 4666 
L 4166 4666 
L 1850 2491 
L 4331 0 
L 3500 0 
L 1259 2247 
L 1259 0 
L 628 0 
L 628 4666 
z
" transform="scale(0.015625)"/>
      <path id="DejaVuSans-45" d="M 628 4666 
L 3578 4666 
L 3578 4134 
L 1259 4134 
L 1259 2753 
L 3481 2753 
L 3481 2222 
L 1259 2222 
L 1259 531 
L 3634 531 
L 3634 0 
L 628 0 
L 628 4666 
z
" transform="scale(0.015625)"/>
     </defs>
     <use xlink:href="#DejaVuSans-46"/>
     <use xlink:href="#DejaVuSans-41" x="48.394531"/>
     <use xlink:href="#DejaVuSans-4b" x="116.802734"/>
     <use xlink:href="#DejaVuSans-45" x="182.378906"/>
    </g>
   </g>
   <g id="patch_6">
    <path d="M 861.154262 134.603437 
L 881.154262 134.603437 
L 881.154262 127.603437 
L 861.154262 127.603437 
z
" style="fill: #ff7f0e; fill-opacity: 0.25; stroke: #ff7f0e; stroke-linejoin: miter"/>
   </g>
   <g id="text_15">
    <!-- REAL -->
    <g transform="translate(889.154262 134.603437)scale(0.1 -0.1)">
     <defs>
      <path id="DejaVuSans-4c" d="M 628 4666 
L 1259 4666 
L 1259 531 
L 3531 531 
L 3531 0 
L 628 0 
L 628 4666 
z
" transform="scale(0.015625)"/>
     </defs>
     <use xlink:href="#DejaVuSans-52"/>
     <use xlink:href="#DejaVuSans-45" x="69.482422"/>
     <use xlink:href="#DejaVuSans-41" x="132.666016"/>
     <use xlink:href="#DejaVuSans-4c" x="201.074219"/>
    </g>
   </g>
  </g>
 </g>
 <defs>
  <clipPath id="p0c4932ed6b">
   <rect x="49.190625" y="12.96" width="801.508325" height="198.49375"/>
  </clipPath>
 </defs>
</svg>
