<?xml version="1.0" encoding="utf-8" standalone="no"?>
<!DOCTYPE svg PUBLIC "-//W3C//DTD SVG 1.1//EN"
  "http://www.w3.org/Graphics/SVG/1.1/DTD/svg11.dtd">
<svg xmlns:xlink="http://www.w3.org/1999/xlink" width="924.346832pt" height="249.01pt" viewBox="0 0 924.346832 249.01" xmlns="http://www.w3.org/2000/svg" version="1.1">
 <metadata>
  <rdf:RDF xmlns:dc="http://purl.org/dc/elements/1.1/" xmlns:cc="http://creativecommons.org/ns#" xmlns:rdf="http://www.w3.org/1999/02/22-rdf-syntax-ns#">
   <cc:Work>
    <dc:type rdf:resource="http://purl.org/dc/dcmitype/StillImage"/>
    <dc:date>2022-07-28T15:20:13.825422</dc:date>
    <dc:format>image/svg+xml</dc:format>
    <dc:creator>
     <cc:Agent>
      <dc:title>Matplotlib v3.5.1, https://matplotlib.org/</dc:title>
     </cc:Agent>
    </dc:creator>
   </cc:Work>
  </rdf:RDF>
 </metadata>
 <defs>
  <style type="text/css">*{stroke-linejoin: round; stroke-linecap: butt}</style>
 </defs>
 <g id="figure_1">
  <g id="patch_1">
   <path d="M 0 249.01 
L 924.346832 249.01 
L 924.346832 0 
L 0 0 
L 0 249.01 
z
" style="fill: none"/>
  </g>
  <g id="axes_1">
   <g id="patch_2">
    <path d="M 36.465625 211.45375 
L 851.211832 211.45375 
L 851.211832 12.96 
L 36.465625 12.96 
z
" style="fill: #ffffff"/>
   </g>
   <g id="PolyCollection_1">
    <defs>
     <path id="m7f300d3791" d="M 15.576908 -37.603806 
L 15.576908 -37.55625 
L 18.434974 -37.55625 
L 21.293041 -37.55625 
L 24.151108 -37.55625 
L 27.009175 -37.55625 
L 29.867241 -37.55625 
L 32.725308 -37.55625 
L 35.583375 -37.55625 
L 38.441442 -37.55625 
L 41.299508 -37.55625 
L 44.157575 -37.55625 
L 47.015642 -37.55625 
L 49.873709 -37.55625 
L 52.731775 -37.55625 
L 55.589842 -37.55625 
L 58.447909 -37.55625 
L 61.305975 -37.55625 
L 64.164042 -37.55625 
L 67.022109 -37.55625 
L 69.880176 -37.55625 
L 72.738242 -37.55625 
L 75.596309 -37.55625 
L 78.454376 -37.55625 
L 81.312443 -37.55625 
L 84.170509 -37.55625 
L 87.028576 -37.55625 
L 89.886643 -37.55625 
L 92.74471 -37.55625 
L 95.602776 -37.55625 
L 98.460843 -37.55625 
L 101.31891 -37.55625 
L 104.176977 -37.55625 
L 107.035043 -37.55625 
L 109.89311 -37.55625 
L 112.751177 -37.55625 
L 115.609244 -37.55625 
L 118.46731 -37.55625 
L 121.325377 -37.55625 
L 124.183444 -37.55625 
L 127.041511 -37.55625 
L 129.899577 -37.55625 
L 132.757644 -37.55625 
L 135.615711 -37.55625 
L 138.473778 -37.55625 
L 141.331844 -37.55625 
L 144.189911 -37.55625 
L 147.047978 -37.55625 
L 149.906045 -37.55625 
L 152.764111 -37.55625 
L 155.622178 -37.55625 
L 158.480245 -37.55625 
L 161.338311 -37.55625 
L 164.196378 -37.55625 
L 167.054445 -37.55625 
L 169.912512 -37.55625 
L 172.770578 -37.55625 
L 175.628645 -37.55625 
L 178.486712 -37.55625 
L 181.344779 -37.55625 
L 184.202845 -37.55625 
L 187.060912 -37.55625 
L 189.918979 -37.55625 
L 192.777046 -37.55625 
L 195.635112 -37.55625 
L 198.493179 -37.55625 
L 201.351246 -37.55625 
L 204.209313 -37.55625 
L 207.067379 -37.55625 
L 209.925446 -37.55625 
L 212.783513 -37.55625 
L 215.64158 -37.55625 
L 218.499646 -37.55625 
L 221.357713 -37.55625 
L 224.21578 -37.55625 
L 227.073847 -37.55625 
L 229.931913 -37.55625 
L 232.78998 -37.55625 
L 235.648047 -37.55625 
L 238.506114 -37.55625 
L 241.36418 -37.55625 
L 244.222247 -37.55625 
L 247.080314 -37.55625 
L 249.938381 -37.55625 
L 252.796447 -37.55625 
L 255.654514 -37.55625 
L 258.512581 -37.55625 
L 261.370647 -37.55625 
L 264.228714 -37.55625 
L 267.086781 -37.55625 
L 269.944848 -37.55625 
L 272.802914 -37.55625 
L 275.660981 -37.55625 
L 278.519048 -37.55625 
L 281.377115 -37.55625 
L 284.235181 -37.55625 
L 287.093248 -37.55625 
L 289.951315 -37.55625 
L 292.809382 -37.55625 
L 295.667448 -37.55625 
L 298.525515 -37.55625 
L 301.383582 -37.55625 
L 304.241649 -37.55625 
L 307.099715 -37.55625 
L 309.957782 -37.55625 
L 312.815849 -37.55625 
L 315.673916 -37.55625 
L 318.531982 -37.55625 
L 321.390049 -37.55625 
L 324.248116 -37.55625 
L 327.106183 -37.55625 
L 329.964249 -37.55625 
L 332.822316 -37.55625 
L 335.680383 -37.55625 
L 338.53845 -37.55625 
L 341.396516 -37.55625 
L 344.254583 -37.55625 
L 347.11265 -37.55625 
L 349.970716 -37.55625 
L 352.828783 -37.55625 
L 355.68685 -37.55625 
L 358.544917 -37.55625 
L 361.402983 -37.55625 
L 364.26105 -37.55625 
L 367.119117 -37.55625 
L 369.977184 -37.55625 
L 372.83525 -37.55625 
L 375.693317 -37.55625 
L 378.551384 -37.55625 
L 381.409451 -37.55625 
L 384.267517 -37.55625 
L 387.125584 -37.55625 
L 389.983651 -37.55625 
L 392.841718 -37.55625 
L 395.699784 -37.55625 
L 398.557851 -37.55625 
L 401.415918 -37.55625 
L 404.273985 -37.55625 
L 407.132051 -37.55625 
L 409.990118 -37.55625 
L 412.848185 -37.55625 
L 415.706252 -37.55625 
L 418.564318 -37.55625 
L 421.422385 -37.55625 
L 424.280452 -37.55625 
L 427.138519 -37.55625 
L 429.996585 -37.55625 
L 432.854652 -37.55625 
L 435.712719 -37.55625 
L 438.570786 -37.55625 
L 441.428852 -37.55625 
L 444.286919 -37.55625 
L 447.144986 -37.55625 
L 450.003052 -37.55625 
L 452.861119 -37.55625 
L 455.719186 -37.55625 
L 458.577253 -37.55625 
L 461.435319 -37.55625 
L 464.293386 -37.55625 
L 467.151453 -37.55625 
L 470.00952 -37.55625 
L 472.867586 -37.55625 
L 475.725653 -37.55625 
L 478.58372 -37.55625 
L 481.441787 -37.55625 
L 484.299853 -37.55625 
L 487.15792 -37.55625 
L 490.015987 -37.55625 
L 492.874054 -37.55625 
L 495.73212 -37.55625 
L 498.590187 -37.55625 
L 501.448254 -37.55625 
L 504.306321 -37.55625 
L 507.164387 -37.55625 
L 510.022454 -37.55625 
L 512.880521 -37.55625 
L 515.738588 -37.55625 
L 518.596654 -37.55625 
L 521.454721 -37.55625 
L 524.312788 -37.55625 
L 527.170855 -37.55625 
L 530.028921 -37.55625 
L 532.886988 -37.55625 
L 535.745055 -37.55625 
L 538.603122 -37.55625 
L 541.461188 -37.55625 
L 544.319255 -37.55625 
L 547.177322 -37.55625 
L 550.035388 -37.55625 
L 552.893455 -37.55625 
L 555.751522 -37.55625 
L 558.609589 -37.55625 
L 561.467655 -37.55625 
L 564.325722 -37.55625 
L 567.183789 -37.55625 
L 570.041856 -37.55625 
L 572.899922 -37.55625 
L 575.757989 -37.55625 
L 578.616056 -37.55625 
L 581.474123 -37.55625 
L 584.332189 -37.55625 
L 584.332189 -37.55756 
L 584.332189 -37.55756 
L 581.474123 -37.560376 
L 578.616056 -37.567229 
L 575.757989 -37.580934 
L 572.899922 -37.603144 
L 570.041856 -37.631522 
L 567.183789 -37.65834 
L 564.325722 -37.673245 
L 561.467655 -37.669553 
L 558.609589 -37.649058 
L 555.751522 -37.620929 
L 552.893455 -37.596132 
L 550.035388 -37.583105 
L 547.177322 -37.588174 
L 544.319255 -37.61829 
L 541.461188 -37.680382 
L 538.603122 -37.774248 
L 535.745055 -37.883439 
L 532.886988 -37.974743 
L 530.028921 -38.012767 
L 527.170855 -37.981533 
L 524.312788 -37.895045 
L 521.454721 -37.787329 
L 518.596654 -37.691322 
L 515.738588 -37.623954 
L 512.880521 -37.585356 
L 510.022454 -37.56698 
L 507.164387 -37.559642 
L 504.306321 -37.557188 
L 501.448254 -37.556576 
L 498.590187 -37.556814 
L 495.73212 -37.55827 
L 492.874054 -37.562816 
L 490.015987 -37.574343 
L 487.15792 -37.598391 
L 484.299853 -37.639224 
L 481.441787 -37.694414 
L 478.58372 -37.751056 
L 475.725653 -37.789615 
L 472.867586 -37.795951 
L 470.00952 -37.772383 
L 467.151453 -37.736647 
L 464.293386 -37.70838 
L 461.435319 -37.69509 
L 458.577253 -37.689615 
L 455.719186 -37.679486 
L 452.861119 -37.65827 
L 450.003052 -37.629277 
L 447.144986 -37.600799 
L 444.286919 -37.579285 
L 441.428852 -37.566325 
L 438.570786 -37.559975 
L 435.712719 -37.557414 
L 432.854652 -37.556557 
L 429.996585 -37.556319 
L 427.138519 -37.556263 
L 424.280452 -37.556252 
L 421.422385 -37.55625 
L 418.564318 -37.55625 
L 415.706252 -37.55625 
L 412.848185 -37.55625 
L 409.990118 -37.55625 
L 407.132051 -37.55625 
L 404.273985 -37.55625 
L 401.415918 -37.55625 
L 398.557851 -37.55625 
L 395.699784 -37.55625 
L 392.841718 -37.55625 
L 389.983651 -37.55625 
L 387.125584 -37.55625 
L 384.267517 -37.55625 
L 381.409451 -37.55625 
L 378.551384 -37.55625 
L 375.693317 -37.55625 
L 372.83525 -37.55625 
L 369.977184 -37.55625 
L 367.119117 -37.55625 
L 364.26105 -37.55625 
L 361.402983 -37.55625 
L 358.544917 -37.556251 
L 355.68685 -37.556258 
L 352.828783 -37.556296 
L 349.970716 -37.556476 
L 347.11265 -37.557201 
L 344.254583 -37.559657 
L 341.396516 -37.566671 
L 338.53845 -37.583512 
L 335.680383 -37.617316 
L 332.822316 -37.673542 
L 329.964249 -37.749747 
L 327.106183 -37.831164 
L 324.248116 -37.894452 
L 321.390049 -37.920703 
L 318.531982 -37.908766 
L 315.673916 -37.876823 
L 312.815849 -37.850321 
L 309.957782 -37.84732 
L 307.099715 -37.872675 
L 304.241649 -37.921 
L 301.383582 -37.980965 
L 298.525515 -38.037569 
L 295.667448 -38.075272 
L 292.809382 -38.083646 
L 289.951315 -38.06248 
L 287.093248 -38.023946 
L 284.235181 -37.993509 
L 281.377115 -38.008952 
L 278.519048 -38.109786 
L 275.660981 -38.312342 
L 272.802914 -38.584278 
L 269.944848 -38.845995 
L 267.086781 -39.010503 
L 264.228714 -39.035843 
L 261.370647 -38.947489 
L 258.512581 -38.815948 
L 255.654514 -38.714003 
L 252.796447 -38.684672 
L 249.938381 -38.730669 
L 247.080314 -38.82219 
L 244.222247 -38.916963 
L 241.36418 -38.980674 
L 238.506114 -38.994089 
L 235.648047 -38.94768 
L 232.78998 -38.839219 
L 229.931913 -38.682476 
L 227.073847 -38.517303 
L 224.21578 -38.408813 
L 221.357713 -38.433761 
L 218.499646 -38.657427 
L 215.64158 -39.105163 
L 212.783513 -39.740341 
L 209.925446 -40.467532 
L 207.067379 -41.171254 
L 204.209313 -41.777876 
L 201.351246 -42.306039 
L 198.493179 -42.867117 
L 195.635112 -43.60657 
L 192.777046 -44.628153 
L 189.918979 -45.964141 
L 187.060912 -47.610056 
L 184.202845 -49.576426 
L 181.344779 -51.90246 
L 178.486712 -54.630808 
L 175.628645 -57.784053 
L 172.770578 -61.369719 
L 169.912512 -65.407111 
L 167.054445 -69.958118 
L 164.196378 -75.145847 
L 161.338311 -81.140889 
L 158.480245 -88.103071 
L 155.622178 -96.101718 
L 152.764111 -105.05862 
L 149.906045 -114.726594 
L 147.047978 -124.677269 
L 144.189911 -134.293519 
L 141.331844 -142.817389 
L 138.473778 -149.493982 
L 135.615711 -153.754477 
L 132.757644 -155.314957 
L 129.899577 -154.145621 
L 127.041511 -150.410679 
L 124.183444 -144.487248 
L 121.325377 -137.005357 
L 118.46731 -128.741864 
L 115.609244 -120.337899 
L 112.751177 -112.046916 
L 109.89311 -103.749527 
L 107.035043 -95.232746 
L 104.176977 -86.495349 
L 101.31891 -77.850187 
L 98.460843 -69.791398 
L 95.602776 -62.765426 
L 92.74471 -57.007557 
L 89.886643 -52.510683 
L 87.028576 -49.091572 
L 84.170509 -46.491865 
L 81.312443 -44.471464 
L 78.454376 -42.864429 
L 75.596309 -41.580852 
L 72.738242 -40.572941 
L 69.880176 -39.804193 
L 67.022109 -39.238976 
L 64.164042 -38.84177 
L 61.305975 -38.577168 
L 58.447909 -38.417044 
L 55.589842 -38.360171 
L 52.731775 -38.452795 
L 49.873709 -38.783866 
L 47.015642 -39.429503 
L 44.157575 -40.352778 
L 41.299508 -41.327152 
L 38.441442 -41.985947 
L 35.583375 -42.020482 
L 32.725308 -41.389746 
L 29.867241 -40.351778 
L 27.009175 -39.284336 
L 24.151108 -38.460805 
L 21.293041 -37.956915 
L 18.434974 -37.706362 
L 15.576908 -37.603806 
z
" style="stroke: #1f77b4"/>
    </defs>
    <g clip-path="url(#p9dff10882d)">
     <use xlink:href="#m7f300d3791" x="0" y="249.01" style="fill: #1f77b4; fill-opacity: 0.25; stroke: #1f77b4"/>
    </g>
   </g>
   <g id="PolyCollection_2">
    <defs>
     <path id="md35c10ff8a" d="M 55.882072 -37.570109 
L 55.882072 -37.55625 
L 56.970873 -37.55625 
L 58.059675 -37.55625 
L 59.148477 -37.55625 
L 60.237278 -37.55625 
L 61.32608 -37.55625 
L 62.414881 -37.55625 
L 63.503683 -37.55625 
L 64.592485 -37.55625 
L 65.681286 -37.55625 
L 66.770088 -37.55625 
L 67.858889 -37.55625 
L 68.947691 -37.55625 
L 70.036493 -37.55625 
L 71.125294 -37.55625 
L 72.214096 -37.55625 
L 73.302897 -37.55625 
L 74.391699 -37.55625 
L 75.4805 -37.55625 
L 76.569302 -37.55625 
L 77.658104 -37.55625 
L 78.746905 -37.55625 
L 79.835707 -37.55625 
L 80.924508 -37.55625 
L 82.01331 -37.55625 
L 83.102112 -37.55625 
L 84.190913 -37.55625 
L 85.279715 -37.55625 
L 86.368516 -37.55625 
L 87.457318 -37.55625 
L 88.54612 -37.55625 
L 89.634921 -37.55625 
L 90.723723 -37.55625 
L 91.812524 -37.55625 
L 92.901326 -37.55625 
L 93.990128 -37.55625 
L 95.078929 -37.55625 
L 96.167731 -37.55625 
L 97.256532 -37.55625 
L 98.345334 -37.55625 
L 99.434136 -37.55625 
L 100.522937 -37.55625 
L 101.611739 -37.55625 
L 102.70054 -37.55625 
L 103.789342 -37.55625 
L 104.878143 -37.55625 
L 105.966945 -37.55625 
L 107.055747 -37.55625 
L 108.144548 -37.55625 
L 109.23335 -37.55625 
L 110.322151 -37.55625 
L 111.410953 -37.55625 
L 112.499755 -37.55625 
L 113.588556 -37.55625 
L 114.677358 -37.55625 
L 115.766159 -37.55625 
L 116.854961 -37.55625 
L 117.943763 -37.55625 
L 119.032564 -37.55625 
L 120.121366 -37.55625 
L 121.210167 -37.55625 
L 122.298969 -37.55625 
L 123.387771 -37.55625 
L 124.476572 -37.55625 
L 125.565374 -37.55625 
L 126.654175 -37.55625 
L 127.742977 -37.55625 
L 128.831779 -37.55625 
L 129.92058 -37.55625 
L 131.009382 -37.55625 
L 132.098183 -37.55625 
L 133.186985 -37.55625 
L 134.275787 -37.55625 
L 135.364588 -37.55625 
L 136.45339 -37.55625 
L 137.542191 -37.55625 
L 138.630993 -37.55625 
L 139.719794 -37.55625 
L 140.808596 -37.55625 
L 141.897398 -37.55625 
L 142.986199 -37.55625 
L 144.075001 -37.55625 
L 145.163802 -37.55625 
L 146.252604 -37.55625 
L 147.341406 -37.55625 
L 148.430207 -37.55625 
L 149.519009 -37.55625 
L 150.60781 -37.55625 
L 151.696612 -37.55625 
L 152.785414 -37.55625 
L 153.874215 -37.55625 
L 154.963017 -37.55625 
L 156.051818 -37.55625 
L 157.14062 -37.55625 
L 158.229422 -37.55625 
L 159.318223 -37.55625 
L 160.407025 -37.55625 
L 161.495826 -37.55625 
L 162.584628 -37.55625 
L 163.67343 -37.55625 
L 164.762231 -37.55625 
L 165.851033 -37.55625 
L 166.939834 -37.55625 
L 168.028636 -37.55625 
L 169.117438 -37.55625 
L 170.206239 -37.55625 
L 171.295041 -37.55625 
L 172.383842 -37.55625 
L 173.472644 -37.55625 
L 174.561445 -37.55625 
L 175.650247 -37.55625 
L 176.739049 -37.55625 
L 177.82785 -37.55625 
L 178.916652 -37.55625 
L 180.005453 -37.55625 
L 181.094255 -37.55625 
L 182.183057 -37.55625 
L 183.271858 -37.55625 
L 184.36066 -37.55625 
L 185.449461 -37.55625 
L 186.538263 -37.55625 
L 187.627065 -37.55625 
L 188.715866 -37.55625 
L 189.804668 -37.55625 
L 190.893469 -37.55625 
L 191.982271 -37.55625 
L 193.071073 -37.55625 
L 194.159874 -37.55625 
L 195.248676 -37.55625 
L 196.337477 -37.55625 
L 197.426279 -37.55625 
L 198.515081 -37.55625 
L 199.603882 -37.55625 
L 200.692684 -37.55625 
L 201.781485 -37.55625 
L 202.870287 -37.55625 
L 203.959088 -37.55625 
L 205.04789 -37.55625 
L 206.136692 -37.55625 
L 207.225493 -37.55625 
L 208.314295 -37.55625 
L 209.403096 -37.55625 
L 210.491898 -37.55625 
L 211.5807 -37.55625 
L 212.669501 -37.55625 
L 213.758303 -37.55625 
L 214.847104 -37.55625 
L 215.935906 -37.55625 
L 217.024708 -37.55625 
L 218.113509 -37.55625 
L 219.202311 -37.55625 
L 220.291112 -37.55625 
L 221.379914 -37.55625 
L 222.468716 -37.55625 
L 223.557517 -37.55625 
L 224.646319 -37.55625 
L 225.73512 -37.55625 
L 226.823922 -37.55625 
L 227.912724 -37.55625 
L 229.001525 -37.55625 
L 230.090327 -37.55625 
L 231.179128 -37.55625 
L 232.26793 -37.55625 
L 233.356732 -37.55625 
L 234.445533 -37.55625 
L 235.534335 -37.55625 
L 236.623136 -37.55625 
L 237.711938 -37.55625 
L 238.800739 -37.55625 
L 239.889541 -37.55625 
L 240.978343 -37.55625 
L 242.067144 -37.55625 
L 243.155946 -37.55625 
L 244.244747 -37.55625 
L 245.333549 -37.55625 
L 246.422351 -37.55625 
L 247.511152 -37.55625 
L 248.599954 -37.55625 
L 249.688755 -37.55625 
L 250.777557 -37.55625 
L 251.866359 -37.55625 
L 252.95516 -37.55625 
L 254.043962 -37.55625 
L 255.132763 -37.55625 
L 256.221565 -37.55625 
L 257.310367 -37.55625 
L 258.399168 -37.55625 
L 259.48797 -37.55625 
L 260.576771 -37.55625 
L 261.665573 -37.55625 
L 262.754375 -37.55625 
L 263.843176 -37.55625 
L 264.931978 -37.55625 
L 266.020779 -37.55625 
L 267.109581 -37.55625 
L 268.198383 -37.55625 
L 269.287184 -37.55625 
L 270.375986 -37.55625 
L 271.464787 -37.55625 
L 272.553589 -37.55625 
L 272.553589 -37.559004 
L 272.553589 -37.559004 
L 271.464787 -37.56326 
L 270.375986 -37.572255 
L 269.287184 -37.589037 
L 268.198383 -37.616515 
L 267.109581 -37.655664 
L 266.020779 -37.703496 
L 264.931978 -37.752281 
L 263.843176 -37.791426 
L 262.754375 -37.811966 
L 261.665573 -37.811497 
L 260.576771 -37.796306 
L 259.48797 -37.77874 
L 258.399168 -37.770837 
L 257.310367 -37.777779 
L 256.221565 -37.795019 
L 255.132763 -37.810807 
L 254.043962 -37.81259 
L 252.95516 -37.793541 
L 251.866359 -37.755539 
L 250.777557 -37.707407 
L 249.688755 -37.66024 
L 248.599954 -37.623119 
L 247.511152 -37.601514 
L 246.422351 -37.5984 
L 245.333549 -37.616233 
L 244.244747 -37.657633 
L 243.155946 -37.723696 
L 242.067144 -37.810729 
L 240.978343 -37.90796 
L 239.889541 -37.999086 
L 238.800739 -38.068566 
L 237.711938 -38.109878 
L 236.623136 -38.130298 
L 235.534335 -38.147862 
L 234.445533 -38.181182 
L 233.356732 -38.238048 
L 232.26793 -38.310006 
L 231.179128 -38.376002 
L 230.090327 -38.4122 
L 229.001525 -38.401857 
L 227.912724 -38.340604 
L 226.823922 -38.236315 
L 225.73512 -38.105381 
L 224.646319 -37.967572 
L 223.557517 -37.840978 
L 222.468716 -37.738233 
L 221.379914 -37.665094 
L 220.291112 -37.621746 
L 219.202311 -37.605898 
L 218.113509 -37.615773 
L 217.024708 -37.651155 
L 215.935906 -37.711699 
L 214.847104 -37.793334 
L 213.758303 -37.885122 
L 212.669501 -37.969413 
L 211.5807 -38.026715 
L 210.491898 -38.043681 
L 209.403096 -38.019938 
L 208.314295 -37.969435 
L 207.225493 -37.914966 
L 206.136692 -37.878683 
L 205.04789 -37.873676 
L 203.959088 -37.900731 
L 202.870287 -37.951131 
L 201.781485 -38.013074 
L 200.692684 -38.077885 
L 199.603882 -38.143116 
L 198.515081 -38.211837 
L 197.426279 -38.289447 
L 196.337477 -38.380088 
L 195.248676 -38.484444 
L 194.159874 -38.599979 
L 193.071073 -38.7239 
L 191.982271 -38.858026 
L 190.893469 -39.013181 
L 189.804668 -39.209299 
L 188.715866 -39.468229 
L 187.627065 -39.800329 
L 186.538263 -40.191871 
L 185.449461 -40.603108 
L 184.36066 -40.982462 
L 183.271858 -41.291866 
L 182.183057 -41.528986 
L 181.094255 -41.732103 
L 180.005453 -41.963884 
L 178.916652 -42.283308 
L 177.82785 -42.720437 
L 176.739049 -43.264143 
L 175.650247 -43.864697 
L 174.561445 -44.448334 
L 173.472644 -44.939788 
L 172.383842 -45.28777 
L 171.295041 -45.486149 
L 170.206239 -45.582989 
L 169.117438 -45.672742 
L 168.028636 -45.873112 
L 166.939834 -46.294305 
L 165.851033 -47.011554 
L 164.762231 -48.050771 
L 163.67343 -49.39252 
L 162.584628 -50.993271 
L 161.495826 -52.816944 
L 160.407025 -54.865771 
L 159.318223 -57.199183 
L 158.229422 -59.933451 
L 157.14062 -63.220308 
L 156.051818 -67.206914 
L 154.963017 -71.983594 
L 153.874215 -77.534509 
L 152.785414 -83.71687 
L 151.696612 -90.29311 
L 150.60781 -97.016554 
L 149.519009 -103.733965 
L 148.430207 -110.446607 
L 147.341406 -117.28845 
L 146.252604 -124.430158 
L 145.163802 -131.965415 
L 144.075001 -139.84606 
L 142.986199 -147.897615 
L 141.897398 -155.896211 
L 140.808596 -163.659741 
L 139.719794 -171.113574 
L 138.630993 -178.314497 
L 137.542191 -185.42861 
L 136.45339 -192.656615 
L 135.364588 -200.105987 
L 134.275787 -207.642667 
L 133.186985 -214.800014 
L 132.098183 -220.8332 
L 131.009382 -224.945379 
L 129.92058 -226.597917 
L 128.831779 -225.734881 
L 127.742977 -222.78578 
L 126.654175 -218.452408 
L 125.565374 -213.423482 
L 124.476572 -208.178678 
L 123.387771 -202.939875 
L 122.298969 -197.711124 
L 121.210167 -192.322919 
L 120.121366 -186.459068 
L 119.032564 -179.711257 
L 117.943763 -171.704659 
L 116.854961 -162.270847 
L 115.766159 -151.577178 
L 114.677358 -140.121636 
L 113.588556 -128.579318 
L 112.499755 -117.583651 
L 111.410953 -107.563854 
L 110.322151 -98.711188 
L 109.23335 -91.054667 
L 108.144548 -84.563943 
L 107.055747 -79.200698 
L 105.966945 -74.894554 
L 104.878143 -71.481714 
L 103.789342 -68.674122 
L 102.70054 -66.105697 
L 101.611739 -63.444802 
L 100.522937 -60.510689 
L 99.434136 -57.326491 
L 98.345334 -54.08479 
L 97.256532 -51.055486 
L 96.167731 -48.487851 
L 95.078929 -46.542588 
L 93.990128 -45.261059 
L 92.901326 -44.563809 
L 91.812524 -44.27248 
L 90.723723 -44.154457 
L 89.634921 -43.985558 
L 88.54612 -43.613443 
L 87.457318 -42.995731 
L 86.368516 -42.194509 
L 85.279715 -41.331934 
L 84.190913 -40.533068 
L 83.102112 -39.884544 
L 82.01331 -39.420708 
L 80.924508 -39.129894 
L 79.835707 -38.968042 
L 78.746905 -38.874124 
L 77.658104 -38.788372 
L 76.569302 -38.67192 
L 75.4805 -38.520148 
L 74.391699 -38.361662 
L 73.302897 -38.242728 
L 72.214096 -38.205487 
L 71.125294 -38.269999 
L 70.036493 -38.425438 
L 68.947691 -38.630912 
L 67.858889 -38.825194 
L 66.770088 -38.944507 
L 65.681286 -38.944358 
L 64.592485 -38.816496 
L 63.503683 -38.591359 
L 62.414881 -38.323624 
L 61.32608 -38.068892 
L 60.237278 -37.864494 
L 59.148477 -37.722925 
L 58.059675 -37.637246 
L 56.970873 -37.591606 
L 55.882072 -37.570109 
z
" style="stroke: #ff7f0e"/>
    </defs>
    <g clip-path="url(#p9dff10882d)">
     <use xlink:href="#md35c10ff8a" x="0" y="249.01" style="fill: #ff7f0e; fill-opacity: 0.25; stroke: #ff7f0e"/>
    </g>
   </g>
   <g id="matplotlib.axis_1">
    <g id="xtick_1">
     <g id="line2d_1">
      <defs>
       <path id="m3fd14b2af4" d="M 0 0 
L 0 3.5 
" style="stroke: #000000; stroke-width: 0.8"/>
      </defs>
      <g>
       <use xlink:href="#m3fd14b2af4" x="36.465625" y="211.45375" style="stroke: #000000; stroke-width: 0.8"/>
      </g>
     </g>
     <g id="text_1">
      <!-- 0 -->
      <g transform="translate(33.284375 226.052188)scale(0.1 -0.1)">
       <defs>
        <path id="DejaVuSans-30" d="M 2034 4250 
Q 1547 4250 1301 3770 
Q 1056 3291 1056 2328 
Q 1056 1369 1301 889 
Q 1547 409 2034 409 
Q 2525 409 2770 889 
Q 3016 1369 3016 2328 
Q 3016 3291 2770 3770 
Q 2525 4250 2034 4250 
z
M 2034 4750 
Q 2819 4750 3233 4129 
Q 3647 3509 3647 2328 
Q 3647 1150 3233 529 
Q 2819 -91 2034 -91 
Q 1250 -91 836 529 
Q 422 1150 422 2328 
Q 422 3509 836 4129 
Q 1250 4750 2034 4750 
z
" transform="scale(0.015625)"/>
       </defs>
       <use xlink:href="#DejaVuSans-30"/>
      </g>
     </g>
    </g>
    <g id="xtick_2">
     <g id="line2d_2">
      <g>
       <use xlink:href="#m3fd14b2af4" x="199.414866" y="211.45375" style="stroke: #000000; stroke-width: 0.8"/>
      </g>
     </g>
     <g id="text_2">
      <!-- 20 -->
      <g transform="translate(193.052366 226.052188)scale(0.1 -0.1)">
       <defs>
        <path id="DejaVuSans-32" d="M 1228 531 
L 3431 531 
L 3431 0 
L 469 0 
L 469 531 
Q 828 903 1448 1529 
Q 2069 2156 2228 2338 
Q 2531 2678 2651 2914 
Q 2772 3150 2772 3378 
Q 2772 3750 2511 3984 
Q 2250 4219 1831 4219 
Q 1534 4219 1204 4116 
Q 875 4013 500 3803 
L 500 4441 
Q 881 4594 1212 4672 
Q 1544 4750 1819 4750 
Q 2544 4750 2975 4387 
Q 3406 4025 3406 3419 
Q 3406 3131 3298 2873 
Q 3191 2616 2906 2266 
Q 2828 2175 2409 1742 
Q 1991 1309 1228 531 
z
" transform="scale(0.015625)"/>
       </defs>
       <use xlink:href="#DejaVuSans-32"/>
       <use xlink:href="#DejaVuSans-30" x="63.623047"/>
      </g>
     </g>
    </g>
    <g id="xtick_3">
     <g id="line2d_3">
      <g>
       <use xlink:href="#m3fd14b2af4" x="362.364108" y="211.45375" style="stroke: #000000; stroke-width: 0.8"/>
      </g>
     </g>
     <g id="text_3">
      <!-- 40 -->
      <g transform="translate(356.001608 226.052188)scale(0.1 -0.1)">
       <defs>
        <path id="DejaVuSans-34" d="M 2419 4116 
L 825 1625 
L 2419 1625 
L 2419 4116 
z
M 2253 4666 
L 3047 4666 
L 3047 1625 
L 3713 1625 
L 3713 1100 
L 3047 1100 
L 3047 0 
L 2419 0 
L 2419 1100 
L 313 1100 
L 313 1709 
L 2253 4666 
z
" transform="scale(0.015625)"/>
       </defs>
       <use xlink:href="#DejaVuSans-34"/>
       <use xlink:href="#DejaVuSans-30" x="63.623047"/>
      </g>
     </g>
    </g>
    <g id="xtick_4">
     <g id="line2d_4">
      <g>
       <use xlink:href="#m3fd14b2af4" x="525.313349" y="211.45375" style="stroke: #000000; stroke-width: 0.8"/>
      </g>
     </g>
     <g id="text_4">
      <!-- 60 -->
      <g transform="translate(518.950849 226.052188)scale(0.1 -0.1)">
       <defs>
        <path id="DejaVuSans-36" d="M 2113 2584 
Q 1688 2584 1439 2293 
Q 1191 2003 1191 1497 
Q 1191 994 1439 701 
Q 1688 409 2113 409 
Q 2538 409 2786 701 
Q 3034 994 3034 1497 
Q 3034 2003 2786 2293 
Q 2538 2584 2113 2584 
z
M 3366 4563 
L 3366 3988 
Q 3128 4100 2886 4159 
Q 2644 4219 2406 4219 
Q 1781 4219 1451 3797 
Q 1122 3375 1075 2522 
Q 1259 2794 1537 2939 
Q 1816 3084 2150 3084 
Q 2853 3084 3261 2657 
Q 3669 2231 3669 1497 
Q 3669 778 3244 343 
Q 2819 -91 2113 -91 
Q 1303 -91 875 529 
Q 447 1150 447 2328 
Q 447 3434 972 4092 
Q 1497 4750 2381 4750 
Q 2619 4750 2861 4703 
Q 3103 4656 3366 4563 
z
" transform="scale(0.015625)"/>
       </defs>
       <use xlink:href="#DejaVuSans-36"/>
       <use xlink:href="#DejaVuSans-30" x="63.623047"/>
      </g>
     </g>
    </g>
    <g id="xtick_5">
     <g id="line2d_5">
      <g>
       <use xlink:href="#m3fd14b2af4" x="688.262591" y="211.45375" style="stroke: #000000; stroke-width: 0.8"/>
      </g>
     </g>
     <g id="text_5">
      <!-- 80 -->
      <g transform="translate(681.900091 226.052188)scale(0.1 -0.1)">
       <defs>
        <path id="DejaVuSans-38" d="M 2034 2216 
Q 1584 2216 1326 1975 
Q 1069 1734 1069 1313 
Q 1069 891 1326 650 
Q 1584 409 2034 409 
Q 2484 409 2743 651 
Q 3003 894 3003 1313 
Q 3003 1734 2745 1975 
Q 2488 2216 2034 2216 
z
M 1403 2484 
Q 997 2584 770 2862 
Q 544 3141 544 3541 
Q 544 4100 942 4425 
Q 1341 4750 2034 4750 
Q 2731 4750 3128 4425 
Q 3525 4100 3525 3541 
Q 3525 3141 3298 2862 
Q 3072 2584 2669 2484 
Q 3125 2378 3379 2068 
Q 3634 1759 3634 1313 
Q 3634 634 3220 271 
Q 2806 -91 2034 -91 
Q 1263 -91 848 271 
Q 434 634 434 1313 
Q 434 1759 690 2068 
Q 947 2378 1403 2484 
z
M 1172 3481 
Q 1172 3119 1398 2916 
Q 1625 2713 2034 2713 
Q 2441 2713 2670 2916 
Q 2900 3119 2900 3481 
Q 2900 3844 2670 4047 
Q 2441 4250 2034 4250 
Q 1625 4250 1398 4047 
Q 1172 3844 1172 3481 
z
" transform="scale(0.015625)"/>
       </defs>
       <use xlink:href="#DejaVuSans-38"/>
       <use xlink:href="#DejaVuSans-30" x="63.623047"/>
      </g>
     </g>
    </g>
    <g id="xtick_6">
     <g id="line2d_6">
      <g>
       <use xlink:href="#m3fd14b2af4" x="851.211832" y="211.45375" style="stroke: #000000; stroke-width: 0.8"/>
      </g>
     </g>
     <g id="text_6">
      <!-- 100 -->
      <g transform="translate(841.668082 226.052188)scale(0.1 -0.1)">
       <defs>
        <path id="DejaVuSans-31" d="M 794 531 
L 1825 531 
L 1825 4091 
L 703 3866 
L 703 4441 
L 1819 4666 
L 2450 4666 
L 2450 531 
L 3481 531 
L 3481 0 
L 794 0 
L 794 531 
z
" transform="scale(0.015625)"/>
       </defs>
       <use xlink:href="#DejaVuSans-31"/>
       <use xlink:href="#DejaVuSans-30" x="63.623047"/>
       <use xlink:href="#DejaVuSans-30" x="127.246094"/>
      </g>
     </g>
    </g>
    <g id="text_7">
     <!-- Gunning Fog Score -->
     <g transform="translate(396.617635 239.730312)scale(0.1 -0.1)">
      <defs>
       <path id="DejaVuSans-47" d="M 3809 666 
L 3809 1919 
L 2778 1919 
L 2778 2438 
L 4434 2438 
L 4434 434 
Q 4069 175 3628 42 
Q 3188 -91 2688 -91 
Q 1594 -91 976 548 
Q 359 1188 359 2328 
Q 359 3472 976 4111 
Q 1594 4750 2688 4750 
Q 3144 4750 3555 4637 
Q 3966 4525 4313 4306 
L 4313 3634 
Q 3963 3931 3569 4081 
Q 3175 4231 2741 4231 
Q 1884 4231 1454 3753 
Q 1025 3275 1025 2328 
Q 1025 1384 1454 906 
Q 1884 428 2741 428 
Q 3075 428 3337 486 
Q 3600 544 3809 666 
z
" transform="scale(0.015625)"/>
       <path id="DejaVuSans-75" d="M 544 1381 
L 544 3500 
L 1119 3500 
L 1119 1403 
Q 1119 906 1312 657 
Q 1506 409 1894 409 
Q 2359 409 2629 706 
Q 2900 1003 2900 1516 
L 2900 3500 
L 3475 3500 
L 3475 0 
L 2900 0 
L 2900 538 
Q 2691 219 2414 64 
Q 2138 -91 1772 -91 
Q 1169 -91 856 284 
Q 544 659 544 1381 
z
M 1991 3584 
L 1991 3584 
z
" transform="scale(0.015625)"/>
       <path id="DejaVuSans-6e" d="M 3513 2113 
L 3513 0 
L 2938 0 
L 2938 2094 
Q 2938 2591 2744 2837 
Q 2550 3084 2163 3084 
Q 1697 3084 1428 2787 
Q 1159 2491 1159 1978 
L 1159 0 
L 581 0 
L 581 3500 
L 1159 3500 
L 1159 2956 
Q 1366 3272 1645 3428 
Q 1925 3584 2291 3584 
Q 2894 3584 3203 3211 
Q 3513 2838 3513 2113 
z
" transform="scale(0.015625)"/>
       <path id="DejaVuSans-69" d="M 603 3500 
L 1178 3500 
L 1178 0 
L 603 0 
L 603 3500 
z
M 603 4863 
L 1178 4863 
L 1178 4134 
L 603 4134 
L 603 4863 
z
" transform="scale(0.015625)"/>
       <path id="DejaVuSans-67" d="M 2906 1791 
Q 2906 2416 2648 2759 
Q 2391 3103 1925 3103 
Q 1463 3103 1205 2759 
Q 947 2416 947 1791 
Q 947 1169 1205 825 
Q 1463 481 1925 481 
Q 2391 481 2648 825 
Q 2906 1169 2906 1791 
z
M 3481 434 
Q 3481 -459 3084 -895 
Q 2688 -1331 1869 -1331 
Q 1566 -1331 1297 -1286 
Q 1028 -1241 775 -1147 
L 775 -588 
Q 1028 -725 1275 -790 
Q 1522 -856 1778 -856 
Q 2344 -856 2625 -561 
Q 2906 -266 2906 331 
L 2906 616 
Q 2728 306 2450 153 
Q 2172 0 1784 0 
Q 1141 0 747 490 
Q 353 981 353 1791 
Q 353 2603 747 3093 
Q 1141 3584 1784 3584 
Q 2172 3584 2450 3431 
Q 2728 3278 2906 2969 
L 2906 3500 
L 3481 3500 
L 3481 434 
z
" transform="scale(0.015625)"/>
       <path id="DejaVuSans-20" transform="scale(0.015625)"/>
       <path id="DejaVuSans-46" d="M 628 4666 
L 3309 4666 
L 3309 4134 
L 1259 4134 
L 1259 2759 
L 3109 2759 
L 3109 2228 
L 1259 2228 
L 1259 0 
L 628 0 
L 628 4666 
z
" transform="scale(0.015625)"/>
       <path id="DejaVuSans-6f" d="M 1959 3097 
Q 1497 3097 1228 2736 
Q 959 2375 959 1747 
Q 959 1119 1226 758 
Q 1494 397 1959 397 
Q 2419 397 2687 759 
Q 2956 1122 2956 1747 
Q 2956 2369 2687 2733 
Q 2419 3097 1959 3097 
z
M 1959 3584 
Q 2709 3584 3137 3096 
Q 3566 2609 3566 1747 
Q 3566 888 3137 398 
Q 2709 -91 1959 -91 
Q 1206 -91 779 398 
Q 353 888 353 1747 
Q 353 2609 779 3096 
Q 1206 3584 1959 3584 
z
" transform="scale(0.015625)"/>
       <path id="DejaVuSans-53" d="M 3425 4513 
L 3425 3897 
Q 3066 4069 2747 4153 
Q 2428 4238 2131 4238 
Q 1616 4238 1336 4038 
Q 1056 3838 1056 3469 
Q 1056 3159 1242 3001 
Q 1428 2844 1947 2747 
L 2328 2669 
Q 3034 2534 3370 2195 
Q 3706 1856 3706 1288 
Q 3706 609 3251 259 
Q 2797 -91 1919 -91 
Q 1588 -91 1214 -16 
Q 841 59 441 206 
L 441 856 
Q 825 641 1194 531 
Q 1563 422 1919 422 
Q 2459 422 2753 634 
Q 3047 847 3047 1241 
Q 3047 1584 2836 1778 
Q 2625 1972 2144 2069 
L 1759 2144 
Q 1053 2284 737 2584 
Q 422 2884 422 3419 
Q 422 4038 858 4394 
Q 1294 4750 2059 4750 
Q 2388 4750 2728 4690 
Q 3069 4631 3425 4513 
z
" transform="scale(0.015625)"/>
       <path id="DejaVuSans-63" d="M 3122 3366 
L 3122 2828 
Q 2878 2963 2633 3030 
Q 2388 3097 2138 3097 
Q 1578 3097 1268 2742 
Q 959 2388 959 1747 
Q 959 1106 1268 751 
Q 1578 397 2138 397 
Q 2388 397 2633 464 
Q 2878 531 3122 666 
L 3122 134 
Q 2881 22 2623 -34 
Q 2366 -91 2075 -91 
Q 1284 -91 818 406 
Q 353 903 353 1747 
Q 353 2603 823 3093 
Q 1294 3584 2113 3584 
Q 2378 3584 2631 3529 
Q 2884 3475 3122 3366 
z
" transform="scale(0.015625)"/>
       <path id="DejaVuSans-72" d="M 2631 2963 
Q 2534 3019 2420 3045 
Q 2306 3072 2169 3072 
Q 1681 3072 1420 2755 
Q 1159 2438 1159 1844 
L 1159 0 
L 581 0 
L 581 3500 
L 1159 3500 
L 1159 2956 
Q 1341 3275 1631 3429 
Q 1922 3584 2338 3584 
Q 2397 3584 2469 3576 
Q 2541 3569 2628 3553 
L 2631 2963 
z
" transform="scale(0.015625)"/>
       <path id="DejaVuSans-65" d="M 3597 1894 
L 3597 1613 
L 953 1613 
Q 991 1019 1311 708 
Q 1631 397 2203 397 
Q 2534 397 2845 478 
Q 3156 559 3463 722 
L 3463 178 
Q 3153 47 2828 -22 
Q 2503 -91 2169 -91 
Q 1331 -91 842 396 
Q 353 884 353 1716 
Q 353 2575 817 3079 
Q 1281 3584 2069 3584 
Q 2775 3584 3186 3129 
Q 3597 2675 3597 1894 
z
M 3022 2063 
Q 3016 2534 2758 2815 
Q 2500 3097 2075 3097 
Q 1594 3097 1305 2825 
Q 1016 2553 972 2059 
L 3022 2063 
z
" transform="scale(0.015625)"/>
      </defs>
      <use xlink:href="#DejaVuSans-47"/>
      <use xlink:href="#DejaVuSans-75" x="77.490234"/>
      <use xlink:href="#DejaVuSans-6e" x="140.869141"/>
      <use xlink:href="#DejaVuSans-6e" x="204.248047"/>
      <use xlink:href="#DejaVuSans-69" x="267.626953"/>
      <use xlink:href="#DejaVuSans-6e" x="295.410156"/>
      <use xlink:href="#DejaVuSans-67" x="358.789062"/>
      <use xlink:href="#DejaVuSans-20" x="422.265625"/>
      <use xlink:href="#DejaVuSans-46" x="454.052734"/>
      <use xlink:href="#DejaVuSans-6f" x="507.947266"/>
      <use xlink:href="#DejaVuSans-67" x="569.128906"/>
      <use xlink:href="#DejaVuSans-20" x="632.605469"/>
      <use xlink:href="#DejaVuSans-53" x="664.392578"/>
      <use xlink:href="#DejaVuSans-63" x="727.869141"/>
      <use xlink:href="#DejaVuSans-6f" x="782.849609"/>
      <use xlink:href="#DejaVuSans-72" x="844.03125"/>
      <use xlink:href="#DejaVuSans-65" x="882.894531"/>
     </g>
    </g>
   </g>
   <g id="matplotlib.axis_2">
    <g id="ytick_1">
     <g id="line2d_7">
      <defs>
       <path id="m1a87d2e456" d="M 0 0 
L -3.5 0 
" style="stroke: #000000; stroke-width: 0.8"/>
      </defs>
      <g>
       <use xlink:href="#m1a87d2e456" x="36.465625" y="211.45375" style="stroke: #000000; stroke-width: 0.8"/>
      </g>
     </g>
     <g id="text_8">
      <!-- 0.00 -->
      <g transform="translate(7.2 215.252969)scale(0.1 -0.1)">
       <defs>
        <path id="DejaVuSans-2e" d="M 684 794 
L 1344 794 
L 1344 0 
L 684 0 
L 684 794 
z
" transform="scale(0.015625)"/>
       </defs>
       <use xlink:href="#DejaVuSans-30"/>
       <use xlink:href="#DejaVuSans-2e" x="63.623047"/>
       <use xlink:href="#DejaVuSans-30" x="95.410156"/>
       <use xlink:href="#DejaVuSans-30" x="159.033203"/>
      </g>
     </g>
    </g>
    <g id="ytick_2">
     <g id="line2d_8">
      <g>
       <use xlink:href="#m1a87d2e456" x="36.465625" y="171.486502" style="stroke: #000000; stroke-width: 0.8"/>
      </g>
     </g>
     <g id="text_9">
      <!-- 0.05 -->
      <g transform="translate(7.2 175.285721)scale(0.1 -0.1)">
       <defs>
        <path id="DejaVuSans-35" d="M 691 4666 
L 3169 4666 
L 3169 4134 
L 1269 4134 
L 1269 2991 
Q 1406 3038 1543 3061 
Q 1681 3084 1819 3084 
Q 2600 3084 3056 2656 
Q 3513 2228 3513 1497 
Q 3513 744 3044 326 
Q 2575 -91 1722 -91 
Q 1428 -91 1123 -41 
Q 819 9 494 109 
L 494 744 
Q 775 591 1075 516 
Q 1375 441 1709 441 
Q 2250 441 2565 725 
Q 2881 1009 2881 1497 
Q 2881 1984 2565 2268 
Q 2250 2553 1709 2553 
Q 1456 2553 1204 2497 
Q 953 2441 691 2322 
L 691 4666 
z
" transform="scale(0.015625)"/>
       </defs>
       <use xlink:href="#DejaVuSans-30"/>
       <use xlink:href="#DejaVuSans-2e" x="63.623047"/>
       <use xlink:href="#DejaVuSans-30" x="95.410156"/>
       <use xlink:href="#DejaVuSans-35" x="159.033203"/>
      </g>
     </g>
    </g>
    <g id="ytick_3">
     <g id="line2d_9">
      <g>
       <use xlink:href="#m1a87d2e456" x="36.465625" y="131.519254" style="stroke: #000000; stroke-width: 0.8"/>
      </g>
     </g>
     <g id="text_10">
      <!-- 0.10 -->
      <g transform="translate(7.2 135.318473)scale(0.1 -0.1)">
       <use xlink:href="#DejaVuSans-30"/>
       <use xlink:href="#DejaVuSans-2e" x="63.623047"/>
       <use xlink:href="#DejaVuSans-31" x="95.410156"/>
       <use xlink:href="#DejaVuSans-30" x="159.033203"/>
      </g>
     </g>
    </g>
    <g id="ytick_4">
     <g id="line2d_10">
      <g>
       <use xlink:href="#m1a87d2e456" x="36.465625" y="91.552007" style="stroke: #000000; stroke-width: 0.8"/>
      </g>
     </g>
     <g id="text_11">
      <!-- 0.15 -->
      <g transform="translate(7.2 95.351225)scale(0.1 -0.1)">
       <use xlink:href="#DejaVuSans-30"/>
       <use xlink:href="#DejaVuSans-2e" x="63.623047"/>
       <use xlink:href="#DejaVuSans-31" x="95.410156"/>
       <use xlink:href="#DejaVuSans-35" x="159.033203"/>
      </g>
     </g>
    </g>
    <g id="ytick_5">
     <g id="line2d_11">
      <g>
       <use xlink:href="#m1a87d2e456" x="36.465625" y="51.584759" style="stroke: #000000; stroke-width: 0.8"/>
      </g>
     </g>
     <g id="text_12">
      <!-- 0.20 -->
      <g transform="translate(7.2 55.383977)scale(0.1 -0.1)">
       <use xlink:href="#DejaVuSans-30"/>
       <use xlink:href="#DejaVuSans-2e" x="63.623047"/>
       <use xlink:href="#DejaVuSans-32" x="95.410156"/>
       <use xlink:href="#DejaVuSans-30" x="159.033203"/>
      </g>
     </g>
    </g>
   </g>
   <g id="patch_3">
    <path d="M 36.465625 211.45375 
L 36.465625 12.96 
" style="fill: none; stroke: #000000; stroke-width: 0.8; stroke-linejoin: miter; stroke-linecap: square"/>
   </g>
   <g id="patch_4">
    <path d="M 36.465625 211.45375 
L 851.211832 211.45375 
" style="fill: none; stroke: #000000; stroke-width: 0.8; stroke-linejoin: miter; stroke-linecap: square"/>
   </g>
  </g>
  <g id="text_13">
   <!-- Gunning Fog score distribution -->
   <g transform="translate(358.31652 16.318125)scale(0.12 -0.12)">
    <defs>
     <path id="DejaVuSans-73" d="M 2834 3397 
L 2834 2853 
Q 2591 2978 2328 3040 
Q 2066 3103 1784 3103 
Q 1356 3103 1142 2972 
Q 928 2841 928 2578 
Q 928 2378 1081 2264 
Q 1234 2150 1697 2047 
L 1894 2003 
Q 2506 1872 2764 1633 
Q 3022 1394 3022 966 
Q 3022 478 2636 193 
Q 2250 -91 1575 -91 
Q 1294 -91 989 -36 
Q 684 19 347 128 
L 347 722 
Q 666 556 975 473 
Q 1284 391 1588 391 
Q 1994 391 2212 530 
Q 2431 669 2431 922 
Q 2431 1156 2273 1281 
Q 2116 1406 1581 1522 
L 1381 1569 
Q 847 1681 609 1914 
Q 372 2147 372 2553 
Q 372 3047 722 3315 
Q 1072 3584 1716 3584 
Q 2034 3584 2315 3537 
Q 2597 3491 2834 3397 
z
" transform="scale(0.015625)"/>
     <path id="DejaVuSans-64" d="M 2906 2969 
L 2906 4863 
L 3481 4863 
L 3481 0 
L 2906 0 
L 2906 525 
Q 2725 213 2448 61 
Q 2172 -91 1784 -91 
Q 1150 -91 751 415 
Q 353 922 353 1747 
Q 353 2572 751 3078 
Q 1150 3584 1784 3584 
Q 2172 3584 2448 3432 
Q 2725 3281 2906 2969 
z
M 947 1747 
Q 947 1113 1208 752 
Q 1469 391 1925 391 
Q 2381 391 2643 752 
Q 2906 1113 2906 1747 
Q 2906 2381 2643 2742 
Q 2381 3103 1925 3103 
Q 1469 3103 1208 2742 
Q 947 2381 947 1747 
z
" transform="scale(0.015625)"/>
     <path id="DejaVuSans-74" d="M 1172 4494 
L 1172 3500 
L 2356 3500 
L 2356 3053 
L 1172 3053 
L 1172 1153 
Q 1172 725 1289 603 
Q 1406 481 1766 481 
L 2356 481 
L 2356 0 
L 1766 0 
Q 1100 0 847 248 
Q 594 497 594 1153 
L 594 3053 
L 172 3053 
L 172 3500 
L 594 3500 
L 594 4494 
L 1172 4494 
z
" transform="scale(0.015625)"/>
     <path id="DejaVuSans-62" d="M 3116 1747 
Q 3116 2381 2855 2742 
Q 2594 3103 2138 3103 
Q 1681 3103 1420 2742 
Q 1159 2381 1159 1747 
Q 1159 1113 1420 752 
Q 1681 391 2138 391 
Q 2594 391 2855 752 
Q 3116 1113 3116 1747 
z
M 1159 2969 
Q 1341 3281 1617 3432 
Q 1894 3584 2278 3584 
Q 2916 3584 3314 3078 
Q 3713 2572 3713 1747 
Q 3713 922 3314 415 
Q 2916 -91 2278 -91 
Q 1894 -91 1617 61 
Q 1341 213 1159 525 
L 1159 0 
L 581 0 
L 581 4863 
L 1159 4863 
L 1159 2969 
z
" transform="scale(0.015625)"/>
    </defs>
    <use xlink:href="#DejaVuSans-47"/>
    <use xlink:href="#DejaVuSans-75" x="77.490234"/>
    <use xlink:href="#DejaVuSans-6e" x="140.869141"/>
    <use xlink:href="#DejaVuSans-6e" x="204.248047"/>
    <use xlink:href="#DejaVuSans-69" x="267.626953"/>
    <use xlink:href="#DejaVuSans-6e" x="295.410156"/>
    <use xlink:href="#DejaVuSans-67" x="358.789062"/>
    <use xlink:href="#DejaVuSans-20" x="422.265625"/>
    <use xlink:href="#DejaVuSans-46" x="454.052734"/>
    <use xlink:href="#DejaVuSans-6f" x="507.947266"/>
    <use xlink:href="#DejaVuSans-67" x="569.128906"/>
    <use xlink:href="#DejaVuSans-20" x="632.605469"/>
    <use xlink:href="#DejaVuSans-73" x="664.392578"/>
    <use xlink:href="#DejaVuSans-63" x="716.492188"/>
    <use xlink:href="#DejaVuSans-6f" x="771.472656"/>
    <use xlink:href="#DejaVuSans-72" x="832.654297"/>
    <use xlink:href="#DejaVuSans-65" x="871.517578"/>
    <use xlink:href="#DejaVuSans-20" x="933.041016"/>
    <use xlink:href="#DejaVuSans-64" x="964.828125"/>
    <use xlink:href="#DejaVuSans-69" x="1028.304688"/>
    <use xlink:href="#DejaVuSans-73" x="1056.087891"/>
    <use xlink:href="#DejaVuSans-74" x="1108.1875"/>
    <use xlink:href="#DejaVuSans-72" x="1147.396484"/>
    <use xlink:href="#DejaVuSans-69" x="1188.509766"/>
    <use xlink:href="#DejaVuSans-62" x="1216.292969"/>
    <use xlink:href="#DejaVuSans-75" x="1279.769531"/>
    <use xlink:href="#DejaVuSans-74" x="1343.148438"/>
    <use xlink:href="#DejaVuSans-69" x="1382.357422"/>
    <use xlink:href="#DejaVuSans-6f" x="1410.140625"/>
    <use xlink:href="#DejaVuSans-6e" x="1471.322266"/>
   </g>
  </g>
  <g id="legend_1">
   <g id="patch_5">
    <path d="M 861.667145 119.925312 
L 881.667145 119.925312 
L 881.667145 112.925312 
L 861.667145 112.925312 
z
" style="fill: #1f77b4; fill-opacity: 0.25; stroke: #1f77b4; stroke-linejoin: miter"/>
   </g>
   <g id="text_14">
    <!-- FAKE -->
    <g transform="translate(889.667145 119.925312)scale(0.1 -0.1)">
     <defs>
      <path id="DejaVuSans-41" d="M 2188 4044 
L 1331 1722 
L 3047 1722 
L 2188 4044 
z
M 1831 4666 
L 2547 4666 
L 4325 0 
L 3669 0 
L 3244 1197 
L 1141 1197 
L 716 0 
L 50 0 
L 1831 4666 
z
" transform="scale(0.015625)"/>
      <path id="DejaVuSans-4b" d="M 628 4666 
L 1259 4666 
L 1259 2694 
L 3353 4666 
L 4166 4666 
L 1850 2491 
L 4331 0 
L 3500 0 
L 1259 2247 
L 1259 0 
L 628 0 
L 628 4666 
z
" transform="scale(0.015625)"/>
      <path id="DejaVuSans-45" d="M 628 4666 
L 3578 4666 
L 3578 4134 
L 1259 4134 
L 1259 2753 
L 3481 2753 
L 3481 2222 
L 1259 2222 
L 1259 531 
L 3634 531 
L 3634 0 
L 628 0 
L 628 4666 
z
" transform="scale(0.015625)"/>
     </defs>
     <use xlink:href="#DejaVuSans-46"/>
     <use xlink:href="#DejaVuSans-41" x="48.394531"/>
     <use xlink:href="#DejaVuSans-4b" x="116.802734"/>
     <use xlink:href="#DejaVuSans-45" x="182.378906"/>
    </g>
   </g>
   <g id="patch_6">
    <path d="M 861.667145 134.603437 
L 881.667145 134.603437 
L 881.667145 127.603437 
L 861.667145 127.603437 
z
" style="fill: #ff7f0e; fill-opacity: 0.25; stroke: #ff7f0e; stroke-linejoin: miter"/>
   </g>
   <g id="text_15">
    <!-- REAL -->
    <g transform="translate(889.667145 134.603437)scale(0.1 -0.1)">
     <defs>
      <path id="DejaVuSans-52" d="M 2841 2188 
Q 3044 2119 3236 1894 
Q 3428 1669 3622 1275 
L 4263 0 
L 3584 0 
L 2988 1197 
Q 2756 1666 2539 1819 
Q 2322 1972 1947 1972 
L 1259 1972 
L 1259 0 
L 628 0 
L 628 4666 
L 2053 4666 
Q 2853 4666 3247 4331 
Q 3641 3997 3641 3322 
Q 3641 2881 3436 2590 
Q 3231 2300 2841 2188 
z
M 1259 4147 
L 1259 2491 
L 2053 2491 
Q 2509 2491 2742 2702 
Q 2975 2913 2975 3322 
Q 2975 3731 2742 3939 
Q 2509 4147 2053 4147 
L 1259 4147 
z
" transform="scale(0.015625)"/>
      <path id="DejaVuSans-4c" d="M 628 4666 
L 1259 4666 
L 1259 531 
L 3531 531 
L 3531 0 
L 628 0 
L 628 4666 
z
" transform="scale(0.015625)"/>
     </defs>
     <use xlink:href="#DejaVuSans-52"/>
     <use xlink:href="#DejaVuSans-45" x="69.482422"/>
     <use xlink:href="#DejaVuSans-41" x="132.666016"/>
     <use xlink:href="#DejaVuSans-4c" x="201.074219"/>
    </g>
   </g>
  </g>
 </g>
 <defs>
  <clipPath id="p9dff10882d">
   <rect x="36.465625" y="12.96" width="814.746207" height="198.49375"/>
  </clipPath>
 </defs>
</svg>
