<?xml version="1.0" encoding="utf-8" standalone="no"?>
<!DOCTYPE svg PUBLIC "-//W3C//DTD SVG 1.1//EN"
  "http://www.w3.org/Graphics/SVG/1.1/DTD/svg11.dtd">
<svg xmlns:xlink="http://www.w3.org/1999/xlink" width="388.965625pt" height="279.140625pt" viewBox="0 0 388.965625 279.140625" xmlns="http://www.w3.org/2000/svg" version="1.1">
 <metadata>
  <rdf:RDF xmlns:dc="http://purl.org/dc/elements/1.1/" xmlns:cc="http://creativecommons.org/ns#" xmlns:rdf="http://www.w3.org/1999/02/22-rdf-syntax-ns#">
   <cc:Work>
    <dc:type rdf:resource="http://purl.org/dc/dcmitype/StillImage"/>
    <dc:date>2022-08-10T08:06:06.401816</dc:date>
    <dc:format>image/svg+xml</dc:format>
    <dc:creator>
     <cc:Agent>
      <dc:title>Matplotlib v3.5.1, https://matplotlib.org/</dc:title>
     </cc:Agent>
    </dc:creator>
   </cc:Work>
  </rdf:RDF>
 </metadata>
 <defs>
  <style type="text/css">*{stroke-linejoin: round; stroke-linecap: butt}</style>
 </defs>
 <g id="figure_1">
  <g id="patch_1">
   <path d="M 0 279.140625 
L 388.965625 279.140625 
L 388.965625 0 
L 0 0 
L 0 279.140625 
z
" style="fill: none"/>
  </g>
  <g id="axes_1">
   <g id="patch_2">
    <path d="M 46.965625 241.584375 
L 381.765625 241.584375 
L 381.765625 24.144375 
L 46.965625 24.144375 
z
" style="fill: #ffffff"/>
   </g>
   <g id="PathCollection_1">
    <defs>
     <path id="m8dbe7a0ba8" d="M 0 3 
C 0.795609 3 1.55874 2.683901 2.12132 2.12132 
C 2.683901 1.55874 3 0.795609 3 0 
C 3 -0.795609 2.683901 -1.55874 2.12132 -2.12132 
C 1.55874 -2.683901 0.795609 -3 0 -3 
C -0.795609 -3 -1.55874 -2.683901 -2.12132 -2.12132 
C -2.683901 -1.55874 -3 -0.795609 -3 0 
C -3 0.795609 -2.683901 1.55874 -2.12132 2.12132 
C -1.55874 2.683901 -0.795609 3 0 3 
z
" style="stroke: #1f77b4"/>
    </defs>
    <g clip-path="url(#p0704ecfa3c)">
     <use xlink:href="#m8dbe7a0ba8" x="224.408959" y="123.106237" style="fill: #1f77b4; stroke: #1f77b4"/>
     <use xlink:href="#m8dbe7a0ba8" x="276.470947" y="121.262179" style="fill: #1f77b4; stroke: #1f77b4"/>
     <use xlink:href="#m8dbe7a0ba8" x="217.588839" y="152.918501" style="fill: #1f77b4; stroke: #1f77b4"/>
     <use xlink:href="#m8dbe7a0ba8" x="323.430859" y="80.949032" style="fill: #1f77b4; stroke: #1f77b4"/>
     <use xlink:href="#m8dbe7a0ba8" x="247.107986" y="144.517794" style="fill: #1f77b4; stroke: #1f77b4"/>
     <use xlink:href="#m8dbe7a0ba8" x="137.829874" y="167.056276" style="fill: #1f77b4; stroke: #1f77b4"/>
     <use xlink:href="#m8dbe7a0ba8" x="215.50636" y="157.477421" style="fill: #1f77b4; stroke: #1f77b4"/>
     <use xlink:href="#m8dbe7a0ba8" x="171.930476" y="148.20591" style="fill: #1f77b4; stroke: #1f77b4"/>
     <use xlink:href="#m8dbe7a0ba8" x="86.652941" y="202.349489" style="fill: #1f77b4; stroke: #1f77b4"/>
     <use xlink:href="#m8dbe7a0ba8" x="157.09281" y="189.389862" style="fill: #1f77b4; stroke: #1f77b4"/>
     <use xlink:href="#m8dbe7a0ba8" x="260.487917" y="71.370177" style="fill: #1f77b4; stroke: #1f77b4"/>
     <use xlink:href="#m8dbe7a0ba8" x="95.347293" y="184.113808" style="fill: #1f77b4; stroke: #1f77b4"/>
     <use xlink:href="#m8dbe7a0ba8" x="161.049521" y="184.26748" style="fill: #1f77b4; stroke: #1f77b4"/>
     <use xlink:href="#m8dbe7a0ba8" x="81.863238" y="208.957362" style="fill: #1f77b4; stroke: #1f77b4"/>
     <use xlink:href="#m8dbe7a0ba8" x="297.347804" y="75.929097" style="fill: #1f77b4; stroke: #1f77b4"/>
     <use xlink:href="#m8dbe7a0ba8" x="125.282936" y="177.249816" style="fill: #1f77b4; stroke: #1f77b4"/>
     <use xlink:href="#m8dbe7a0ba8" x="247.264172" y="109.019686" style="fill: #1f77b4; stroke: #1f77b4"/>
     <use xlink:href="#m8dbe7a0ba8" x="167.088711" y="125.001518" style="fill: #1f77b4; stroke: #1f77b4"/>
     <use xlink:href="#m8dbe7a0ba8" x="91.33852" y="208.906138" style="fill: #1f77b4; stroke: #1f77b4"/>
     <use xlink:href="#m8dbe7a0ba8" x="196.555796" y="132.070406" style="fill: #1f77b4; stroke: #1f77b4"/>
     <use xlink:href="#m8dbe7a0ba8" x="151.470115" y="200.966446" style="fill: #1f77b4; stroke: #1f77b4"/>
     <use xlink:href="#m8dbe7a0ba8" x="216.599661" y="136.321983" style="fill: #1f77b4; stroke: #1f77b4"/>
     <use xlink:href="#m8dbe7a0ba8" x="260.175545" y="118.649765" style="fill: #1f77b4; stroke: #1f77b4"/>
     <use xlink:href="#m8dbe7a0ba8" x="123.616952" y="171.256629" style="fill: #1f77b4; stroke: #1f77b4"/>
     <use xlink:href="#m8dbe7a0ba8" x="327.335509" y="71.216506" style="fill: #1f77b4; stroke: #1f77b4"/>
     <use xlink:href="#m8dbe7a0ba8" x="165.110356" y="164.03407" style="fill: #1f77b4; stroke: #1f77b4"/>
     <use xlink:href="#m8dbe7a0ba8" x="246.118808" y="120.647494" style="fill: #1f77b4; stroke: #1f77b4"/>
     <use xlink:href="#m8dbe7a0ba8" x="134.185535" y="164.69998" style="fill: #1f77b4; stroke: #1f77b4"/>
     <use xlink:href="#m8dbe7a0ba8" x="86.705003" y="224.119613" style="fill: #1f77b4; stroke: #1f77b4"/>
     <use xlink:href="#m8dbe7a0ba8" x="155.426826" y="199.68585" style="fill: #1f77b4; stroke: #1f77b4"/>
     <use xlink:href="#m8dbe7a0ba8" x="289.798816" y="83.049209" style="fill: #1f77b4; stroke: #1f77b4"/>
     <use xlink:href="#m8dbe7a0ba8" x="302.449879" y="89.09362" style="fill: #1f77b4; stroke: #1f77b4"/>
     <use xlink:href="#m8dbe7a0ba8" x="266.839479" y="120.032808" style="fill: #1f77b4; stroke: #1f77b4"/>
     <use xlink:href="#m8dbe7a0ba8" x="234.613109" y="138.42216" style="fill: #1f77b4; stroke: #1f77b4"/>
     <use xlink:href="#m8dbe7a0ba8" x="109.143719" y="204.500889" style="fill: #1f77b4; stroke: #1f77b4"/>
     <use xlink:href="#m8dbe7a0ba8" x="273.607538" y="123.823371" style="fill: #1f77b4; stroke: #1f77b4"/>
     <use xlink:href="#m8dbe7a0ba8" x="127.625725" y="203.527637" style="fill: #1f77b4; stroke: #1f77b4"/>
     <use xlink:href="#m8dbe7a0ba8" x="287.508088" y="129.0482" style="fill: #1f77b4; stroke: #1f77b4"/>
     <use xlink:href="#m8dbe7a0ba8" x="243.515709" y="109.992939" style="fill: #1f77b4; stroke: #1f77b4"/>
     <use xlink:href="#m8dbe7a0ba8" x="133.769039" y="214.438311" style="fill: #1f77b4; stroke: #1f77b4"/>
     <use xlink:href="#m8dbe7a0ba8" x="143.036073" y="195.280602" style="fill: #1f77b4; stroke: #1f77b4"/>
     <use xlink:href="#m8dbe7a0ba8" x="271.160624" y="100.823875" style="fill: #1f77b4; stroke: #1f77b4"/>
     <use xlink:href="#m8dbe7a0ba8" x="128.666965" y="203.630084" style="fill: #1f77b4; stroke: #1f77b4"/>
     <use xlink:href="#m8dbe7a0ba8" x="330.146856" y="55.900583" style="fill: #1f77b4; stroke: #1f77b4"/>
     <use xlink:href="#m8dbe7a0ba8" x="120.232923" y="188.980071" style="fill: #1f77b4; stroke: #1f77b4"/>
     <use xlink:href="#m8dbe7a0ba8" x="200.772817" y="180.169574" style="fill: #1f77b4; stroke: #1f77b4"/>
     <use xlink:href="#m8dbe7a0ba8" x="240.235804" y="116.959378" style="fill: #1f77b4; stroke: #1f77b4"/>
     <use xlink:href="#m8dbe7a0ba8" x="289.694692" y="129.406767" style="fill: #1f77b4; stroke: #1f77b4"/>
     <use xlink:href="#m8dbe7a0ba8" x="207.072318" y="133.299777" style="fill: #1f77b4; stroke: #1f77b4"/>
     <use xlink:href="#m8dbe7a0ba8" x="148.814954" y="190.977801" style="fill: #1f77b4; stroke: #1f77b4"/>
     <use xlink:href="#m8dbe7a0ba8" x="272.253926" y="84.893266" style="fill: #1f77b4; stroke: #1f77b4"/>
     <use xlink:href="#m8dbe7a0ba8" x="152.771665" y="145.900838" style="fill: #1f77b4; stroke: #1f77b4"/>
     <use xlink:href="#m8dbe7a0ba8" x="221.233178" y="166.851381" style="fill: #1f77b4; stroke: #1f77b4"/>
     <use xlink:href="#m8dbe7a0ba8" x="190.568668" y="168.592991" style="fill: #1f77b4; stroke: #1f77b4"/>
     <use xlink:href="#m8dbe7a0ba8" x="236.122907" y="140.932127" style="fill: #1f77b4; stroke: #1f77b4"/>
     <use xlink:href="#m8dbe7a0ba8" x="176.928427" y="146.925314" style="fill: #1f77b4; stroke: #1f77b4"/>
     <use xlink:href="#m8dbe7a0ba8" x="276.366823" y="122.33788" style="fill: #1f77b4; stroke: #1f77b4"/>
     <use xlink:href="#m8dbe7a0ba8" x="178.698535" y="144.517794" style="fill: #1f77b4; stroke: #1f77b4"/>
     <use xlink:href="#m8dbe7a0ba8" x="236.643527" y="164.341413" style="fill: #1f77b4; stroke: #1f77b4"/>
     <use xlink:href="#m8dbe7a0ba8" x="261.372971" y="122.389103" style="fill: #1f77b4; stroke: #1f77b4"/>
     <use xlink:href="#m8dbe7a0ba8" x="243.567771" y="150.510982" style="fill: #1f77b4; stroke: #1f77b4"/>
     <use xlink:href="#m8dbe7a0ba8" x="62.183807" y="229.856681" style="fill: #1f77b4; stroke: #1f77b4"/>
     <use xlink:href="#m8dbe7a0ba8" x="98.887508" y="213.004044" style="fill: #1f77b4; stroke: #1f77b4"/>
     <use xlink:href="#m8dbe7a0ba8" x="208.790363" y="154.813783" style="fill: #1f77b4; stroke: #1f77b4"/>
     <use xlink:href="#m8dbe7a0ba8" x="229.354848" y="135.604849" style="fill: #1f77b4; stroke: #1f77b4"/>
     <use xlink:href="#m8dbe7a0ba8" x="184.581539" y="153.635635" style="fill: #1f77b4; stroke: #1f77b4"/>
     <use xlink:href="#m8dbe7a0ba8" x="281.00034" y="96.828417" style="fill: #1f77b4; stroke: #1f77b4"/>
     <use xlink:href="#m8dbe7a0ba8" x="136.163891" y="220.021707" style="fill: #1f77b4; stroke: #1f77b4"/>
     <use xlink:href="#m8dbe7a0ba8" x="118.514877" y="219.202126" style="fill: #1f77b4; stroke: #1f77b4"/>
     <use xlink:href="#m8dbe7a0ba8" x="346.025762" y="75.416859" style="fill: #1f77b4; stroke: #1f77b4"/>
     <use xlink:href="#m8dbe7a0ba8" x="75.719924" y="225.55388" style="fill: #1f77b4; stroke: #1f77b4"/>
     <use xlink:href="#m8dbe7a0ba8" x="193.588263" y="143.646989" style="fill: #1f77b4; stroke: #1f77b4"/>
     <use xlink:href="#m8dbe7a0ba8" x="203.115607" y="172.74212" style="fill: #1f77b4; stroke: #1f77b4"/>
     <use xlink:href="#m8dbe7a0ba8" x="295.1612" y="80.334346" style="fill: #1f77b4; stroke: #1f77b4"/>
     <use xlink:href="#m8dbe7a0ba8" x="281.416836" y="90.937677" style="fill: #1f77b4; stroke: #1f77b4"/>
     <use xlink:href="#m8dbe7a0ba8" x="204.729528" y="142.724961" style="fill: #1f77b4; stroke: #1f77b4"/>
     <use xlink:href="#m8dbe7a0ba8" x="270.952376" y="82.434523" style="fill: #1f77b4; stroke: #1f77b4"/>
     <use xlink:href="#m8dbe7a0ba8" x="261.060599" y="105.843809" style="fill: #1f77b4; stroke: #1f77b4"/>
     <use xlink:href="#m8dbe7a0ba8" x="176.980489" y="179.913455" style="fill: #1f77b4; stroke: #1f77b4"/>
     <use xlink:href="#m8dbe7a0ba8" x="210.456347" y="138.217264" style="fill: #1f77b4; stroke: #1f77b4"/>
     <use xlink:href="#m8dbe7a0ba8" x="118.306629" y="228.524862" style="fill: #1f77b4; stroke: #1f77b4"/>
     <use xlink:href="#m8dbe7a0ba8" x="205.666644" y="158.092107" style="fill: #1f77b4; stroke: #1f77b4"/>
     <use xlink:href="#m8dbe7a0ba8" x="142.359267" y="204.193546" style="fill: #1f77b4; stroke: #1f77b4"/>
     <use xlink:href="#m8dbe7a0ba8" x="295.838006" y="112.605354" style="fill: #1f77b4; stroke: #1f77b4"/>
     <use xlink:href="#m8dbe7a0ba8" x="109.039595" y="201.581132" style="fill: #1f77b4; stroke: #1f77b4"/>
     <use xlink:href="#m8dbe7a0ba8" x="229.250724" y="130.841034" style="fill: #1f77b4; stroke: #1f77b4"/>
     <use xlink:href="#m8dbe7a0ba8" x="201.241375" y="140.932127" style="fill: #1f77b4; stroke: #1f77b4"/>
     <use xlink:href="#m8dbe7a0ba8" x="316.298367" y="34.028011" style="fill: #1f77b4; stroke: #1f77b4"/>
     <use xlink:href="#m8dbe7a0ba8" x="77.906527" y="231.700739" style="fill: #1f77b4; stroke: #1f77b4"/>
     <use xlink:href="#m8dbe7a0ba8" x="128.719027" y="173.459254" style="fill: #1f77b4; stroke: #1f77b4"/>
     <use xlink:href="#m8dbe7a0ba8" x="88.73542" y="220.32905" style="fill: #1f77b4; stroke: #1f77b4"/>
     <use xlink:href="#m8dbe7a0ba8" x="125.959741" y="190.209443" style="fill: #1f77b4; stroke: #1f77b4"/>
     <use xlink:href="#m8dbe7a0ba8" x="126.636547" y="171.820091" style="fill: #1f77b4; stroke: #1f77b4"/>
     <use xlink:href="#m8dbe7a0ba8" x="283.395191" y="81.205151" style="fill: #1f77b4; stroke: #1f77b4"/>
     <use xlink:href="#m8dbe7a0ba8" x="271.31681" y="113.015144" style="fill: #1f77b4; stroke: #1f77b4"/>
     <use xlink:href="#m8dbe7a0ba8" x="259.967297" y="144.671466" style="fill: #1f77b4; stroke: #1f77b4"/>
     <use xlink:href="#m8dbe7a0ba8" x="145.795359" y="169.2589" style="fill: #1f77b4; stroke: #1f77b4"/>
     <use xlink:href="#m8dbe7a0ba8" x="214.46512" y="154.352768" style="fill: #1f77b4; stroke: #1f77b4"/>
     <use xlink:href="#m8dbe7a0ba8" x="158.967041" y="187.136014" style="fill: #1f77b4; stroke: #1f77b4"/>
     <use xlink:href="#m8dbe7a0ba8" x="114.558166" y="177.659607" style="fill: #1f77b4; stroke: #1f77b4"/>
    </g>
   </g>
   <g id="matplotlib.axis_1">
    <g id="xtick_1">
     <g id="line2d_1">
      <defs>
       <path id="m842351252c" d="M 0 0 
L 0 3.5 
" style="stroke: #000000; stroke-width: 0.8"/>
      </defs>
      <g>
       <use xlink:href="#m842351252c" x="75.928171" y="241.584375" style="stroke: #000000; stroke-width: 0.8"/>
      </g>
     </g>
     <g id="text_1">
      <!-- 50 -->
      <g transform="translate(69.565671 256.182812)scale(0.1 -0.1)">
       <defs>
        <path id="DejaVuSans-35" d="M 691 4666 
L 3169 4666 
L 3169 4134 
L 1269 4134 
L 1269 2991 
Q 1406 3038 1543 3061 
Q 1681 3084 1819 3084 
Q 2600 3084 3056 2656 
Q 3513 2228 3513 1497 
Q 3513 744 3044 326 
Q 2575 -91 1722 -91 
Q 1428 -91 1123 -41 
Q 819 9 494 109 
L 494 744 
Q 775 591 1075 516 
Q 1375 441 1709 441 
Q 2250 441 2565 725 
Q 2881 1009 2881 1497 
Q 2881 1984 2565 2268 
Q 2250 2553 1709 2553 
Q 1456 2553 1204 2497 
Q 953 2441 691 2322 
L 691 4666 
z
" transform="scale(0.015625)"/>
        <path id="DejaVuSans-30" d="M 2034 4250 
Q 1547 4250 1301 3770 
Q 1056 3291 1056 2328 
Q 1056 1369 1301 889 
Q 1547 409 2034 409 
Q 2525 409 2770 889 
Q 3016 1369 3016 2328 
Q 3016 3291 2770 3770 
Q 2525 4250 2034 4250 
z
M 2034 4750 
Q 2819 4750 3233 4129 
Q 3647 3509 3647 2328 
Q 3647 1150 3233 529 
Q 2819 -91 2034 -91 
Q 1250 -91 836 529 
Q 422 1150 422 2328 
Q 422 3509 836 4129 
Q 1250 4750 2034 4750 
z
" transform="scale(0.015625)"/>
       </defs>
       <use xlink:href="#DejaVuSans-35"/>
       <use xlink:href="#DejaVuSans-30" x="63.623047"/>
      </g>
     </g>
    </g>
    <g id="xtick_2">
     <g id="line2d_2">
      <g>
       <use xlink:href="#m842351252c" x="127.990159" y="241.584375" style="stroke: #000000; stroke-width: 0.8"/>
      </g>
     </g>
     <g id="text_2">
      <!-- 60 -->
      <g transform="translate(121.627659 256.182812)scale(0.1 -0.1)">
       <defs>
        <path id="DejaVuSans-36" d="M 2113 2584 
Q 1688 2584 1439 2293 
Q 1191 2003 1191 1497 
Q 1191 994 1439 701 
Q 1688 409 2113 409 
Q 2538 409 2786 701 
Q 3034 994 3034 1497 
Q 3034 2003 2786 2293 
Q 2538 2584 2113 2584 
z
M 3366 4563 
L 3366 3988 
Q 3128 4100 2886 4159 
Q 2644 4219 2406 4219 
Q 1781 4219 1451 3797 
Q 1122 3375 1075 2522 
Q 1259 2794 1537 2939 
Q 1816 3084 2150 3084 
Q 2853 3084 3261 2657 
Q 3669 2231 3669 1497 
Q 3669 778 3244 343 
Q 2819 -91 2113 -91 
Q 1303 -91 875 529 
Q 447 1150 447 2328 
Q 447 3434 972 4092 
Q 1497 4750 2381 4750 
Q 2619 4750 2861 4703 
Q 3103 4656 3366 4563 
z
" transform="scale(0.015625)"/>
       </defs>
       <use xlink:href="#DejaVuSans-36"/>
       <use xlink:href="#DejaVuSans-30" x="63.623047"/>
      </g>
     </g>
    </g>
    <g id="xtick_3">
     <g id="line2d_3">
      <g>
       <use xlink:href="#m842351252c" x="180.052146" y="241.584375" style="stroke: #000000; stroke-width: 0.8"/>
      </g>
     </g>
     <g id="text_3">
      <!-- 70 -->
      <g transform="translate(173.689646 256.182812)scale(0.1 -0.1)">
       <defs>
        <path id="DejaVuSans-37" d="M 525 4666 
L 3525 4666 
L 3525 4397 
L 1831 0 
L 1172 0 
L 2766 4134 
L 525 4134 
L 525 4666 
z
" transform="scale(0.015625)"/>
       </defs>
       <use xlink:href="#DejaVuSans-37"/>
       <use xlink:href="#DejaVuSans-30" x="63.623047"/>
      </g>
     </g>
    </g>
    <g id="xtick_4">
     <g id="line2d_4">
      <g>
       <use xlink:href="#m842351252c" x="232.114134" y="241.584375" style="stroke: #000000; stroke-width: 0.8"/>
      </g>
     </g>
     <g id="text_4">
      <!-- 80 -->
      <g transform="translate(225.751634 256.182812)scale(0.1 -0.1)">
       <defs>
        <path id="DejaVuSans-38" d="M 2034 2216 
Q 1584 2216 1326 1975 
Q 1069 1734 1069 1313 
Q 1069 891 1326 650 
Q 1584 409 2034 409 
Q 2484 409 2743 651 
Q 3003 894 3003 1313 
Q 3003 1734 2745 1975 
Q 2488 2216 2034 2216 
z
M 1403 2484 
Q 997 2584 770 2862 
Q 544 3141 544 3541 
Q 544 4100 942 4425 
Q 1341 4750 2034 4750 
Q 2731 4750 3128 4425 
Q 3525 4100 3525 3541 
Q 3525 3141 3298 2862 
Q 3072 2584 2669 2484 
Q 3125 2378 3379 2068 
Q 3634 1759 3634 1313 
Q 3634 634 3220 271 
Q 2806 -91 2034 -91 
Q 1263 -91 848 271 
Q 434 634 434 1313 
Q 434 1759 690 2068 
Q 947 2378 1403 2484 
z
M 1172 3481 
Q 1172 3119 1398 2916 
Q 1625 2713 2034 2713 
Q 2441 2713 2670 2916 
Q 2900 3119 2900 3481 
Q 2900 3844 2670 4047 
Q 2441 4250 2034 4250 
Q 1625 4250 1398 4047 
Q 1172 3844 1172 3481 
z
" transform="scale(0.015625)"/>
       </defs>
       <use xlink:href="#DejaVuSans-38"/>
       <use xlink:href="#DejaVuSans-30" x="63.623047"/>
      </g>
     </g>
    </g>
    <g id="xtick_5">
     <g id="line2d_5">
      <g>
       <use xlink:href="#m842351252c" x="284.176121" y="241.584375" style="stroke: #000000; stroke-width: 0.8"/>
      </g>
     </g>
     <g id="text_5">
      <!-- 90 -->
      <g transform="translate(277.813621 256.182812)scale(0.1 -0.1)">
       <defs>
        <path id="DejaVuSans-39" d="M 703 97 
L 703 672 
Q 941 559 1184 500 
Q 1428 441 1663 441 
Q 2288 441 2617 861 
Q 2947 1281 2994 2138 
Q 2813 1869 2534 1725 
Q 2256 1581 1919 1581 
Q 1219 1581 811 2004 
Q 403 2428 403 3163 
Q 403 3881 828 4315 
Q 1253 4750 1959 4750 
Q 2769 4750 3195 4129 
Q 3622 3509 3622 2328 
Q 3622 1225 3098 567 
Q 2575 -91 1691 -91 
Q 1453 -91 1209 -44 
Q 966 3 703 97 
z
M 1959 2075 
Q 2384 2075 2632 2365 
Q 2881 2656 2881 3163 
Q 2881 3666 2632 3958 
Q 2384 4250 1959 4250 
Q 1534 4250 1286 3958 
Q 1038 3666 1038 3163 
Q 1038 2656 1286 2365 
Q 1534 2075 1959 2075 
z
" transform="scale(0.015625)"/>
       </defs>
       <use xlink:href="#DejaVuSans-39"/>
       <use xlink:href="#DejaVuSans-30" x="63.623047"/>
      </g>
     </g>
    </g>
    <g id="xtick_6">
     <g id="line2d_6">
      <g>
       <use xlink:href="#m842351252c" x="336.238108" y="241.584375" style="stroke: #000000; stroke-width: 0.8"/>
      </g>
     </g>
     <g id="text_6">
      <!-- 100 -->
      <g transform="translate(326.694358 256.182812)scale(0.1 -0.1)">
       <defs>
        <path id="DejaVuSans-31" d="M 794 531 
L 1825 531 
L 1825 4091 
L 703 3866 
L 703 4441 
L 1819 4666 
L 2450 4666 
L 2450 531 
L 3481 531 
L 3481 0 
L 794 0 
L 794 531 
z
" transform="scale(0.015625)"/>
       </defs>
       <use xlink:href="#DejaVuSans-31"/>
       <use xlink:href="#DejaVuSans-30" x="63.623047"/>
       <use xlink:href="#DejaVuSans-30" x="127.246094"/>
      </g>
     </g>
    </g>
    <g id="text_7">
     <!-- Weight (kg) -->
     <g transform="translate(185.386719 269.860937)scale(0.1 -0.1)">
      <defs>
       <path id="DejaVuSans-57" d="M 213 4666 
L 850 4666 
L 1831 722 
L 2809 4666 
L 3519 4666 
L 4500 722 
L 5478 4666 
L 6119 4666 
L 4947 0 
L 4153 0 
L 3169 4050 
L 2175 0 
L 1381 0 
L 213 4666 
z
" transform="scale(0.015625)"/>
       <path id="DejaVuSans-65" d="M 3597 1894 
L 3597 1613 
L 953 1613 
Q 991 1019 1311 708 
Q 1631 397 2203 397 
Q 2534 397 2845 478 
Q 3156 559 3463 722 
L 3463 178 
Q 3153 47 2828 -22 
Q 2503 -91 2169 -91 
Q 1331 -91 842 396 
Q 353 884 353 1716 
Q 353 2575 817 3079 
Q 1281 3584 2069 3584 
Q 2775 3584 3186 3129 
Q 3597 2675 3597 1894 
z
M 3022 2063 
Q 3016 2534 2758 2815 
Q 2500 3097 2075 3097 
Q 1594 3097 1305 2825 
Q 1016 2553 972 2059 
L 3022 2063 
z
" transform="scale(0.015625)"/>
       <path id="DejaVuSans-69" d="M 603 3500 
L 1178 3500 
L 1178 0 
L 603 0 
L 603 3500 
z
M 603 4863 
L 1178 4863 
L 1178 4134 
L 603 4134 
L 603 4863 
z
" transform="scale(0.015625)"/>
       <path id="DejaVuSans-67" d="M 2906 1791 
Q 2906 2416 2648 2759 
Q 2391 3103 1925 3103 
Q 1463 3103 1205 2759 
Q 947 2416 947 1791 
Q 947 1169 1205 825 
Q 1463 481 1925 481 
Q 2391 481 2648 825 
Q 2906 1169 2906 1791 
z
M 3481 434 
Q 3481 -459 3084 -895 
Q 2688 -1331 1869 -1331 
Q 1566 -1331 1297 -1286 
Q 1028 -1241 775 -1147 
L 775 -588 
Q 1028 -725 1275 -790 
Q 1522 -856 1778 -856 
Q 2344 -856 2625 -561 
Q 2906 -266 2906 331 
L 2906 616 
Q 2728 306 2450 153 
Q 2172 0 1784 0 
Q 1141 0 747 490 
Q 353 981 353 1791 
Q 353 2603 747 3093 
Q 1141 3584 1784 3584 
Q 2172 3584 2450 3431 
Q 2728 3278 2906 2969 
L 2906 3500 
L 3481 3500 
L 3481 434 
z
" transform="scale(0.015625)"/>
       <path id="DejaVuSans-68" d="M 3513 2113 
L 3513 0 
L 2938 0 
L 2938 2094 
Q 2938 2591 2744 2837 
Q 2550 3084 2163 3084 
Q 1697 3084 1428 2787 
Q 1159 2491 1159 1978 
L 1159 0 
L 581 0 
L 581 4863 
L 1159 4863 
L 1159 2956 
Q 1366 3272 1645 3428 
Q 1925 3584 2291 3584 
Q 2894 3584 3203 3211 
Q 3513 2838 3513 2113 
z
" transform="scale(0.015625)"/>
       <path id="DejaVuSans-74" d="M 1172 4494 
L 1172 3500 
L 2356 3500 
L 2356 3053 
L 1172 3053 
L 1172 1153 
Q 1172 725 1289 603 
Q 1406 481 1766 481 
L 2356 481 
L 2356 0 
L 1766 0 
Q 1100 0 847 248 
Q 594 497 594 1153 
L 594 3053 
L 172 3053 
L 172 3500 
L 594 3500 
L 594 4494 
L 1172 4494 
z
" transform="scale(0.015625)"/>
       <path id="DejaVuSans-20" transform="scale(0.015625)"/>
       <path id="DejaVuSans-28" d="M 1984 4856 
Q 1566 4138 1362 3434 
Q 1159 2731 1159 2009 
Q 1159 1288 1364 580 
Q 1569 -128 1984 -844 
L 1484 -844 
Q 1016 -109 783 600 
Q 550 1309 550 2009 
Q 550 2706 781 3412 
Q 1013 4119 1484 4856 
L 1984 4856 
z
" transform="scale(0.015625)"/>
       <path id="DejaVuSans-6b" d="M 581 4863 
L 1159 4863 
L 1159 1991 
L 2875 3500 
L 3609 3500 
L 1753 1863 
L 3688 0 
L 2938 0 
L 1159 1709 
L 1159 0 
L 581 0 
L 581 4863 
z
" transform="scale(0.015625)"/>
       <path id="DejaVuSans-29" d="M 513 4856 
L 1013 4856 
Q 1481 4119 1714 3412 
Q 1947 2706 1947 2009 
Q 1947 1309 1714 600 
Q 1481 -109 1013 -844 
L 513 -844 
Q 928 -128 1133 580 
Q 1338 1288 1338 2009 
Q 1338 2731 1133 3434 
Q 928 4138 513 4856 
z
" transform="scale(0.015625)"/>
      </defs>
      <use xlink:href="#DejaVuSans-57"/>
      <use xlink:href="#DejaVuSans-65" x="93.001953"/>
      <use xlink:href="#DejaVuSans-69" x="154.525391"/>
      <use xlink:href="#DejaVuSans-67" x="182.308594"/>
      <use xlink:href="#DejaVuSans-68" x="245.785156"/>
      <use xlink:href="#DejaVuSans-74" x="309.164062"/>
      <use xlink:href="#DejaVuSans-20" x="348.373047"/>
      <use xlink:href="#DejaVuSans-28" x="380.160156"/>
      <use xlink:href="#DejaVuSans-6b" x="419.173828"/>
      <use xlink:href="#DejaVuSans-67" x="477.083984"/>
      <use xlink:href="#DejaVuSans-29" x="540.560547"/>
     </g>
    </g>
   </g>
   <g id="matplotlib.axis_2">
    <g id="ytick_1">
     <g id="line2d_7">
      <defs>
       <path id="m1b6a56c3a3" d="M 0 0 
L -3.5 0 
" style="stroke: #000000; stroke-width: 0.8"/>
      </defs>
      <g>
       <use xlink:href="#m1b6a56c3a3" x="46.965625" y="222.839018" style="stroke: #000000; stroke-width: 0.8"/>
      </g>
     </g>
     <g id="text_8">
      <!-- 155 -->
      <g transform="translate(20.878125 226.638236)scale(0.1 -0.1)">
       <use xlink:href="#DejaVuSans-31"/>
       <use xlink:href="#DejaVuSans-35" x="63.623047"/>
       <use xlink:href="#DejaVuSans-35" x="127.246094"/>
      </g>
     </g>
    </g>
    <g id="ytick_2">
     <g id="line2d_8">
      <g>
       <use xlink:href="#m1b6a56c3a3" x="46.965625" y="197.227107" style="stroke: #000000; stroke-width: 0.8"/>
      </g>
     </g>
     <g id="text_9">
      <!-- 160 -->
      <g transform="translate(20.878125 201.026325)scale(0.1 -0.1)">
       <use xlink:href="#DejaVuSans-31"/>
       <use xlink:href="#DejaVuSans-36" x="63.623047"/>
       <use xlink:href="#DejaVuSans-30" x="127.246094"/>
      </g>
     </g>
    </g>
    <g id="ytick_3">
     <g id="line2d_9">
      <g>
       <use xlink:href="#m1b6a56c3a3" x="46.965625" y="171.615196" style="stroke: #000000; stroke-width: 0.8"/>
      </g>
     </g>
     <g id="text_10">
      <!-- 165 -->
      <g transform="translate(20.878125 175.414415)scale(0.1 -0.1)">
       <use xlink:href="#DejaVuSans-31"/>
       <use xlink:href="#DejaVuSans-36" x="63.623047"/>
       <use xlink:href="#DejaVuSans-35" x="127.246094"/>
      </g>
     </g>
    </g>
    <g id="ytick_4">
     <g id="line2d_10">
      <g>
       <use xlink:href="#m1b6a56c3a3" x="46.965625" y="146.003285" style="stroke: #000000; stroke-width: 0.8"/>
      </g>
     </g>
     <g id="text_11">
      <!-- 170 -->
      <g transform="translate(20.878125 149.802504)scale(0.1 -0.1)">
       <use xlink:href="#DejaVuSans-31"/>
       <use xlink:href="#DejaVuSans-37" x="63.623047"/>
       <use xlink:href="#DejaVuSans-30" x="127.246094"/>
      </g>
     </g>
    </g>
    <g id="ytick_5">
     <g id="line2d_11">
      <g>
       <use xlink:href="#m1b6a56c3a3" x="46.965625" y="120.391374" style="stroke: #000000; stroke-width: 0.8"/>
      </g>
     </g>
     <g id="text_12">
      <!-- 175 -->
      <g transform="translate(20.878125 124.190593)scale(0.1 -0.1)">
       <use xlink:href="#DejaVuSans-31"/>
       <use xlink:href="#DejaVuSans-37" x="63.623047"/>
       <use xlink:href="#DejaVuSans-35" x="127.246094"/>
      </g>
     </g>
    </g>
    <g id="ytick_6">
     <g id="line2d_12">
      <g>
       <use xlink:href="#m1b6a56c3a3" x="46.965625" y="94.779464" style="stroke: #000000; stroke-width: 0.8"/>
      </g>
     </g>
     <g id="text_13">
      <!-- 180 -->
      <g transform="translate(20.878125 98.578682)scale(0.1 -0.1)">
       <use xlink:href="#DejaVuSans-31"/>
       <use xlink:href="#DejaVuSans-38" x="63.623047"/>
       <use xlink:href="#DejaVuSans-30" x="127.246094"/>
      </g>
     </g>
    </g>
    <g id="ytick_7">
     <g id="line2d_13">
      <g>
       <use xlink:href="#m1b6a56c3a3" x="46.965625" y="69.167553" style="stroke: #000000; stroke-width: 0.8"/>
      </g>
     </g>
     <g id="text_14">
      <!-- 185 -->
      <g transform="translate(20.878125 72.966772)scale(0.1 -0.1)">
       <use xlink:href="#DejaVuSans-31"/>
       <use xlink:href="#DejaVuSans-38" x="63.623047"/>
       <use xlink:href="#DejaVuSans-35" x="127.246094"/>
      </g>
     </g>
    </g>
    <g id="ytick_8">
     <g id="line2d_14">
      <g>
       <use xlink:href="#m1b6a56c3a3" x="46.965625" y="43.555642" style="stroke: #000000; stroke-width: 0.8"/>
      </g>
     </g>
     <g id="text_15">
      <!-- 190 -->
      <g transform="translate(20.878125 47.354861)scale(0.1 -0.1)">
       <use xlink:href="#DejaVuSans-31"/>
       <use xlink:href="#DejaVuSans-39" x="63.623047"/>
       <use xlink:href="#DejaVuSans-30" x="127.246094"/>
      </g>
     </g>
    </g>
    <g id="text_16">
     <!-- Height (cm) -->
     <g transform="translate(14.798438 162.503437)rotate(-90)scale(0.1 -0.1)">
      <defs>
       <path id="DejaVuSans-48" d="M 628 4666 
L 1259 4666 
L 1259 2753 
L 3553 2753 
L 3553 4666 
L 4184 4666 
L 4184 0 
L 3553 0 
L 3553 2222 
L 1259 2222 
L 1259 0 
L 628 0 
L 628 4666 
z
" transform="scale(0.015625)"/>
       <path id="DejaVuSans-63" d="M 3122 3366 
L 3122 2828 
Q 2878 2963 2633 3030 
Q 2388 3097 2138 3097 
Q 1578 3097 1268 2742 
Q 959 2388 959 1747 
Q 959 1106 1268 751 
Q 1578 397 2138 397 
Q 2388 397 2633 464 
Q 2878 531 3122 666 
L 3122 134 
Q 2881 22 2623 -34 
Q 2366 -91 2075 -91 
Q 1284 -91 818 406 
Q 353 903 353 1747 
Q 353 2603 823 3093 
Q 1294 3584 2113 3584 
Q 2378 3584 2631 3529 
Q 2884 3475 3122 3366 
z
" transform="scale(0.015625)"/>
       <path id="DejaVuSans-6d" d="M 3328 2828 
Q 3544 3216 3844 3400 
Q 4144 3584 4550 3584 
Q 5097 3584 5394 3201 
Q 5691 2819 5691 2113 
L 5691 0 
L 5113 0 
L 5113 2094 
Q 5113 2597 4934 2840 
Q 4756 3084 4391 3084 
Q 3944 3084 3684 2787 
Q 3425 2491 3425 1978 
L 3425 0 
L 2847 0 
L 2847 2094 
Q 2847 2600 2669 2842 
Q 2491 3084 2119 3084 
Q 1678 3084 1418 2786 
Q 1159 2488 1159 1978 
L 1159 0 
L 581 0 
L 581 3500 
L 1159 3500 
L 1159 2956 
Q 1356 3278 1631 3431 
Q 1906 3584 2284 3584 
Q 2666 3584 2933 3390 
Q 3200 3197 3328 2828 
z
" transform="scale(0.015625)"/>
      </defs>
      <use xlink:href="#DejaVuSans-48"/>
      <use xlink:href="#DejaVuSans-65" x="75.195312"/>
      <use xlink:href="#DejaVuSans-69" x="136.71875"/>
      <use xlink:href="#DejaVuSans-67" x="164.501953"/>
      <use xlink:href="#DejaVuSans-68" x="227.978516"/>
      <use xlink:href="#DejaVuSans-74" x="291.357422"/>
      <use xlink:href="#DejaVuSans-20" x="330.566406"/>
      <use xlink:href="#DejaVuSans-28" x="362.353516"/>
      <use xlink:href="#DejaVuSans-63" x="401.367188"/>
      <use xlink:href="#DejaVuSans-6d" x="456.347656"/>
      <use xlink:href="#DejaVuSans-29" x="553.759766"/>
     </g>
    </g>
   </g>
   <g id="line2d_15">
    <path d="M 238.837825 123.106237 
L 241.481612 121.262179 
L 196.096595 152.918501 
L 299.277742 80.949032 
L 208.140515 144.517794 
L 175.827558 167.056276 
L 189.560565 157.477421 
L 202.852941 148.20591 
L 125.228405 202.349489 
L 143.808356 189.389862 
L 313.010749 71.370177 
L 151.372525 184.113808 
L 151.152209 184.26748 
L 115.754834 208.957362 
L 306.474719 75.929097 
L 161.213289 177.249816 
L 259.033423 109.019686 
L 236.120599 125.001518 
L 115.828272 208.906138 
L 225.98608 132.070406 
L 127.211246 200.966446 
L 219.890682 136.321983 
L 245.226977 118.649765 
L 169.805598 171.256629 
L 313.231064 71.216506 
L 180.160432 164.03407 
L 242.362874 120.647494 
L 179.205731 164.69998 
L 94.017026 224.119613 
L 129.047209 199.68585 
L 296.266762 83.049209 
L 287.601014 89.09362 
L 243.244137 120.032808 
L 216.879701 138.42216 
L 122.143987 204.500889 
L 237.809685 123.823371 
L 123.539319 203.527637 
L 230.318954 129.0482 
L 257.63809 109.992939 
L 107.89691 214.438311 
L 135.362924 195.280602 
L 270.783589 100.823875 
L 123.392442 203.630084 
L 335.189187 55.900583 
L 144.395864 188.980071 
L 157.027292 180.169574 
L 247.650449 116.959378 
L 229.804884 129.406767 
L 224.223555 133.299777 
L 141.531761 190.977801 
L 293.622974 84.893266 
L 206.157675 145.900838 
L 176.121313 166.851381 
L 173.624402 168.592991 
L 213.281213 140.932127 
L 204.688904 146.925314 
L 239.939403 122.33788 
L 208.140515 144.517794 
L 179.719801 164.341413 
L 239.865964 122.389103 
L 199.548206 150.510982 
L 85.79191 229.856681 
L 109.953189 213.004044 
L 193.379369 154.813783 
L 220.918821 135.604849 
L 195.068455 153.635635 
L 276.511795 96.828417 
L 99.892109 220.021707 
L 101.067126 219.202126 
L 307.209104 75.416859 
L 91.960747 225.55388 
L 209.388971 143.646989 
L 167.675881 172.74212 
L 300.159004 80.334346 
L 284.957227 90.937677 
L 210.710864 142.724961 
L 297.148024 82.434523 
L 263.586612 105.843809 
L 157.394485 179.913455 
L 217.173456 138.217264 
L 87.701312 228.524862 
L 188.679303 158.092107 
L 122.584618 204.193546 
L 253.892725 112.605354 
L 126.329983 201.581132 
L 227.748605 130.841034 
L 213.281213 140.932127 
L 366.547443 34.028011 
L 83.148123 231.700739 
L 166.647741 173.459254 
L 99.451478 220.32905 
L 142.633339 190.209443 
L 168.997774 171.820091 
L 298.910549 81.205151 
L 253.305217 113.015144 
L 207.9202 144.671466 
L 172.669701 169.2589 
L 194.040316 154.352768 
L 147.039651 187.136014 
L 160.625781 177.659607 
" clip-path="url(#p0704ecfa3c)" style="fill: none; stroke: #ff0000; stroke-width: 1.5; stroke-linecap: square"/>
   </g>
   <g id="patch_3">
    <path d="M 46.965625 241.584375 
L 46.965625 24.144375 
" style="fill: none; stroke: #000000; stroke-width: 0.8; stroke-linejoin: miter; stroke-linecap: square"/>
   </g>
   <g id="patch_4">
    <path d="M 381.765625 241.584375 
L 381.765625 24.144375 
" style="fill: none; stroke: #000000; stroke-width: 0.8; stroke-linejoin: miter; stroke-linecap: square"/>
   </g>
   <g id="patch_5">
    <path d="M 46.965625 241.584375 
L 381.765625 241.584375 
" style="fill: none; stroke: #000000; stroke-width: 0.8; stroke-linejoin: miter; stroke-linecap: square"/>
   </g>
   <g id="patch_6">
    <path d="M 46.965625 24.144375 
L 381.765625 24.144375 
" style="fill: none; stroke: #000000; stroke-width: 0.8; stroke-linejoin: miter; stroke-linecap: square"/>
   </g>
   <g id="text_17">
    <!-- $\hatY = -164.8156 + 1.4106X$ -->
    <g transform="translate(134.985625 18.144375)scale(0.12 -0.12)">
     <defs>
      <path id="DejaVuSans-302" d="M -1831 5119 
L -1369 5119 
L -603 3944 
L -1038 3944 
L -1600 4709 
L -2163 3944 
L -2597 3944 
L -1831 5119 
z
M -1600 3584 
L -1600 3584 
z
" transform="scale(0.015625)"/>
      <path id="DejaVuSans-Oblique-59" d="M 403 4666 
L 1081 4666 
L 1953 2747 
L 3616 4666 
L 4325 4666 
L 2209 2222 
L 1778 0 
L 1147 0 
L 1575 2222 
L 403 4666 
z
" transform="scale(0.015625)"/>
      <path id="DejaVuSans-3d" d="M 678 2906 
L 4684 2906 
L 4684 2381 
L 678 2381 
L 678 2906 
z
M 678 1631 
L 4684 1631 
L 4684 1100 
L 678 1100 
L 678 1631 
z
" transform="scale(0.015625)"/>
      <path id="DejaVuSans-2212" d="M 678 2272 
L 4684 2272 
L 4684 1741 
L 678 1741 
L 678 2272 
z
" transform="scale(0.015625)"/>
      <path id="DejaVuSans-34" d="M 2419 4116 
L 825 1625 
L 2419 1625 
L 2419 4116 
z
M 2253 4666 
L 3047 4666 
L 3047 1625 
L 3713 1625 
L 3713 1100 
L 3047 1100 
L 3047 0 
L 2419 0 
L 2419 1100 
L 313 1100 
L 313 1709 
L 2253 4666 
z
" transform="scale(0.015625)"/>
      <path id="DejaVuSans-2e" d="M 684 794 
L 1344 794 
L 1344 0 
L 684 0 
L 684 794 
z
" transform="scale(0.015625)"/>
      <path id="DejaVuSans-2b" d="M 2944 4013 
L 2944 2272 
L 4684 2272 
L 4684 1741 
L 2944 1741 
L 2944 0 
L 2419 0 
L 2419 1741 
L 678 1741 
L 678 2272 
L 2419 2272 
L 2419 4013 
L 2944 4013 
z
" transform="scale(0.015625)"/>
      <path id="DejaVuSans-Oblique-58" d="M 878 4666 
L 1516 4666 
L 2316 2981 
L 3763 4666 
L 4500 4666 
L 2578 2438 
L 3738 0 
L 3103 0 
L 2163 1966 
L 459 0 
L -275 0 
L 1906 2509 
L 878 4666 
z
" transform="scale(0.015625)"/>
     </defs>
     <use xlink:href="#DejaVuSans-302" transform="translate(62.894531 30.015625)"/>
     <use xlink:href="#DejaVuSans-Oblique-59" transform="translate(0 0.609375)"/>
     <use xlink:href="#DejaVuSans-3d" transform="translate(80.748047 0.609375)"/>
     <use xlink:href="#DejaVuSans-2212" transform="translate(203.501953 0.609375)"/>
     <use xlink:href="#DejaVuSans-31" transform="translate(306.773438 0.609375)"/>
     <use xlink:href="#DejaVuSans-36" transform="translate(370.396484 0.609375)"/>
     <use xlink:href="#DejaVuSans-34" transform="translate(434.019531 0.609375)"/>
     <use xlink:href="#DejaVuSans-2e" transform="translate(497.642578 0.609375)"/>
     <use xlink:href="#DejaVuSans-38" transform="translate(526.804688 0.609375)"/>
     <use xlink:href="#DejaVuSans-31" transform="translate(590.427734 0.609375)"/>
     <use xlink:href="#DejaVuSans-35" transform="translate(654.050781 0.609375)"/>
     <use xlink:href="#DejaVuSans-36" transform="translate(717.673828 0.609375)"/>
     <use xlink:href="#DejaVuSans-2b" transform="translate(800.779297 0.609375)"/>
     <use xlink:href="#DejaVuSans-31" transform="translate(904.050781 0.609375)"/>
     <use xlink:href="#DejaVuSans-2e" transform="translate(967.673828 0.609375)"/>
     <use xlink:href="#DejaVuSans-34" transform="translate(999.460938 0.609375)"/>
     <use xlink:href="#DejaVuSans-31" transform="translate(1063.083984 0.609375)"/>
     <use xlink:href="#DejaVuSans-30" transform="translate(1126.707031 0.609375)"/>
     <use xlink:href="#DejaVuSans-36" transform="translate(1190.330078 0.609375)"/>
     <use xlink:href="#DejaVuSans-Oblique-58" transform="translate(1253.953125 0.609375)"/>
    </g>
   </g>
  </g>
 </g>
 <defs>
  <clipPath id="p0704ecfa3c">
   <rect x="46.965625" y="24.144375" width="334.8" height="217.44"/>
  </clipPath>
 </defs>
</svg>
